<svg viewBox="0 0 520 340" class="horizon-cartesian-chart" preserveAspectRatio="xMidYMid meet">
<g id="background-layer">
<line x1="50" y1="261.42857142857144" x2="435" y2="261.42857142857144" stroke="#e5e7eb" stroke-width="0.5"/>
<line x1="50" y1="222.85714285714286" x2="435" y2="222.85714285714286" stroke="#e5e7eb" stroke-width="0.5"/>
<line x1="50" y1="184.28571428571428" x2="435" y2="184.28571428571428" stroke="#e5e7eb" stroke-width="0.5"/>
<line x1="50" y1="145.71428571428572" x2="435" y2="145.71428571428572" stroke="#e5e7eb" stroke-width="0.5"/>
<line x1="50" y1="107.14285714285714" x2="435" y2="107.14285714285714" stroke="#e5e7eb" stroke-width="0.5"/>
<line x1="50" y1="68.57142857142858" x2="435" y2="68.57142857142858" stroke="#e5e7eb" stroke-width="0.5"/>
<line x1="50" y1="30" x2="50" y2="300" stroke="#e5e7eb" stroke-width="0.5"/>
<line x1="114.16666666666666" y1="30" x2="114.16666666666666" y2="300" stroke="#e5e7eb" stroke-width="0.5"/>
<line x1="178.33333333333331" y1="30" x2="178.33333333333331" y2="300" stroke="#e5e7eb" stroke-width="0.5"/>
<line x1="242.5" y1="30" x2="242.5" y2="300" stroke="#e5e7eb" stroke-width="0.5"/>
<line x1="306.66666666666663" y1="30" x2="306.66666666666663" y2="300" stroke="#e5e7eb" stroke-width="0.5"/>
<line x1="370.83333333333337" y1="30" x2="370.83333333333337" y2="300" stroke="#e5e7eb" stroke-width="0.5"/>
<line x1="435" y1="30" x2="435" y2="300" stroke="#e5e7eb" stroke-width="0.5"/>
<line x1="50" y1="300" x2="435" y2="300" stroke="#64748b" stroke-width="0.8"/>
<text x="443" y="276" text-anchor="start" font-size="9" fill="#475569" font-weight="600">Janvier – Février</text>
<line x1="50" y1="246" x2="435" y2="246" stroke="#64748b" stroke-width="0.8"/>
<text x="443" y="222" text-anchor="start" font-size="9" fill="#475569" font-weight="600">Mars – Avril</text>
<line x1="50" y1="192" x2="435" y2="192" stroke="#64748b" stroke-width="0.8"/>
<text x="443" y="168" text-anchor="start" font-size="9" fill="#475569" font-weight="600">Mai – Juin</text>
<line x1="50" y1="138" x2="435" y2="138" stroke="#64748b" stroke-width="0.8"/>
<text x="443" y="117.85714285714286" text-anchor="start" font-size="9" fill="#475569" font-weight="600">Juillet – Août</text>
<line x1="50" y1="91.7142857142857" x2="435" y2="91.7142857142857" stroke="#64748b" stroke-width="0.8"/>
<text x="443" y="79.28571428571428" text-anchor="start" font-size="9" fill="#475569" font-weight="600">Septembre – Octobre</text>
<line x1="50" y1="60.85714285714286" x2="435" y2="60.85714285714286" stroke="#64748b" stroke-width="0.8"/>
<text x="443" y="48.428571428571445" text-anchor="start" font-size="9" fill="#475569" font-weight="600">Novembre – Décembre</text>
</g>
<g id="visibility-layer">
<path class="vis-mask" d="M 124.38932778640849 300 L 118.32504427604373 300 L 123.09743873953254 300 L 109.04599474468071 300 L 97.40451376968693 300 L 100.88990480165391 300 L 84.08072588803803 300 L 76.07693771420867 300 L 71.26482421862258 300 L 69.01433110784005 300 L 63.73498407518392 294.9355021569948 L 63.88457389151843 300 L 63.88457389151843 300 L 124.38932778640849 300 Z" fill="rgba(100,116,139,0.22)" stroke="none"/>
<path class="vis-mask" d="M 139.40122749957226 300 L 133.7483245677918 300 L 138.39610311899676 300 L 125.07635465448608 300 L 114.10887772246755 300 L 117.09129436040233 295.09788175681945 L 101.09334906616158 300 L 92.46980353963227 293.08421557451754 L 87.94492876862316 300 L 85.85105651680527 278.64303160454585 L 85.85105651680527 300 L 139.40122749957226 300 Z" fill="rgba(100,116,139,0.22)" stroke="none"/>
<path class="vis-mask" d="M 154.45713946151474 300 L 149.08357061072587 300 L 153.84438415417492 300 L 141.04611026271147 293.45370361226276 L 130.03136174714896 300 L 132.8275728934981 265.08042624590234 L 132.8275728934981 300 L 154.45713946151474 300 Z" fill="rgba(100,116,139,0.22)" stroke="none"/>
<path class="vis-mask" d="M 127.81906407774594 269.9394220543542 L 117.31603999036216 293.3391314924968 L 112.4714021842867 272.9692214760439 L 112.4714021842867 300 L 127.81906407774594 300 Z" fill="rgba(100,116,139,0.22)" stroke="none"/>
<path class="vis-mask" d="M 170.2455458405086 294.48039908822886 L 165.09980004193199 287.63793526925326 L 170.15106480960296 280.04713300729384 L 161.3934325073434 265.0154112416077 L 161.3934325073434 300 L 170.2455458405086 300 Z" fill="rgba(100,116,139,0.22)" stroke="none"/>
<path class="vis-mask" d="M 154.7321579753903 265.78926521321375 L 146.1462714983868 284.8974852389007 L 147.51719475036163 266.6961437652633 L 147.51719475036163 300 L 154.7321579753903 300 Z" fill="rgba(100,116,139,0.22)" stroke="none"/>
<path class="vis-mask" d="M 187.25478188570384 267.7367734977882 L 184.57302680943218 263.07371033808874 L 184.57302680943218 300 L 187.25478188570384 300 Z" fill="rgba(100,116,139,0.22)" stroke="none"/>
<path class="vis-mask" d="M 303.6814406652122 276.17976532241437 L 303.6595161861285 264.5793388575356 L 303.6595161861285 300 L 303.6814406652122 300 Z" fill="rgba(100,116,139,0.22)" stroke="none"/>
<path class="vis-mask" d="M 305.87504232389426 264.77349867609325 L 308.40143607068404 269.63499035464775 L 308.61872593249683 265.02382680662333 L 308.61872593249683 300 L 305.87504232389426 300 Z" fill="rgba(100,116,139,0.22)" stroke="none"/>
<path class="vis-mask" d="M 320.23498768694805 300 L 320.87174318585943 289.12199719436984 L 325.1507448270944 299.6491754498251 L 327.95788670456636 267.295606826089 L 327.95788670456636 300 L 320.23498768694805 300 Z" fill="rgba(100,116,139,0.22)" stroke="none"/>
<path class="vis-mask" d="M 335.70998251226433 300 L 336.85715763730775 300 L 340.82251546055477 300 L 345.2468646600222 295.5985702023127 L 332.7106446025825 272.7939390437271 L 348.33595585959404 270.264525157817 L 348.33595585959404 300 L 335.70998251226433 300 Z" fill="rgba(100,116,139,0.22)" stroke="none"/>
<path class="vis-mask" d="M 350.66339473704045 300 L 352.20157116808514 300 L 356.0559527229398 300 L 361.2261382239128 300 L 349.0715355473045 300 L 373.25323589713645 300 L 358.2038288155562 271.81371341895317 L 358.2038288155562 300 L 350.66339473704045 300 Z" fill="rgba(100,116,139,0.22)" stroke="none"/>
</g>
<g id="sun-layer">
<path class="sun-visible" d="M 191.15930946972622 262.7234952681799 L 193.24595382556282 260.1710756170325 L 196.3036894229257 256.67551285967977 L 199.4023909616371 253.38158184388234 L 202.5412750006833 250.2967086070329 L 205.71919585876987 247.42812922127283 L 208.93463701664453 244.78283004289074 L 212.185707417441 242.36748500275658 L 215.47014347537004 240.18839100242377 L 218.78531748646776 238.25140267429637 L 222.12825296750543 236.56186792935458 L 225.49564723040098 235.12456584042997 L 228.88390123774778 233.943648478527 L 232.28915649168277 233.02258832331802 L 235.70733839988415 232.36413279859596 L 239.1342052600444 231.97026733609277 L 242.5654017251902 231.8421881498505 L 245.99651538432653 231.98028561565621 L 249.42313492763196 232.38413881143128 L 252.84090828092454 233.05252140270875 L 256.2455990959111 233.98341867471055 L 259.6331400704757 235.17405514172373 L 262.9996817403321 236.62093182726605 L 266.34163561482376 238.31987202326394 L 269.65571080941083 240.2660741182313 L 272.9389436293712 242.4541699390464 L 276.1887198693256 244.8782869845344 L 279.402789884188 247.53211293455993 L 282.57927674819274 250.4089608905483 L 285.7166780352193 253.50183392939948 L 288.81386191974093 256.80348771952873 L 291.87005841141763 260.306490141434 L 294.8606485940386 263.97360503725747" fill="none" stroke="#93c5fd" stroke-width="1.5" opacity="0.95"/>
<path class="sun-visible" d="M 179.6034198860406 263.2991811060345 L 182.37949992968638 259.2595833608505 L 185.41104617452422 255.08738564691194 L 188.48877471783197 251.09658960700784 L 191.61307223014543 247.29564902853326 L 194.78396593024777 243.6930091789142 L 198.0010983793322 240.297054083519 L 201.2637047231252 237.11604733476466 L 204.57059355645904 234.15806689439847 L 207.9201326397749 231.43093460541763 L 211.31024070416422 228.94214142828662 L 214.73838651820657 226.69876970079048 L 218.20159625286342 224.70741400349684 L 221.69646996166935 222.9741024606576 L 225.2192076949779 221.50422050070932 L 228.76564539727573 220.3024392203411 L 232.3313003133265 219.37265051915125 L 235.91142517855047 218.71791109870048 L 239.5010700188217 218.34039721249377 L 243.0951499760007 218.24137176291828 L 246.68851723535656 218.42116493185966 L 250.2760348940394 218.87916905815797 L 253.85265049567928 219.6138479515639 L 257.4134669758497 220.62276029766934 L 260.9538089148981 221.90259629590793 L 264.46928226442924 223.44922621288566 L 267.95582607687095 225.25775916681596 L 271.40975519315646 227.32261017263306 L 274.827793296174 229.6375733300538 L 278.2070961837545 232.19589897969445 L 281.54526552479626 234.9903727099242 L 284.84035371224974 238.01339423997013 L 288.09086070277345 241.25705441730688 L 291.29572392761276 244.713208827398 L 294.45430247423235 248.37354679680786 L 297.56635677868576 252.22965487070374 L 300.63202504846697 256.27307411376097 L 303.651797563905 260.49535085617737 L 306.5928855033767 264.8384570926645" fill="none" stroke="#93c5fd" stroke-width="1.5" opacity="0.95"/>
<path class="sun-visible" d="M 180.67782972128464 263.2262292545807 L 181.764108607588 261.626593527778 L 184.77586860050843 257.428010026485 L 187.8329983666298 253.4085563145445 L 190.9359450458721 249.57659879139442 L 194.0848069737088 245.9405025736318 L 197.27930898414803 242.50858100701433 L 200.51877989403 239.28903882799955 L 203.80213328603534 236.2899093771691 L 207.12785277035087 233.51898652170775 L 210.49398291849587 230.9837522092726 L 213.89812701644473 228.69130086975713 L 217.33745266564281 226.6482621416641 L 220.80870606631834 224.86072365388713 L 224.3082355458389 223.3341557901653 L 227.83202455357673 222.07334049466272 L 231.37573394756058 221.08230622192497 L 234.93475296930364 220.3642710784323 L 238.50425787051918 219.9215960424794 L 242.0792767514335 219.755749871616 L 245.6547588268963 219.86728695348546 L 249.22564608472604 220.25583889881761 L 252.78694516186357 220.9201201874866 L 256.3337972508331 221.8579476603004 L 259.86154396394534 223.06627314746092 L 263.36578731366546 224.54122806785347 L 266.8424422948906 226.27817844965557 L 270.2877809492327 228.27178853504194 L 273.69846722216766 230.51609094005565 L 277.0715823540482 233.00456127622027 L 280.40464095249365 235.73019515408663 L 283.6955982462505 238.68558561142098 L 286.94284930700735 241.8629991934137 L 290.14522123567707 245.25444915118385 L 293.3019594424495 248.851764494473 L 296.41270921024363 252.64665391490988 L 299.47749372793606 256.6307638742063 L 302.4966897275474 260.7957304024213 L 305.1814544786873 264.7109722544293" fill="none" stroke="#60a5fa" stroke-width="1.5" opacity="0.95"/>
<path class="sun-visible" d="M 154.21619538453137 265.85085027520876 L 154.94145198715262 264.4173690780725 L 157.8289377511713 258.89726291558105 L 160.7605236321916 253.4920905446911 L 163.73937638165398 248.21066000886145 L 166.76849892709072 243.06208148197427 L 169.85069948526228 238.0557673203084 L 172.98855569563193 233.20142564017573 L 176.18437383956203 228.5090464186444 L 179.4401434036241 223.98887905728594 L 182.75748749354813 219.65140034958793 L 186.13760990527507 215.50727184321795 L 189.58124000784233 211.56728571039054 L 193.0885769788022 207.8422984468774 L 196.65923533657605 204.34315201990825 L 200.2921941101793 201.08058250688498 L 203.98575233140767 198.0651167599765 L 207.7374937911848 195.30695826305623 L 211.54426411115415 192.81586401833204 L 215.4021630999504 190.601015024682 L 219.30655504686348 188.67088361597848 L 223.2520990295125 187.0331015586303 L 227.23280047702391 185.69433329442097 L 231.24208416842933 184.66015898408403 L 235.27288762409802 183.934972023978 L 239.31777256457102 183.5218953829983 L 243.3690508863296 183.42272050990383 L 247.41892056535175 183.63787163940472 L 251.4596061627074 184.1663971902962 L 255.48349825814822 185.00598866751312 L 259.4832862190365 186.1530261636875 L 263.45207921379546 187.60264831707556 L 267.38351124153155 189.3488435167476 L 271.27182707119266 191.38455835401095 L 275.1119472480129 193.70181879620299 L 278.8995115959293 196.29185939553048 L 282.6309018179998 199.14525594383514 L 286.30324477880106 202.25205734938913 L 289.914398792881 205.6019130606298 L 293.462925720371 209.1841930287464 L 296.94805189525425 212.98809792058688 L 300.3696209170412 217.002758001254 L 303.7280411629986 221.21731977692008 L 307.0242305878359 225.62102004500113 L 310.25956100338436 230.20324749347293 L 313.4358036312801 234.95359234852992 L 316.55507732064854 239.86188483954356 L 319.6198004493111 244.91822342310144 L 322.63264719594173 250.11299380145465 L 325.5965085899252 255.43687980000104 L 328.5144585190478 260.8808671442888 L 331.3897246951714 266.4362411296423 L 332.0984379527617 267.850283550353" fill="none" stroke="#60a5fa" stroke-width="1.5" opacity="0.95"/>
<path class="sun-visible" d="M 155.608972774459 265.6846085497202 L 157.41279853475615 262.21737882507597 L 160.32728463694667 256.81037657960826 L 163.28736519742665 251.52551021315873 L 166.29600847982846 246.37174342782453 L 169.35599269920507 241.35833093040094 L 172.4698723918717 236.49481280532757 L 175.63994011292914 231.79100176213694 L 178.86818370025753 227.25696227540902 L 182.15623956442724 222.9029806116866 L 185.5053427414611 218.73952479221538 L 188.91627476305905 214.77719364548864 L 192.3893107534636 211.0266542898947 L 195.92416753498108 207.4985676620556 L 199.51995489094404 204.20350207793544 L 203.17513246322474 201.1518352873908 L 206.8874750063863 198.35364603173855 L 210.65404884658892 195.8185967644364 L 214.47120234045676 193.5558098470276 L 218.3345728727488 191.57374020946165 L 222.23911243644042 189.88004806559803 L 226.17913310565467 188.48147575637498 L 230.14837276352117 187.38373308902982 L 234.14008033871656 186.59139559382146 L 238.14711862083368 186.1078198988485 L 242.1620815702996 185.93507989215192 L 246.17742203306872 186.07392656755582 L 250.1855850162548 186.52377340636622 L 254.17914127020762 187.28270798561505 L 258.1509158995157 188.3475292673021 L 262.09410709370957 189.7138088373882 L 266.0023907855393 191.3759733187403 L 269.87000802784735 193.32740435796597 L 273.69183302223917 195.56055203833645 L 277.46342091963413 198.06705729901662 L 281.18103563352554 200.83787898580886 L 284.8416588778381 203.8634214067083 L 288.442982400625 207.13365874200628 L 291.98338590723324 210.63825324835858 L 295.46190345136006 214.36666485825026 L 298.87818114390814 218.30825044983015 L 302.2324289248071 222.45235169873868 L 305.5253689072156 226.7883709978004 L 308.75818248475747 231.30583539881115 L 311.9324580253786 235.9944489348253 L 315.05014060476 240.84413394671543 L 318.1134848730189 245.84506224603334 L 321.12501182560686 250.98767705889412 L 324.08746996960525 256.26270674695337 L 327.0038011451881 261.66117130058274 L 329.877111078549 267.1743825584628 L 330.08040756685176 267.5775668121812" fill="none" stroke="#3b82f6" stroke-width="1.5" opacity="0.95"/>
<path class="sun-visible" d="M 127.88195405055666 269.92845880939365 L 127.9155047447712 269.8512647610905 L 130.66526691017287 263.6106897510232 L 133.44154014894048 257.4130957987669 L 136.24890725194615 251.26611332042117 L 139.0919954637635 245.17763767254735 L 141.9754752790997 239.15586769716066 L 144.90405541822184 233.20934392656005 L 147.8824731707717 227.34698603889336 L 150.91547919117264 221.57812899481561 L 154.00781572556906 215.91255709393528 L 157.16418715935794 210.36053496668876 L 160.38922170934885 204.9328342549959 L 163.6874230680892 199.64075446156335 L 167.06311085435135 194.49613611345154 L 170.5203488778389 189.5113640863419 L 174.0628605071239 184.69935861006996 L 177.69393088532496 180.07355120682232 L 181.4162963992338 175.6478426195069 L 185.23202270443343 171.43653972578596 L 189.1423737524658 167.45426856539927 L 193.14767563879656 163.7158609969561 L 197.2471806357785 160.2362132362369 L 201.43893837453638 157.03011560734458 L 205.71968262838615 154.11205437410666 L 210.08474328701791 151.4959884035096 L 214.5279936286132 149.195105620057 L 219.04184261782194 147.2215665558611 L 223.6172804591329 145.58624455729299 L 228.24398291351437 144.29847408190346 L 232.91047602005597 143.3658196879356 L 237.60435815125987 142.7938785257209 L 242.31257128454502 142.58612813755963 L 247.02170865226455 142.74382921313085 L 251.71834223652596 143.26598968593086 L 256.3893514891681 144.149392575924 L 261.0222345266302 145.388685712357 L 265.60538489698115 146.97652742186818 L 270.12832053400643 148.90377890510902 L 274.5818561402478 151.15973168863516 L 278.9582152819298 153.73235741906203 L 283.25108327171085 156.60856729425285 L 287.4556059074811 159.77446951209703 L 291.56834201586446 163.21561490447618 L 295.5871794017347 166.91722315328 L 299.5112243175506 170.86438433451 L 303.34067414959077 175.04223276821702 L 307.0766819437619 179.436092096654 L 310.7212199395535 184.03159207279307 L 314.27694767823726 188.81475870815635 L 317.74708869918476 193.77208017731567 L 321.1353184316834 198.89055132700435 L 324.4456647190886 204.15769978751715 L 327.6824214822253 209.56159664671776 L 330.8500753386379 215.09085446660293 L 333.9532445151598 220.73461515649626 L 336.9966290872494 226.4825299081794 L 339.98497141499047 232.324733072453 L 342.92302557948125 238.2518115536689 L 345.8155346419439 244.25477099052412 L 348.66721460001776 250.32499974718417 L 351.48274400815495 256.45423150018354 L 354.2667583298386 262.6345070148907 L 357.02384819534683 268.8581355408752 L 358.49092786347256 272.21615393797447" fill="none" stroke="#3b82f6" stroke-width="1.5" opacity="0.95"/>
<path class="sun-visible" d="M 127.35888208413576 270.0196448557809 L 128.17055361406543 268.16373945446867 L 130.92992508721113 261.9429138122063 L 133.71664515482252 255.76598833132664 L 136.53531229645753 249.64067653305642 L 139.3905705029847 243.57496409027857 L 142.28710726189755 237.57714749049376 L 145.2296475695076 231.65587229971047 L 148.22294313156965 225.82017058488498 L 151.27175580766266 220.07949688643978 L 154.38083425208688 214.44376193378127 L 157.55488261661128 208.92336306445833 L 160.79852012444465 203.52921004598244 L 164.11623031321685 198.27274469446684 L 167.5122988204251 193.16595238477942 L 170.99073875218502 188.22136320627135 L 174.55520299759502 183.4520402184702 L 178.20888334628236 178.87155199548673 L 181.95439697879692 174.4939264752639 L 185.79366185276606 170.33358310127386 L 189.72776370849078 166.40524042342892 L 193.75681884345212 162.7237967863677 L 197.8798383793182 159.30418252132765 L 202.09460135749168 156.16118327148212 L 206.39754543805824 153.30923566511805 L 210.78368502083097 150.7621985458253 L 215.24656696132203 148.5331052267101 L 219.7782734528392 146.63390460029902 L 224.36947988195342 145.07520115070827 L 229.0095724672263 143.866005677055 L 233.68682638514235 143.0135095359191 L 238.3886402180352 142.52289515271463 L 243.10181749160643 142.39719433149733 L 247.81288147578346 142.63720342516007 L 252.50840600841326 143.2414609839642 L 257.1753434054085 144.20628938318023 L 261.8013308319455 145.52589764004426 L 266.37495877226604 147.19253866958294 L 270.8859890773345 149.19671104747277 L 275.3255148815729 151.52739326184022 L 279.686059757684 154.17229754920757 L 283.96161816423523 157.11813072916237 L 288.1476430360756 160.35085068612028 L 292.2409889925344 163.85590909517362 L 296.23982103372185 167.6184732742215 L 300.143498879208 171.6236224011105 L 303.95244650957034 175.8565155265488 L 307.6680152793711 180.30253068770907 L 311.2923474517192 184.9473759129242 L 314.8282453919359 189.77717396339085 L 318.2790501130852 194.77852337238622 L 321.6485315076239 199.93853868365323 L 324.9407914713344 205.24487291505648 L 328.16018024836177 210.6857251896675 L 331.3112256831955 216.24983627235451 L 334.3985746273854 221.92647446880432 L 337.4269454793778 227.70541402685734 L 340.401090696216 233.57690786097584 L 343.3257680763488 239.53165609600683 L 346.2057196336275 245.56077166307296 L 349.0456569553041 251.65574390226433 L 351.8502520278601 257.8084009186923 L 354.62413262023 264.01087124530693 L 357.37188142042413 270.2555452085757 L 358.20054332586915 272.1643037280184" fill="none" stroke="#2563eb" stroke-width="1.5" opacity="0.95"/>
<path class="sun-visible" d="M 99.82342999332255 275.89441564972776 L 100.41605578220043 274.4940479446984 L 103.05406388859885 268.2199806689743 L 105.69368576814152 261.9181754772319 L 108.33927774863224 255.59516663431512 L 110.99532483403098 249.2575199275849 L 113.66645593733551 242.91187027400602 L 116.35746036415254 236.5649614772041 L 119.07330529698403 230.2236883773445 L 121.81915397134507 223.89514165893638 L 124.60038414918357 217.58665558942897 L 127.42260638157084 211.3058589698266 L 130.29168139267523 205.06072953888525 L 133.21373571968144 198.85965204442977 L 136.19517448225548 192.71148010295826 L 139.2426898320079 186.6256018463585 L 142.36326323349186 180.61200916660826 L 145.56415924744857 174.6813701038986 L 148.85290792239977 168.84510355840862 L 152.23727225775457 163.11545501104092 L 155.7251965073374 157.5055713070166 L 159.32473038024787 152.02957171621804 L 163.04392356345693 146.70261148427426 L 166.89068454605084 141.54093285378735 L 170.87259766671406 136.56189713021075 L 174.9966928835546 131.7839898340916 L 179.26916430321754 127.2267894491805 L 183.69503637308588 122.91088895253955 L 188.27778119522563 118.85775850484839 L 193.01889691395596 115.08953782640654 L 197.91746552895395 111.62874833976258 L 202.96971831439603 108.4979187155092 L 208.16864711324726 105.71912334074983 L 213.50370821388293 103.31344159209229 L 218.96066973399934 101.30035620085343 L 224.5216506762881 99.69712035124101 L 230.16538794876723 98.51813363777529 L 235.86774618092946 97.77437431270025 L 241.60245614578105 97.47293711340365 L 247.3420357551689 97.61672075912998 L 253.0588195234194 98.20429686449893 L 258.7260047264121 99.22997402779708 L 264.31861970144223 100.6840503429217 L 269.81433256454557 102.55322832083314 L 275.19404376261787 104.82115163029391 L 280.4422372047463 107.46901532993036 L 285.5470953812195 110.47620078716756 L 290.50040833952164 113.82089214589547 L 295.29732165888225 117.48064084323426 L 299.9359743090571 121.43285598824758 L 304.4170751896959 125.65520930276583 L 308.74345986176127 130.12595247768274 L 312.9196592105942 134.82415155831492 L 316.9515016934351 139.72984729148027 L 320.8457618402461 144.82415256675407 L 324.60986049965487 150.08929865545701 L 328.2516171070128 155.50864142954 L 331.7790508422126 161.06663754043555 L 335.20022558082064 166.74879906572772 L 338.5231326742864 172.5416335702596 L 341.75560546398697 178.43257507040988 L 344.9052597669978 184.40991009761183 L 347.97945515796357 190.4627019670596 L 350.9852725650172 196.58071546990436 L 353.92950440648747 202.7543435024847 L 356.81865415536174 208.97453661427613 L 359.6589428184804 215.23273603536035 L 362.4563203204704 221.5208104614616 L 365.21648021323404 227.83099665377335 L 367.94487647948415 234.15584376849756 L 370.6467414789605 240.48816123535894 L 373.32710430639753 246.82096994732424 L 375.9908090007705 253.14745649556426 L 378.6425321754457 259.4609301722624 L 381.2867997301607 265.7547824802843 L 383.92800237953236 272.0224488930549 L 386.5704097714478 278.2573726499028 L 386.57826827920474 278.2757609893739" fill="none" stroke="#1d4ed8" stroke-width="1.5" opacity="0.95"/>
<path class="sun-visible" d="M 99.28025100325524 276.0257481547417 L 101.24428204902577 271.3886468821958 L 103.885199255093 265.1190784100847 L 106.52953834576655 258.8237539552963 L 109.18169982021158 252.5092377306054 L 111.84622102159301 246.18214089641486 L 114.52779180665415 239.8491599619773 L 117.23127138998979 233.51711746676716 L 119.96170609184426 227.19300519585755 L 122.7243476451099 220.88403019266445 L 125.52467162601933 214.59766385378663 L 128.36839543460985 208.34169436670402 L 131.2614950804512 202.12428272982658 L 134.21021980255108 195.95402253185895 L 137.22110326682414 189.8400035699625 L 140.30096972845894 183.79187923658506 L 143.45693311176944 177.81993738671792 L 146.69638644235263 171.93517409535198 L 150.0269784600719 166.14936928982365 L 153.45657357477614 160.47516270381445 L 156.99319060568718 154.92612786745997 L 160.6449150536118 149.51684095116843 L 164.41977907333643 144.26294016735127 L 168.32560300053598 139.18117012176222 L 172.3697924564246 134.28940402621632 L 176.55908599175532 129.60663512088914 L 180.89925029046705 125.15292717021796 L 185.3947235036586 120.94931272411031 L 190.04821267454187 117.01762737861685 L 194.8602585784629 113.38026892573541 L 199.828790469109 110.05987264025032 L 204.94870342112253 107.07889846191088 L 210.21150071070295 104.45913281747974 L 215.6050507339127 102.2211171961271 L 221.11350957553753 100.383526648029 L 226.71745387285975 98.962532703849 L 232.39425248720377 97.97119470467959 L 238.11868022298816 97.41892884078626 L 243.86374564634022 97.31110315979228 L 249.60167371736065 97.64879844891118 L 255.30495939338184 98.42875974329365 L 260.9473966177389 99.64354358075425 L 266.50499121476344 101.28184553980765 L 271.9566850946578 103.32897486410099 L 277.28484805039386 105.7674310991537 L 282.47552552530385 108.5775330648325 L 287.5184594806051 111.73805291206759 L 292.4069203339848 115.22681571892855 L 297.13739905546834 119.02123581425016 L 301.70921056799637 123.09877242155557 L 306.12405485567393 127.4372975442335 L 310.3855734300985 132.01537721201544 L 314.4989285903166 136.81247291722397 L 318.47042310278476 141.80907343054773 L 322.3071696268102 146.98676860378686 L 326.0168128518382 152.32827681336542 L 329.607302900665 157.8174368029412 L 333.08671580535685 163.43917333053668 L 336.463115423081 169.17944447140624 L 339.74445065302695 175.0251768934899 L 342.9384819236155 180.9641940209341 L 346.0527313916848 186.98514078903668 L 349.0944519486501 193.07740769271 L 352.0706108465796 199.231056012265 L 354.9878844506355 205.4367454886498 L 357.85266126923995 211.68566522161433 L 360.6710509707674 217.96946821878038 L 363.4488975723721 224.28020976217542 L 366.1917953800396 230.61028957788687 L 368.9051065780027 236.9523976730375 L 371.5939796196946 243.2994636263292 L 374.26336776951246 249.64460907834535 L 376.918047299525 255.98110313771983 L 379.56263495393347 262.3023204367163 L 382.2016043813255 268.60170156392496 L 384.83930128895554 274.8727156356159 L 386.24716946497693 278.1975031955534" fill="none" stroke="#1d4ed8" stroke-width="1.5" opacity="0.95"/>
<path class="sun-visible" d="M 78.41131248896697 281.314187618186 L 79.5643922826956 278.76964817604863 L 82.14708976553736 272.9459609559873 L 84.71406562122202 267.046011489394 L 87.26864930689624 261.07602083072584 L 89.8143064779936 255.0421014698362 L 92.35464727678823 248.95027827644674 L 94.89343740507385 242.8065115983103 L 97.43461202677481 236.61672258018376 L 99.98229257269054 230.38682084260967 L 102.5408065389698 224.12273471968604 L 105.1147103902043 217.83044432558614 L 107.70881569074177 211.51601779128006 L 110.32821859110967 205.18565108971652 L 112.97833278523392 198.84571194912544 L 115.66492602046782 192.50278843810028 L 118.39416018131023 186.16374290064064 L 121.17263485535759 179.83577200205417 L 124.00743412496793 173.526473743231 L 126.90617607033236 167.24392237556188 L 129.87706409839916 160.99675220963636 L 132.92893868123468 154.7942513336891 L 136.0713273453801 148.64646621887698 L 139.3144897345909 142.56431805221837 L 142.66945319231382 136.55973134932623 L 146.1480324951678 130.6457748953457 L 149.7628250154625 124.83681422445287 L 153.52716965228458 119.14867358032149 L 157.45505432375498 113.59880341161275 L 161.56095278808766 108.20644678761289 L 165.85956739793744 102.99279447334081 L 170.36545080339312 97.98111364256138 L 175.0924778570656 93.19682931800418 L 180.0531410027965 88.66753086558569 L 185.25765099040834 84.42286896772015 L 190.71284312804724 80.49430285759999 L 196.42092054144928 76.91465555890733 L 202.3781112743054 73.71743958570781 L 208.57337251776644 70.93593061392409 L 214.98733280724852 68.6019948167235 L 221.59170343433055 66.74471694447661 L 228.34938967637012 65.38892603197831 L 235.21546955372568 64.55376299651158 L 242.13907724543424 64.25146397426985 L 249.06605168238934 64.48653007672036 L 255.94203710285655 65.25541119408945 L 262.71561091589354 66.54675471566844 L 269.3410072932646 68.3421790768183 L 275.7801052082037 70.61745231202244 L 282.0035188873767 73.34390800186668 L 287.9908079566892 76.48992315084337 L 293.7299625297286 80.02230884420598 L 299.216389812704 83.90751063790017 L 304.4516360921761 88.11256583270901 L 309.44204124157613 92.60580758586781 L 314.19746628924685 97.35733566880205 L 318.73017730503756 102.3392902176169 L 323.0539218634594 107.52597060567143 L 327.1832013723589 112.89384015551397 L 331.13272275598877 118.42145206646475 L 334.9170034075883 124.0893250844428 L 338.5501006600056 129.8797906171441 L 342.04543844647367 135.77682696825426 L 345.4157072661993 141.76589147396848 L 348.67281771180444 147.8337575424469 L 351.8278918817805 153.9683608190567 L 354.8912806138613 160.15865673106651 L 357.8725974935213 166.39449032429545 L 360.7807630096878 172.66647842804232 L 363.62405410890517 178.96590364063758 L 366.410155821318 185.28461932500446 L 369.1462126937034 191.61496464118886 L 371.83887853324825 197.9496886053736 L 374.4943635214269 204.28188217556863 L 377.11847814566755 210.60491742259245 L 379.7166736640591 216.9123929221422 L 382.29407899711794 223.19808459244223 L 384.85553405474894 229.45590129257874 L 387.40561957577467 235.6798445850416 L 389.94868359159716 241.8639721584985 L 392.48886464226314 248.00236447801842 L 395.0301118685616 254.0890943180931 L 397.5762020939047 260.11819890000953 L 400.1307539914204 266.08365442652877 L 402.6972394106193 271.9793528720343 L 405.27899191590035 277.7990809500965 L 407.86909021129446 283.51416613244436" fill="none" stroke="#1e40af" stroke-width="1.5" opacity="0.95"/>
<path class="sun-visible" d="M 69.2062206588179 283.9050759020553 L 71.5716373237627 278.92372278627676 L 74.13422373055025 273.37893043745987 L 76.67632469648473 267.7409580360225 L 79.20074821391637 262.0159422924013 L 81.71044274927662 256.20989063655503 L 84.20850118529171 250.32869438364986 L 86.69816750989756 244.3781441166135 L 89.18284635005894 238.36394725608812 L 91.66611547299279 232.29174784758322 L 94.1517414096545 226.16714865221718 L 96.64369838972183 219.9957356936186 L 99.14619081649346 213.78310548197214 L 101.66367955092213 207.53489521238953 L 104.20091231549492 201.25681631819347 L 106.76295856788383 194.95469185277364 L 109.35524922708177 188.6344982786189 L 111.98362165694206 182.30241235675362 L 114.6543703111682 175.96486396456254 L 117.37430341304675 169.62859581195784 L 120.15080595826466 163.300731188519 L 122.99190916748832 156.98885104572884 L 125.90636623742876 150.70108189707585 L 128.90373379188424 144.44619619255602 L 131.99445774367507 138.2337269731443 L 135.18996124265854 132.07409870346356 L 138.50273087037618 125.97877616204028 L 141.94639506845158 119.96043306637128 L 145.5357857443295 114.03314159223626 L 149.28696982629032 108.21258295174476 L 153.21723198923365 102.51627746925575 L 157.34498265459274 96.96382981260217 L 161.68955670381015 91.5771807824255 L 166.27085861684793 86.3808508571575 L 171.10880029377842 81.40215208435126 L 176.22247139850026 76.67133365951508 L 181.62898348114678 72.22161297597978 L 187.34194567706194 68.08902949574042 L 193.3695707280895 64.31204675969161 L 199.71248434858873 60.93082393808271 L 206.36142160966202 57.98609066474825 L 213.29512951921575 55.51759645831589 L 220.4789203146569 53.562174495988984 L 227.86437528423644 52.1515549247427 L 235.39061616427594 51.31016576927303 L 242.98730268954606 51.053234791714516 L 250.5791180250922 51.385513967135864 L 258.091094722849 52.30086674959384 L 265.4538803984459 53.78279973875706 L 272.6080609889662 55.80583396768478 L 279.50694138409096 58.337460223843124 L 286.1176000580006 61.34035297485718 L 292.42041881942146 64.77453621076498 L 298.40752492199977 68.59927563082445 L 304.080644647903 72.77457520829205 L 309.448799286769 77.26224885956731 L 314.5261448978898 82.0266023962323 L 319.33012352763836 87.03479482696338 L 323.87998732215476 92.25695782460491 L 328.19568733537653 97.6661468062193 L 332.29708155457024 103.23818446989267 L 336.2034025521772 108.951443175284 L 339.93292511197376 114.78659924212639 L 343.5027812034498 120.72638132586195 L 346.92887928694915 126.75532675379134 L 350.22589457424544 132.8595537748324 L 353.4073053495943 139.02655363641304 L 356.485457368633 145.24500377730814 L 359.4716437134055 151.50460180991573 L 362.3761914938439 157.79591904273067 L 365.2085497055028 164.11027182654072 L 367.9773746307113 170.43960883434008 L 370.69061061385196 176.77641238222122 L 373.35556502767514 183.1136120039665 L 375.9789769009154 189.44450864356793 L 378.5670790997001 195.76270800583893 L 381.1256542157157 202.0620617835518 L 383.66008446418647 208.33661565036783 L 386.1753959708959 214.58056306761438 L 388.6762978543648 220.78820409597353 L 391.16721650634054 226.9539085347159 L 393.652325448919 233.0720828222355 L 396.1355711141266 239.13714023840362 L 398.62069485110123 245.1434740385589 L 401.1112514248856 251.08543323232942 L 403.61062423002227 256.9573007952616 L 406.1220374037753 262.7532741698961 L 408.64856498897575 268.4674479763609 L 411.1931372659944 274.09379891140037 L 413.7585443492105 279.6261728723165 L 416.3474371230402 285.05827439181104 L 416.7640546648716 285.9067421106348" fill="none" stroke="#1e40af" stroke-width="1.5" opacity="0.95"/>
<path class="sun-visible" d="M 77.48737777152164 281.5673442137908 L 79.82214704582508 276.4002965586322 L 82.39818842091623 270.57751245970445 L 84.95940473195331 264.6791380028667 L 87.50912975434585 258.7113513852394 L 90.05083752435723 252.68022832128344 L 92.58815128553157 246.59176309945056 L 95.12485524264346 240.45189182746387 L 97.66490918574641 234.2665179548758 L 100.21246606925934 228.04154022300403 L 102.77189265312566 221.78288325934147 L 105.34779333165027 215.4965311035414 L 107.94503728805869 209.18856402596305 L 110.56878911581475 202.8651990811267 L 113.22454303276268 196.53283491600698 L 115.91816078103423 190.19810145312204 L 118.65591323332703 183.8679151508747 L 121.44452561124638 177.54954064487384 L 124.29122603758972 171.2506596641359 L 127.20379686913274 164.97944819866115 L 130.19062785410551 158.7446629555909 L 133.26076958462806 152.5557381614171 L 136.42398491174959 146.4228937237285 L 139.6907948845839 140.35725560596916 L 143.07251428819853 134.370988962772 L 146.58126988127114 128.477444012808 L 150.22999189371467 122.69131372336514 L 154.03236616311705 117.0288009813157 L 158.0027304746058 111.50779086794998 L 162.15589436988392 106.14802074187338 L 166.50685731557763 100.97123686960725 L 171.07039649491495 96.00132119143123 L 175.8604940441144 91.26436547288122 L 180.88957652498132 86.78866292989531 L 186.1675498443524 82.60458024684553 L 191.7006342681646 78.7442674247742 L 197.49003972647378 75.24116168840081 L 203.5305720204696 72.12924825872068 L 209.8093214490101 69.44205892560547 L 216.3046444707634 67.21142163533452 L 222.98568523583245 65.46602001198676 L 229.81267122128372 64.22987452196327 L 236.73813535328253 63.52090416392602 L 243.70906543833317 63.34975227861054 L 250.66979057585905 63.7190476446097 L 257.56524050222515 64.62321762827003 L 264.3441195957439 66.0488839641661 L 270.9615591833401 67.97577685280228 L 277.38094115112614 70.3780262986387 L 283.5747734891828 73.22565012199516 L 289.52468062459855 76.48606037833423 L 295.2206993509477 80.12544478590445 L 300.66012639428334 84.1099307797518 L 305.8461555364593 88.40649117735566 L 310.78649477001215 92.9835916550243 L 315.4920922015082 97.81160722559159 L 319.9760413756973 102.86304843447627 L 324.2526915186199 108.11264129766221 L 328.3369580472547 113.53730188089185 L 332.24381168314073 119.11604007129458 L 335.9879171906399 124.82981979648997 L 339.5833917144764 130.66139600463566 L 343.0436551372639 136.59514280554671 L 346.3813489079863 142.61688245938106 L 349.6083042093518 148.71372133812065 L 352.7355444853065 154.87389640712695 L 355.77331094133166 161.0866339776492 L 358.7311025733472 167.34202128102288 L 361.6177246087677 173.6308906426598 L 364.4413410227669 179.94471558097695 L 367.20952813678866 186.2755178986307 L 369.9293272889487 192.61578472934264 L 372.6072952791257 198.95839448360076 L 375.2495517968707 205.29655067441035 L 377.86182339184836 211.62372267441356 L 380.44948378493126 217.93359254232536 L 383.0175904736087 224.22000715180855 L 385.57091768544797 230.4769349459713 L 388.1139857848035 236.69842674003758 L 390.65108726892413 242.87858007440317 L 393.1863094936512 249.01150670717553 L 395.72355426300675 255.09130291080834 L 398.26655440145583 261.11202231032496 L 400.8188874072695 267.06765106919687 L 403.38398626267343 272.9520852943976 L 405.9651474524779 278.75911059664884 L 408.161232472621 283.59253961522444" fill="none" stroke="#1e3a8a" stroke-width="1.5" opacity="0.95"/>
</g>
<g id="hour-layer">
<path class="hour-line" data-hour="7" d="M 84.71406562122202 267.046011489394 L 79.20074821391637 262.0159422924013 L 79.82214704582508 276.4002965586322" fill="none" stroke="#f97316" stroke-width="0.8" opacity="0.55"/>
<text x="79.20074821391637" y="258.0159422924013" text-anchor="middle" font-size="9" fill="#f97316" font-weight="500" opacity="0.7">7h</text>
<path class="hour-line" data-hour="8" d="M 133.44154014894048 257.4130957987669 L 117.31603999036216 293.3391314924968 L 108.33927774863224 255.59516663431512 L 103.885199255093 265.1190784100847 L 99.98229257269054 230.38682084260967 L 94.1517414096545 226.16714865221718 L 95.12485524264346 240.45189182746387" fill="none" stroke="#f97316" stroke-width="0.8" opacity="0.55"/>
<text x="103.885199255093" y="222.16714865221718" text-anchor="middle" font-size="9" fill="#f97316" font-weight="500" opacity="0.7">8h</text>
<path class="hour-line" data-hour="9" d="M 170.2455458405086 294.48039908822886 L 165.09980004193199 287.63793526925326 L 170.15106480960296 280.04713300729384 L 157.8289377511713 258.89726291558105 L 146.1462714983868 284.8974852389007 L 150.91547919117264 221.57812899481561 L 133.71664515482252 255.76598833132664 L 124.60038414918357 217.58665558942897 L 119.96170609184426 227.19300519585755 L 115.66492602046782 192.50278843810028 L 109.35524922708177 188.6344982786189 L 110.56878911581475 202.8651990811267" fill="none" stroke="#f97316" stroke-width="0.8" opacity="0.55"/>
<text x="133.71664515482252" y="184.6344982786189" text-anchor="middle" font-size="9" fill="#f97316" font-weight="500" opacity="0.7">9h</text>
<path class="hour-line" data-hour="10" d="M 187.25478188570384 267.7367734977882 L 182.37949992968638 259.2595833608505 L 187.8329983666298 253.4085563145445 L 176.18437383956203 228.5090464186444 L 163.28736519742665 251.52551021315873 L 170.5203488778389 189.5113640863419 L 151.27175580766266 220.07949688643978 L 142.36326323349186 180.61200916660826 L 137.22110326682414 189.8400035699625 L 132.92893868123468 154.7942513336891 L 125.90636623742876 150.70108189707585 L 127.20379686913274 164.97944819866115" fill="none" stroke="#f97316" stroke-width="0.8" opacity="0.55"/>
<text x="151.27175580766266" y="146.70108189707585" text-anchor="middle" font-size="9" fill="#f97316" font-weight="500" opacity="0.7">10h</text>
<path class="hour-line" data-hour="11" d="M 205.71919585876987 247.42812922127283 L 201.2637047231252 237.11604733476466 L 207.12785277035087 233.51898652170775 L 196.65923533657605 204.34315201990825 L 182.15623956442724 222.9029806116866 L 193.14767563879656 163.7158609969561 L 170.99073875218502 188.22136320627135 L 163.04392356345693 146.70261148427426 L 156.99319060568718 154.92612786745997 L 153.52716965228458 119.14867358032149 L 145.5357857443295 114.03314159223626 L 146.58126988127114 128.477444012808" fill="none" stroke="#f97316" stroke-width="0.8" opacity="0.55"/>
<text x="170.99073875218502" y="110.03314159223626" text-anchor="middle" font-size="9" fill="#f97316" font-weight="500" opacity="0.7">11h</text>
<path class="hour-line" data-hour="12" d="M 225.49564723040098 235.12456584042997 L 221.69646996166935 222.9741024606576 L 227.83202455357673 222.07334049466272 L 219.30655504686348 188.67088361597848 L 203.17513246322474 201.1518352873908 L 219.04184261782194 147.2215665558611 L 193.75681884345212 162.7237967863677 L 188.27778119522563 118.85775850484839 L 180.89925029046705 125.15292717021796 L 180.0531410027965 88.66753086558569 L 171.10880029377842 81.40215208435126 L 171.07039649491495 96.00132119143123" fill="none" stroke="#f97316" stroke-width="0.8" opacity="0.55"/>
<text x="193.75681884345212" y="77.40215208435126" text-anchor="middle" font-size="9" fill="#f97316" font-weight="500" opacity="0.7">12h</text>
<path class="hour-line" data-hour="13" d="M 245.99651538432653 231.98028561565621 L 243.0951499760007 218.24137176291828 L 249.22564608472604 220.25583889881761 L 243.3690508863296 183.42272050990383 L 226.17913310565467 188.48147575637498 L 247.02170865226455 142.74382921313085 L 219.7782734528392 146.63390460029902 L 218.96066973399934 101.30035620085343 L 210.21150071070295 104.45913281747974 L 214.98733280724852 68.6019948167235 L 206.36142160966202 57.98609066474825 L 203.5305720204696 72.12924825872068" fill="none" stroke="#f97316" stroke-width="0.8" opacity="0.55"/>
<text x="219.7782734528392" y="53.98609066474825" text-anchor="middle" font-size="9" fill="#f97316" font-weight="500" opacity="0.7">13h</text>
<path class="hour-line" data-hour="14" d="M 266.34163561482376 238.31987202326394 L 264.46928226442924 223.44922621288566 L 270.2877809492327 228.27178853504194 L 267.38351124153155 189.3488435167476 L 250.1855850162548 186.52377340636622 L 274.5818561402478 151.15973168863516 L 247.81288147578346 142.63720342516007 L 253.0588195234194 98.20429686449893 L 243.86374564634022 97.31110315979228 L 255.94203710285655 65.25541119408945 L 250.5791180250922 51.385513967135864 L 243.70906543833317 63.34975227861054" fill="none" stroke="#f97316" stroke-width="0.8" opacity="0.55"/>
<text x="247.81288147578346" y="47.385513967135864" text-anchor="middle" font-size="9" fill="#f97316" font-weight="500" opacity="0.7">14h</text>
<path class="hour-line" data-hour="15" d="M 285.7166780352193 253.50183392939948 L 284.84035371224974 238.01339423997013 L 290.14522123567707 245.25444915118385 L 289.914398792881 205.6019130606298 L 273.69183302223917 195.56055203833645 L 299.5112243175506 170.86438433451 L 275.3255148815729 151.52739326184022 L 285.5470953812195 110.47620078716756 L 277.28484805039386 105.7674310991537 L 293.7299625297286 80.02230884420598 L 292.42041881942146 64.77453621076498 L 283.5747734891828 73.22565012199516" fill="none" stroke="#f97316" stroke-width="0.8" opacity="0.55"/>
<text x="275.3255148815729" y="60.77453621076498" text-anchor="middle" font-size="9" fill="#f97316" font-weight="500" opacity="0.7">15h</text>
<path class="hour-line" data-hour="16" d="M 303.6814406652122 276.17976532241437 L 303.651797563905 260.49535085617737 L 308.40143607068404 269.63499035464775 L 310.25956100338436 230.20324749347293 L 295.46190345136006 214.36666485825026 L 321.1353184316834 198.89055132700435 L 300.143498879208 171.6236224011105 L 312.9196592105942 134.82415155831492 L 306.12405485567393 127.4372975442335 L 323.0539218634594 107.52597060567143 L 323.87998732215476 92.25695782460491 L 315.4920922015082 97.81160722559159" fill="none" stroke="#f97316" stroke-width="0.8" opacity="0.55"/>
<text x="300.143498879208" y="88.25695782460491" text-anchor="middle" font-size="9" fill="#f97316" font-weight="500" opacity="0.7">16h</text>
<path class="hour-line" data-hour="17" d="M 320.87174318585943 289.12199719436984 L 325.1507448270944 299.6491754498251 L 328.5144585190478 260.8808671442888 L 315.05014060476 240.84413394671543 L 339.98497141499047 232.324733072453 L 321.6485315076239 199.93853868365323 L 335.20022558082064 166.74879906572772 L 329.607302900665 157.8174368029412 L 345.4157072661993 141.76589147396848 L 346.92887928694915 126.75532675379134 L 339.5833917144764 130.66139600463566" fill="none" stroke="#f97316" stroke-width="0.8" opacity="0.55"/>
<text x="321.6485315076239" y="122.75532675379134" text-anchor="middle" font-size="9" fill="#f97316" font-weight="500" opacity="0.7">17h</text>
<path class="hour-line" data-hour="18" d="M 345.2468646600222 295.5985702023127 L 332.7106446025825 272.7939390437271 L 357.02384819534683 268.8581355408752 L 340.401090696216 233.57690786097584 L 353.92950440648747 202.7543435024847 L 349.0944519486501 193.07740769271 L 363.62405410890517 178.96590364063758 L 365.2085497055028 164.11027182654072 L 358.7311025733472 167.34202128102288" fill="none" stroke="#f97316" stroke-width="0.8" opacity="0.55"/>
<text x="353.92950440648747" y="160.11027182654072" text-anchor="middle" font-size="9" fill="#f97316" font-weight="500" opacity="0.7">18h</text>
<path class="hour-line" data-hour="19" d="M 357.37188142042413 270.2555452085757 L 370.6467414789605 240.48816123535894 L 366.1917953800396 230.61028957788687 L 379.7166736640591 216.9123929221422 L 381.1256542157157 202.0620617835518 L 375.2495517968707 205.29655067441035" fill="none" stroke="#f97316" stroke-width="0.8" opacity="0.55"/>
<text x="379.7166736640591" y="198.0620617835518" text-anchor="middle" font-size="9" fill="#f97316" font-weight="500" opacity="0.7">19h</text>
<path class="hour-line" data-hour="20" d="M 386.5704097714478 278.2573726499028 L 382.2016043813255 268.60170156392496 L 395.0301118685616 254.0890943180931 L 396.1355711141266 239.13714023840362 L 390.65108726892413 242.87858007440317" fill="none" stroke="#f97316" stroke-width="0.8" opacity="0.55"/>
<text x="395.0301118685616" y="235.13714023840362" text-anchor="middle" font-size="9" fill="#f97316" font-weight="500" opacity="0.7">20h</text>
<path class="hour-line" data-hour="21" d="M 410.50097295909035 289.18513552879705 L 411.1931372659944 274.09379891140037 L 405.9651474524779 278.75911059664884" fill="none" stroke="#f97316" stroke-width="0.8" opacity="0.55"/>
<text x="411.1931372659944" y="270.09379891140037" text-anchor="middle" font-size="9" fill="#f97316" font-weight="500" opacity="0.7">21h</text>
</g>
<text x="50" y="332" text-anchor="middle" font-size="10" fill="#6b7280">-135°</text>
<text x="114.16666666666666" y="332" text-anchor="middle" font-size="10" fill="#6b7280">E</text>
<text x="178.33333333333331" y="332" text-anchor="middle" font-size="10" fill="#6b7280">-45°</text>
<text x="242.5" y="332" text-anchor="middle" font-size="10" fill="#6b7280">S</text>
<text x="306.66666666666663" y="332" text-anchor="middle" font-size="10" fill="#6b7280">+45°</text>
<text x="370.83333333333337" y="332" text-anchor="middle" font-size="10" fill="#6b7280">O</text>
<text x="435" y="332" text-anchor="middle" font-size="10" fill="#6b7280">+135°</text>
<text x="44" y="304" text-anchor="end" font-size="9" fill="#6b7280">0°</text>
<text x="44" y="265.42857142857144" text-anchor="end" font-size="9" fill="#6b7280">10°</text>
<text x="44" y="226.85714285714286" text-anchor="end" font-size="9" fill="#6b7280">20°</text>
<text x="44" y="188.28571428571428" text-anchor="end" font-size="9" fill="#6b7280">30°</text>
<text x="44" y="149.71428571428572" text-anchor="end" font-size="9" fill="#6b7280">40°</text>
<text x="44" y="111.14285714285714" text-anchor="end" font-size="9" fill="#6b7280">50°</text>
<text x="44" y="72.57142857142858" text-anchor="end" font-size="9" fill="#6b7280">60°</text>
<text x="44" y="34" text-anchor="end" font-size="9" fill="#6b7280">70°</text>
</svg>