<svg viewBox="0 0 520 340" class="horizon-cartesian-chart" preserveAspectRatio="xMidYMid meet">
<g id="background-layer">
<rect x="0" y="0" width="520" height="340" fill="#ffffff"/>
<line x1="50" y1="261.42857142857144" x2="435" y2="261.42857142857144" stroke="#e5e7eb" stroke-width="0.5"/>
<line x1="50" y1="222.85714285714286" x2="435" y2="222.85714285714286" stroke="#e5e7eb" stroke-width="0.5"/>
<line x1="50" y1="184.28571428571428" x2="435" y2="184.28571428571428" stroke="#e5e7eb" stroke-width="0.5"/>
<line x1="50" y1="145.71428571428572" x2="435" y2="145.71428571428572" stroke="#e5e7eb" stroke-width="0.5"/>
<line x1="50" y1="107.14285714285714" x2="435" y2="107.14285714285714" stroke="#e5e7eb" stroke-width="0.5"/>
<line x1="50" y1="68.57142857142858" x2="435" y2="68.57142857142858" stroke="#e5e7eb" stroke-width="0.5"/>
<line x1="50" y1="30" x2="50" y2="300" stroke="#e5e7eb" stroke-width="0.5"/>
<line x1="114.16666666666666" y1="30" x2="114.16666666666666" y2="300" stroke="#e5e7eb" stroke-width="0.5"/>
<line x1="178.33333333333331" y1="30" x2="178.33333333333331" y2="300" stroke="#e5e7eb" stroke-width="0.5"/>
<line x1="242.5" y1="30" x2="242.5" y2="300" stroke="#e5e7eb" stroke-width="0.5"/>
<line x1="306.66666666666663" y1="30" x2="306.66666666666663" y2="300" stroke="#e5e7eb" stroke-width="0.5"/>
<line x1="370.83333333333337" y1="30" x2="370.83333333333337" y2="300" stroke="#e5e7eb" stroke-width="0.5"/>
<line x1="435" y1="30" x2="435" y2="300" stroke="#e5e7eb" stroke-width="0.5"/>
</g>
<g id="visibility-mesh-layer">
<path class="visibility-cell" d="M 78.92174581623294 262.69584642606515 L 93.86644424749784 226.86360026001694 L 108.04353172615664 256.2858248512499 L 92.18150689492123 293.77996182074014 Z" fill="rgba(100,100,100,0.25)" stroke="none"/>
<path class="visibility-cell" d="M 93.86644424749784 226.86360026001694 L 109.045748972939 189.32394728791826 L 124.2787666172602 218.24520017333083 L 108.04353172615664 256.2858248512499 Z" fill="rgba(100,100,100,0.15)" stroke="none"/>
<path class="visibility-cell" d="M 364.94481050452947 163.41986663001953 L 380.87695818248125 201.40322457522055 L 370.3724783460154 239.8056270792384 L 353.64065830774575 202.05736664197963 Z" fill="rgba(100,100,100,0.15)" stroke="none"/>
<path class="visibility-cell" d="M 380.87695818248125 201.40322457522055 L 395.88293574979934 238.53092591187053 L 386.2916807014236 277.615091749353 L 370.3724783460154 239.8056270792384 Z" fill="rgba(100,100,100,0.15)" stroke="none"/>
<path class="visibility-cell" d="M 92.18150689492123 293.77996182074014 L 108.04353172615664 256.2858248512499 L 133.13144962505123 258.04311561645125 L 116.80126781403861 295.77456320564045 Z" fill="rgba(100,100,100,0.25)" stroke="none"/>
<path class="visibility-cell" d="M 108.04353172615664 256.2858248512499 L 124.2787666172602 218.24520017333083 L 150.5687484171317 222.1306202406617 L 133.13144962505123 258.04311561645125 Z" fill="rgba(100,100,100,0.15)" stroke="none"/>
<path class="visibility-cell" d="M 312.51538419360634 134.21364980119753 L 334.870852169866 166.07021865446495 L 339.68223836671626 231.6379855891015 L 320.7966930622158 198.2492678595077 Z" fill="rgba(100,100,100,0.15)" stroke="none"/>
<path class="visibility-cell" d="M 334.870852169866 166.07021865446495 L 353.64065830774575 202.05736664197963 L 356.73646792339963 268.16163829459197 L 339.68223836671626 231.6379855891015 Z" fill="rgba(100,100,100,0.15)" stroke="none"/>
<path class="visibility-cell" d="M 133.13144962505123 258.04311561645125 L 150.5687484171317 222.1306202406617 L 157.50769201698063 259.4117924832194 L 140.75364384581457 294.05325266796206 Z" fill="rgba(100,100,100,0.15)" stroke="none"/>
<path class="visibility-cell" d="M 150.5687484171317 222.1306202406617 L 170.12202373193531 189.94721455795803 L 175.8248305885101 228.9060378400032 L 157.50769201698063 259.4117924832194 Z" fill="rgba(100,100,100,0.15)" stroke="none"/>
<path class="visibility-cell" d="M 170.12202373193531 189.94721455795803 L 192.690830997634 163.98661696338363 L 196.2590387315767 204.58583558843503 L 175.8248305885101 228.9060378400032 Z" fill="rgba(100,100,100,0.15)" stroke="none"/>
<path class="visibility-cell" d="M 299.1167000085161 170.316998088569 L 320.7966930622158 198.2492678595077 L 309.9276458302072 229.60385811199185 L 289.5425198442414 205.10879392384027 Z" fill="rgba(100,100,100,0.15)" stroke="none"/>
<path class="visibility-cell" d="M 320.7966930622158 198.2492678595077 L 339.68223836671626 231.6379855891015 L 328.21143855971513 260.21752647008174 L 309.9276458302072 229.60385811199185 Z" fill="rgba(100,100,100,0.15)" stroke="none"/>
<path class="visibility-cell" d="M 339.68223836671626 231.6379855891015 L 356.73646792339963 268.16163829459197 L 344.9575214301754 294.90558315533696 L 328.21143855971513 260.21752647008174 Z" fill="rgba(100,100,100,0.25)" stroke="none"/>
<path class="visibility-cell" d="M 157.50769201698063 259.4117924832194 L 175.8248305885101 228.9060378400032 L 187.49508882356824 253.72003475934213 L 169.84436845489947 280.4851333462107 Z" fill="rgba(100,100,100,0.25)" stroke="none"/>
<path class="visibility-cell" d="M 175.8248305885101 228.9060378400032 L 196.2590387315767 204.58583558843503 L 206.76131881007515 233.67605055053582 L 187.49508882356824 253.72003475934213 Z" fill="rgba(100,100,100,0.15)" stroke="none"/>
<path class="visibility-cell" d="M 196.2590387315767 204.58583558843503 L 218.87626303611648 188.725627509664 L 227.44847549064323 222.05521280790572 L 206.76131881007515 233.67605055053582 Z" fill="rgba(100,100,100,0.15)" stroke="none"/>
<path class="visibility-cell" d="M 242.93356339114342 183.2734318802664 L 266.9714811226034 189.00862729011584 L 269.9247300720434 227.90998927797517 L 248.84353841365225 220.05795420898957 Z" fill="rgba(100,100,100,0.15)" stroke="none"/>
<path class="visibility-cell" d="M 266.9714811226034 189.00862729011584 L 289.5425198442414 205.10879392384027 L 289.81034105578044 244.7598292302506 L 269.9247300720434 227.90998927797517 Z" fill="rgba(100,100,100,0.15)" stroke="none"/>
<path class="visibility-cell" d="M 289.5425198442414 205.10879392384027 L 309.9276458302072 229.60385811199185 L 308.09362950861015 269.0437902419629 L 289.81034105578044 244.7598292302506 Z" fill="rgba(100,100,100,0.15)" stroke="none"/>
<path class="visibility-cell" d="M 309.9276458302072 229.60385811199185 L 328.21143855971513 260.21752647008174 L 324.86171993364275 298.9951807077334 L 308.09362950861015 269.0437902419629 Z" fill="rgba(100,100,100,0.25)" stroke="none"/>
<path class="visibility-cell" d="M 169.84436845489947 280.4851333462107 L 187.49508882356824 253.72003475934213 L 186.9324253465291 268.05259772540046 L 169.95198094688624 294.9177285465109 Z" fill="rgba(100,100,100,0.25)" stroke="none"/>
<path class="visibility-cell" d="M 187.49508882356824 253.72003475934213 L 206.76131881007515 233.67605055053582 L 205.36992585633814 247.59680599102833 L 186.9324253465291 268.05259772540046 Z" fill="rgba(100,100,100,0.25)" stroke="none"/>
<path class="visibility-cell" d="M 206.76131881007515 233.67605055053582 L 227.44847549064323 222.05521280790572 L 225.12900823517174 235.12629558423998 L 205.36992585633814 247.59680599102833 Z" fill="rgba(100,100,100,0.15)" stroke="none"/>
<path class="visibility-cell" d="M 227.44847549064323 222.05521280790572 L 248.84353841365225 220.05795420898957 L 245.6282646937497 231.80890535179168 L 225.12900823517174 235.12629558423998 Z" fill="rgba(100,100,100,0.15)" stroke="none"/>
<path class="visibility-cell" d="M 248.84353841365225 220.05795420898957 L 269.9247300720434 227.90998927797517 L 265.9878120733249 237.98722250071842 L 245.6282646937497 231.80890535179168 Z" fill="rgba(100,100,100,0.15)" stroke="none"/>
<path class="visibility-cell" d="M 269.9247300720434 227.90998927797517 L 289.81034105578044 244.7598292302506 L 285.38688889700654 253.0345287187332 L 265.9878120733249 237.98722250071842 Z" fill="rgba(100,100,100,0.25)" stroke="none"/>
<path class="visibility-cell" d="M 289.81034105578044 244.7598292302506 L 308.09362950861015 269.0437902419629 L 303.37638878501093 275.61085869608644 L 285.38688889700654 253.0345287187332 Z" fill="rgba(100,100,100,0.25)" stroke="none"/>
</g>
<g id="horizon-fill-layer">
<path class="horizon-fill" d="M 50 222.85714285714286 L 50.71296296296296 222.85714285714286 L 51.425925925925924 222.85714285714286 L 52.138888888888886 222.85714285714286 L 52.851851851851855 222.85714285714286 L 53.56481481481482 222.85714285714286 L 54.27777777777778 222.85714285714286 L 54.99074074074074 222.85714285714286 L 55.7037037037037 222.85714285714286 L 56.416666666666664 222.85714285714286 L 57.129629629629626 222.85714285714286 L 57.842592592592595 222.85714285714286 L 58.55555555555556 222.85714285714286 L 59.26851851851852 222.85714285714286 L 59.98148148148148 222.85714285714286 L 60.69444444444444 222.85714285714286 L 61.407407407407405 222.85714285714286 L 62.12037037037037 222.85714285714286 L 62.833333333333336 222.85714285714286 L 63.5462962962963 222.85714285714286 L 64.25925925925925 222.85714285714286 L 64.97222222222223 222.85714285714286 L 65.68518518518519 222.85714285714286 L 66.39814814814815 222.85714285714286 L 67.11111111111111 222.85714285714286 L 67.82407407407408 222.85714285714286 L 68.53703703703704 222.85714285714286 L 69.25 222.85714285714286 L 69.96296296296296 222.85714285714286 L 70.67592592592592 222.85714285714286 L 71.38888888888889 222.85714285714286 L 72.10185185185185 222.85714285714286 L 72.81481481481481 222.85714285714286 L 73.52777777777777 222.85714285714286 L 74.24074074074073 222.85714285714286 L 74.9537037037037 222.85714285714286 L 75.66666666666667 222.85714285714286 L 76.37962962962963 222.85714285714286 L 77.0925925925926 222.85714285714286 L 77.80555555555556 222.85714285714286 L 78.51851851851852 222.85714285714286 L 79.23148148148148 222.85714285714286 L 79.94444444444444 222.85714285714286 L 80.6574074074074 222.85714285714286 L 81.37037037037038 222.85714285714286 L 82.08333333333333 222.85714285714286 L 82.7962962962963 222.85714285714286 L 83.50925925925927 222.85714285714286 L 84.22222222222223 222.85714285714286 L 84.93518518518519 222.85714285714286 L 85.64814814814815 222.85714285714286 L 86.36111111111111 222.85714285714286 L 87.07407407407408 222.85714285714286 L 87.78703703703704 222.85714285714286 L 88.5 222.85714285714286 L 89.21296296296296 222.85714285714286 L 89.92592592592592 222.85714285714286 L 90.63888888888889 222.85714285714286 L 91.35185185185185 222.85714285714286 L 92.06481481481481 222.85714285714286 L 92.77777777777777 222.85714285714286 L 93.49074074074073 222.85714285714286 L 94.2037037037037 222.85714285714286 L 94.91666666666666 222.85714285714286 L 95.62962962962963 222.85714285714286 L 96.34259259259258 222.85714285714286 L 97.05555555555556 222.85714285714286 L 97.76851851851852 222.85714285714286 L 98.48148148148147 222.85714285714286 L 99.19444444444444 222.85714285714286 L 99.9074074074074 222.85714285714286 L 100.62037037037037 222.85714285714286 L 101.33333333333334 222.85714285714286 L 102.0462962962963 222.85714285714286 L 102.75925925925927 222.85714285714286 L 103.47222222222223 222.85714285714286 L 104.18518518518519 222.85714285714286 L 104.89814814814815 222.85714285714286 L 105.61111111111111 222.85714285714286 L 106.32407407407408 222.85714285714286 L 107.03703703703704 222.85714285714286 L 107.75 222.85714285714286 L 108.46296296296296 222.85714285714286 L 109.17592592592592 222.85714285714286 L 109.88888888888889 222.85714285714286 L 110.60185185185185 222.85714285714286 L 111.31481481481481 222.85714285714286 L 112.02777777777777 222.85714285714286 L 112.74074074074075 222.85714285714286 L 113.4537037037037 222.85714285714286 L 114.16666666666666 222.85714285714286 L 114.87962962962963 222.85714285714286 L 115.5925925925926 222.85714285714286 L 116.30555555555556 222.85714285714286 L 117.01851851851852 222.85714285714286 L 117.73148148148148 222.85714285714286 L 118.44444444444444 222.85714285714286 L 119.1574074074074 222.85714285714286 L 119.87037037037038 222.85714285714286 L 120.58333333333333 222.85714285714286 L 121.29629629629629 222.85714285714286 L 122.00925925925925 222.85714285714286 L 122.72222222222221 222.85714285714286 L 123.43518518518519 222.85714285714286 L 124.14814814814815 222.85714285714286 L 124.86111111111111 222.85714285714286 L 125.57407407407408 222.85714285714286 L 126.28703703703704 222.85714285714286 L 127 222.85714285714286 L 127.71296296296296 222.85714285714286 L 128.42592592592592 222.85714285714286 L 129.13888888888889 222.85714285714286 L 129.85185185185185 222.85714285714286 L 130.5648148148148 222.85714285714286 L 131.27777777777777 222.85714285714286 L 131.99074074074076 222.85714285714286 L 132.7037037037037 222.85714285714286 L 133.41666666666669 222.85714285714286 L 134.12962962962962 222.85714285714286 L 134.8425925925926 222.85714285714286 L 135.55555555555554 222.85714285714286 L 136.26851851851853 222.85714285714286 L 136.98148148148147 222.85714285714286 L 137.69444444444446 222.85714285714286 L 138.4074074074074 222.85714285714286 L 139.12037037037038 222.85714285714286 L 139.83333333333331 222.85714285714286 L 140.5462962962963 222.85714285714286 L 141.25925925925927 222.85714285714286 L 141.97222222222223 222.85714285714286 L 142.68518518518516 222.85714285714286 L 143.39814814814815 222.85714285714286 L 144.11111111111111 222.85714285714286 L 144.82407407407408 222.85714285714286 L 145.53703703703704 222.85714285714286 L 146.25 222.85714285714286 L 146.96296296296293 222.85714285714286 L 147.67592592592592 222.85714285714286 L 148.38888888888889 222.85714285714286 L 149.10185185185185 222.85714285714286 L 149.8148148148148 222.85714285714286 L 150.52777777777777 222.85714285714286 L 151.24074074074073 222.85714285714286 L 151.9537037037037 222.85714285714286 L 152.66666666666669 222.85714285714286 L 153.37962962962962 222.85714285714286 L 154.0925925925926 222.85714285714286 L 154.80555555555554 222.85714285714286 L 155.51851851851853 222.85714285714286 L 156.23148148148147 222.85714285714286 L 156.94444444444446 222.85714285714286 L 157.6574074074074 222.85714285714286 L 158.37037037037038 222.85714285714286 L 159.08333333333331 222.85714285714286 L 159.7962962962963 222.85714285714286 L 160.50925925925924 222.85714285714286 L 161.22222222222223 222.85714285714286 L 161.9351851851852 222.85714285714286 L 162.64814814814815 222.85714285714286 L 163.36111111111111 222.85714285714286 L 164.07407407407408 222.85714285714286 L 164.78703703703704 222.85714285714286 L 165.5 222.85714285714286 L 166.212962962963 222.85714285714286 L 166.92592592592592 222.85714285714286 L 167.6388888888889 222.85714285714286 L 168.35185185185185 222.85714285714286 L 169.0648148148148 222.85714285714286 L 169.77777777777777 222.85714285714286 L 170.49074074074073 222.85714285714286 L 171.2037037037037 222.85714285714286 L 171.91666666666666 222.85714285714286 L 172.62962962962962 222.85714285714286 L 173.3425925925926 222.85714285714286 L 174.05555555555554 222.85714285714286 L 174.76851851851853 222.85714285714286 L 175.4814814814815 222.85714285714286 L 176.19444444444446 222.85714285714286 L 176.9074074074074 222.85714285714286 L 177.62037037037038 222.85714285714286 L 178.33333333333331 222.85714285714286 L 179.0462962962963 222.85714285714286 L 179.75925925925927 222.85714285714286 L 180.47222222222223 222.85714285714286 L 181.1851851851852 222.85714285714286 L 181.89814814814815 222.85714285714286 L 182.61111111111111 222.85714285714286 L 183.32407407407408 222.85714285714286 L 184.03703703703704 222.85714285714286 L 184.75 222.85714285714286 L 185.46296296296296 222.85714285714286 L 186.17592592592592 222.85714285714286 L 186.88888888888889 222.85714285714286 L 187.60185185185185 222.85714285714286 L 188.3148148148148 222.85714285714286 L 189.02777777777777 222.85714285714286 L 189.74074074074076 222.85714285714286 L 190.4537037037037 222.85714285714286 L 191.16666666666666 222.85714285714286 L 191.87962962962962 222.85714285714286 L 192.59259259259258 222.85714285714286 L 193.30555555555557 222.85714285714286 L 194.0185185185185 222.85714285714286 L 194.7314814814815 222.85714285714286 L 195.44444444444443 222.85714285714286 L 196.15740740740742 222.85714285714286 L 196.87037037037038 222.85714285714286 L 197.58333333333334 222.85714285714286 L 198.2962962962963 222.85714285714286 L 199.00925925925924 222.85714285714286 L 199.72222222222223 222.85714285714286 L 200.4351851851852 222.85714285714286 L 201.14814814814815 222.85714285714286 L 201.86111111111111 222.85714285714286 L 202.57407407407408 222.85714285714286 L 203.28703703703704 222.85714285714286 L 204 222.85714285714286 L 204.71296296296296 222.85714285714286 L 205.42592592592592 222.85714285714286 L 206.13888888888889 222.85714285714286 L 206.85185185185185 222.85714285714286 L 207.5648148148148 222.85714285714286 L 208.27777777777777 222.85714285714286 L 208.99074074074073 222.85714285714286 L 209.7037037037037 222.85714285714286 L 210.41666666666669 222.85714285714286 L 211.12962962962962 222.85714285714286 L 211.8425925925926 222.85714285714286 L 212.55555555555554 222.85714285714286 L 213.2685185185185 222.85714285714286 L 213.9814814814815 222.85714285714286 L 214.69444444444443 222.85714285714286 L 215.40740740740742 222.85714285714286 L 216.12037037037035 222.85714285714286 L 216.83333333333334 222.85714285714286 L 217.5462962962963 222.85714285714286 L 218.25925925925927 222.85714285714286 L 218.97222222222223 222.85714285714286 L 219.6851851851852 222.85714285714286 L 220.39814814814815 222.85714285714286 L 221.11111111111111 222.85714285714286 L 221.82407407407408 222.85714285714286 L 222.53703703703704 222.85714285714286 L 223.25 222.85714285714286 L 223.96296296296296 222.85714285714286 L 224.67592592592592 222.85714285714286 L 225.38888888888889 222.85714285714286 L 226.10185185185185 222.85714285714286 L 226.8148148148148 222.85714285714286 L 227.5277777777778 222.85714285714286 L 228.24074074074073 222.85714285714286 L 228.9537037037037 222.85714285714286 L 229.66666666666666 222.85714285714286 L 230.37962962962962 222.85714285714286 L 231.0925925925926 222.85714285714286 L 231.80555555555554 222.85714285714286 L 232.51851851851853 222.85714285714286 L 233.23148148148147 222.85714285714286 L 233.94444444444446 222.85714285714286 L 234.65740740740742 222.85714285714286 L 235.37037037037035 222.85714285714286 L 236.08333333333334 222.85714285714286 L 236.79629629629628 222.85714285714286 L 237.50925925925927 222.85714285714286 L 238.22222222222223 222.85714285714286 L 238.9351851851852 222.85714285714286 L 239.64814814814815 222.85714285714286 L 240.36111111111111 222.85714285714286 L 241.07407407407408 222.85714285714286 L 241.78703703703704 222.85714285714286 L 242.5 222.85714285714286 L 243.21296296296296 222.85714285714286 L 243.9259259259259 222.85714285714286 L 244.63888888888889 222.85714285714286 L 245.35185185185185 222.85714285714286 L 246.06481481481484 222.85714285714286 L 246.77777777777777 222.85714285714286 L 247.49074074074073 222.85714285714286 L 248.20370370370372 222.85714285714286 L 248.91666666666669 222.85714285714286 L 249.62962962962962 222.85714285714286 L 250.34259259259258 222.85714285714286 L 251.05555555555557 222.85714285714286 L 251.7685185185185 222.85714285714286 L 252.48148148148147 222.85714285714286 L 253.19444444444446 222.85714285714286 L 253.90740740740742 222.85714285714286 L 254.62037037037035 222.85714285714286 L 255.33333333333334 222.85714285714286 L 256.0462962962963 222.85714285714286 L 256.75925925925924 222.85714285714286 L 257.4722222222222 222.85714285714286 L 258.1851851851852 222.85714285714286 L 258.89814814814815 222.85714285714286 L 259.6111111111111 222.85714285714286 L 260.3240740740741 222.85714285714286 L 261.03703703703707 222.85714285714286 L 261.75 222.85714285714286 L 262.46296296296293 222.85714285714286 L 263.1759259259259 222.85714285714286 L 263.8888888888889 222.85714285714286 L 264.60185185185185 222.85714285714286 L 265.3148148148148 222.85714285714286 L 266.02777777777777 222.85714285714286 L 266.74074074074076 222.85714285714286 L 267.4537037037037 222.85714285714286 L 268.16666666666663 222.85714285714286 L 268.8796296296297 222.85714285714286 L 269.5925925925926 222.85714285714286 L 270.30555555555554 222.85714285714286 L 271.0185185185185 222.85714285714286 L 271.7314814814815 222.85714285714286 L 272.44444444444446 222.85714285714286 L 273.1574074074074 222.85714285714286 L 273.8703703703704 222.85714285714286 L 274.58333333333337 222.85714285714286 L 275.2962962962963 222.85714285714286 L 276.00925925925924 222.85714285714286 L 276.72222222222223 222.85714285714286 L 277.4351851851852 222.85714285714286 L 278.14814814814815 222.85714285714286 L 278.8611111111111 222.85714285714286 L 279.5740740740741 222.85714285714286 L 280.287037037037 222.85714285714286 L 281 222.85714285714286 L 281.71296296296293 222.85714285714286 L 282.425925925926 222.85714285714286 L 283.1388888888889 222.85714285714286 L 283.85185185185185 222.85714285714286 L 284.5648148148148 222.85714285714286 L 285.2777777777778 222.85714285714286 L 285.99074074074076 222.85714285714286 L 286.7037037037037 222.85714285714286 L 287.4166666666667 222.85714285714286 L 288.1296296296296 222.85714285714286 L 288.8425925925926 222.85714285714286 L 289.55555555555554 222.85714285714286 L 290.26851851851853 222.85714285714286 L 290.98148148148147 222.85714285714286 L 291.69444444444446 222.85714285714286 L 292.4074074074074 222.85714285714286 L 293.1203703703704 222.85714285714286 L 293.8333333333333 222.85714285714286 L 294.5462962962963 222.85714285714286 L 295.25925925925924 222.85714285714286 L 295.9722222222222 222.85714285714286 L 296.6851851851852 222.85714285714286 L 297.39814814814815 222.85714285714286 L 298.1111111111111 222.85714285714286 L 298.824074074074 222.85714285714286 L 299.53703703703707 222.85714285714286 L 300.25 222.85714285714286 L 300.962962962963 222.85714285714286 L 301.6759259259259 222.85714285714286 L 302.3888888888889 222.85714285714286 L 303.10185185185185 222.85714285714286 L 303.8148148148148 222.85714285714286 L 304.52777777777777 222.85714285714286 L 305.24074074074076 222.85714285714286 L 305.9537037037037 222.85714285714286 L 306.66666666666663 222.85714285714286 L 307.3796296296296 222.85714285714286 L 308.0925925925926 222.85714285714286 L 308.8055555555556 222.85714285714286 L 309.51851851851853 222.85714285714286 L 310.23148148148147 222.85714285714286 L 310.94444444444446 222.85714285714286 L 311.6574074074074 222.85714285714286 L 312.3703703703704 222.85714285714286 L 313.0833333333333 222.85714285714286 L 313.7962962962963 222.85714285714286 L 314.50925925925924 222.85714285714286 L 315.22222222222223 222.85714285714286 L 315.9351851851852 222.85714285714286 L 316.64814814814815 222.85714285714286 L 317.3611111111111 222.85714285714286 L 318.0740740740741 222.85714285714286 L 318.78703703703707 222.85714285714286 L 319.5 222.85714285714286 L 320.21296296296293 222.85714285714286 L 320.9259259259259 222.85714285714286 L 321.6388888888889 222.85714285714286 L 322.35185185185185 222.85714285714286 L 323.06481481481484 222.85714285714286 L 323.77777777777777 222.85714285714286 L 324.4907407407407 222.85714285714286 L 325.2037037037037 222.85714285714286 L 325.9166666666667 222.85714285714286 L 326.6296296296296 222.85714285714286 L 327.34259259259255 222.85714285714286 L 328.05555555555554 222.85714285714286 L 328.76851851851853 222.85714285714286 L 329.4814814814815 222.85714285714286 L 330.19444444444446 222.85714285714286 L 330.9074074074074 222.85714285714286 L 331.6203703703704 222.85714285714286 L 332.3333333333333 222.85714285714286 L 333.0462962962963 222.85714285714286 L 333.75925925925924 222.85714285714286 L 334.47222222222223 222.85714285714286 L 335.18518518518516 222.85714285714286 L 335.89814814814815 222.85714285714286 L 336.61111111111114 222.85714285714286 L 337.3240740740741 222.85714285714286 L 338.037037037037 222.85714285714286 L 338.75 222.85714285714286 L 339.462962962963 222.85714285714286 L 340.1759259259259 222.85714285714286 L 340.88888888888886 222.85714285714286 L 341.60185185185185 222.85714285714286 L 342.31481481481484 222.85714285714286 L 343.02777777777777 222.85714285714286 L 343.74074074074076 222.85714285714286 L 344.4537037037037 222.85714285714286 L 345.1666666666667 222.85714285714286 L 345.8796296296296 222.85714285714286 L 346.5925925925926 222.85714285714286 L 347.30555555555554 222.85714285714286 L 348.0185185185185 222.85714285714286 L 348.73148148148147 222.85714285714286 L 349.44444444444446 222.85714285714286 L 350.15740740740745 222.85714285714286 L 350.8703703703704 222.85714285714286 L 351.5833333333333 222.85714285714286 L 352.2962962962963 222.85714285714286 L 353.0092592592593 222.85714285714286 L 353.72222222222223 222.85714285714286 L 354.43518518518516 222.85714285714286 L 355.14814814814815 222.85714285714286 L 355.8611111111111 222.85714285714286 L 356.5740740740741 222.85714285714286 L 357.28703703703707 222.85714285714286 L 358 222.85714285714286 L 358.71296296296293 222.85714285714286 L 359.4259259259259 222.85714285714286 L 360.1388888888889 222.85714285714286 L 360.85185185185185 222.85714285714286 L 361.5648148148148 222.85714285714286 L 362.27777777777777 222.85714285714286 L 362.99074074074076 222.85714285714286 L 363.7037037037037 222.85714285714286 L 364.4166666666667 222.85714285714286 L 365.1296296296296 222.85714285714286 L 365.8425925925926 222.85714285714286 L 366.55555555555554 222.85714285714286 L 367.26851851851853 222.85714285714286 L 367.98148148148147 222.85714285714286 L 368.6944444444444 222.85714285714286 L 369.4074074074074 222.85714285714286 L 370.1203703703704 222.85714285714286 L 370.83333333333337 222.85714285714286 L 371.5462962962963 222.85714285714286 L 372.25925925925924 222.85714285714286 L 372.97222222222223 222.85714285714286 L 373.6851851851852 222.85714285714286 L 374.39814814814815 222.85714285714286 L 375.1111111111111 222.85714285714286 L 375.8240740740741 222.85714285714286 L 376.537037037037 222.85714285714286 L 377.25 222.85714285714286 L 377.962962962963 222.85714285714286 L 378.6759259259259 222.85714285714286 L 379.38888888888886 222.85714285714286 L 380.10185185185185 222.85714285714286 L 380.81481481481484 222.85714285714286 L 381.52777777777777 222.85714285714286 L 382.2407407407407 222.85714285714286 L 382.9537037037037 222.85714285714286 L 383.6666666666667 222.85714285714286 L 384.3796296296296 222.85714285714286 L 385.0925925925926 222.85714285714286 L 385.80555555555554 222.85714285714286 L 386.51851851851853 222.85714285714286 L 387.23148148148147 222.85714285714286 L 387.94444444444446 222.85714285714286 L 388.6574074074074 222.85714285714286 L 389.3703703703704 222.85714285714286 L 390.0833333333333 222.85714285714286 L 390.7962962962963 222.85714285714286 L 391.5092592592593 222.85714285714286 L 392.22222222222223 222.85714285714286 L 392.93518518518516 222.85714285714286 L 393.64814814814815 222.85714285714286 L 394.36111111111114 222.85714285714286 L 395.0740740740741 222.85714285714286 L 395.787037037037 222.85714285714286 L 396.5 222.85714285714286 L 397.212962962963 222.85714285714286 L 397.9259259259259 222.85714285714286 L 398.6388888888889 222.85714285714286 L 399.35185185185185 222.85714285714286 L 400.0648148148148 222.85714285714286 L 400.77777777777777 222.85714285714286 L 401.49074074074076 222.85714285714286 L 402.2037037037037 222.85714285714286 L 402.91666666666663 222.85714285714286 L 403.6296296296296 222.85714285714286 L 404.3425925925926 222.85714285714286 L 405.0555555555556 222.85714285714286 L 405.76851851851853 222.85714285714286 L 406.48148148148147 222.85714285714286 L 407.19444444444446 222.85714285714286 L 407.9074074074074 222.85714285714286 L 408.6203703703704 222.85714285714286 L 409.3333333333333 222.85714285714286 L 410.0462962962963 222.85714285714286 L 410.75925925925924 222.85714285714286 L 411.47222222222223 222.85714285714286 L 412.1851851851852 222.85714285714286 L 412.89814814814815 222.85714285714286 L 413.6111111111111 222.85714285714286 L 414.3240740740741 222.85714285714286 L 415.03703703703707 222.85714285714286 L 415.75 222.85714285714286 L 416.46296296296293 222.85714285714286 L 417.1759259259259 222.85714285714286 L 417.8888888888889 222.85714285714286 L 418.60185185185185 222.85714285714286 L 419.31481481481484 222.85714285714286 L 420.02777777777777 222.85714285714286 L 420.7407407407407 222.85714285714286 L 421.4537037037037 222.85714285714286 L 422.1666666666667 222.85714285714286 L 422.8796296296296 222.85714285714286 L 423.59259259259255 222.85714285714286 L 424.30555555555554 222.85714285714286 L 425.01851851851853 222.85714285714286 L 425.7314814814815 222.85714285714286 L 426.44444444444446 222.85714285714286 L 427.1574074074074 222.85714285714286 L 427.8703703703704 222.85714285714286 L 428.5833333333333 222.85714285714286 L 429.2962962962963 222.85714285714286 L 430.00925925925924 222.85714285714286 L 430.72222222222223 222.85714285714286 L 431.43518518518516 222.85714285714286 L 432.14814814814815 222.85714285714286 L 432.86111111111114 222.85714285714286 L 433.5740740740741 222.85714285714286 L 434.287037037037 222.85714285714286 L 435 222.85714285714286 L 435 300 L 50 300 Z" fill="rgba(100,100,100,0.08)" stroke="none"/>
</g>
<g id="sun-layer">
<path class="sun-masked" d="M 63.44844375049691 295.5743969767151 L 78.92174581623294 262.69584642606515 L 93.86644424749784 226.86360026001694 L 95.48647080974366 222.85714304393895" fill="none" stroke="rgba(100,116,139,0.4)" stroke-width="0.8"/>
<path class="sun-visible" d="M 95.48647080974366 222.85714304393895 L 109.045748972939 189.32394728791826 L 125.54714616562445 151.35594892551532 L 145.08726176743056 114.61263466749205 L 170.51345247168794 81.83473379994314 L 205.58719278332157 58.15120865768702 L 249.77499744238736 51.17830265257288 L 291.81225972307305 64.26723262999644 L 323.4634678238349 91.60698607319253 L 346.61783823721976 126.06096146421828 L 364.94481050452947 163.41986663001953 L 380.87695818248125 201.40322457522055 L 389.5480312723995 222.85714255600584" fill="none" stroke="#9ca3af" stroke-width="1" opacity="0.9"/>
<path class="sun-masked" d="M 389.5480312723995 222.85714255600584 L 395.88293574979934 238.53092591187053 L 410.92414207136056 273.56083416957046" fill="none" stroke="rgba(100,116,139,0.4)" stroke-width="0.8"/>
<path class="sun-masked" d="M 92.18150689492123 293.77996182074014 L 108.04353172615664 256.2858248512499 L 122.31045068969804 222.85714252896574" fill="none" stroke="rgba(100,116,139,0.4)" stroke-width="0.8"/>
<path class="sun-visible" d="M 122.31045068969804 222.85714252896574 L 124.2787666172602 218.24520017333083 L 141.99388789266646 181.2059224499988 L 162.60131017127358 147.18647656314724 L 187.74199608188954 119.16659512533255 L 218.34905120246526 101.3588120733248 L 252.45451908705925 97.97618133752661 L 285.0362676089492 110.01054381958798 L 312.51538419360634 134.21364980119753 L 334.870852169866 166.07021865446495 L 353.64065830774575 202.05736664197963 L 362.86010580044996 222.85714241330825" fill="none" stroke="#9ca3af" stroke-width="1" opacity="0.9"/>
<path class="sun-masked" d="M 362.86010580044996 222.85714241330825 L 370.3724783460154 239.8056270792384 L 386.2916807014236 277.615091749353" fill="none" stroke="rgba(100,116,139,0.4)" stroke-width="0.8"/>
<path class="sun-masked" d="M 116.80126781403861 295.77456320564045 L 133.13144962505123 258.04311561645125 L 150.21598544948284 222.85714323000184" fill="none" stroke="rgba(100,116,139,0.4)" stroke-width="0.8"/>
<path class="sun-visible" d="M 150.21598544948284 222.85714323000184 L 150.5687484171317 222.1306202406617 L 170.12202373193531 189.94721455795803 L 192.690830997634 163.98661696338363 L 218.5406424010861 147.27886290770496 L 246.5180837348347 142.56454308661117 L 274.12284536226144 150.76747406196577 L 299.1167000085161 170.316998088569 L 320.7966930622158 198.2492678595077 L 334.71556064750024 222.85714300568677" fill="none" stroke="#9ca3af" stroke-width="1" opacity="0.9"/>
<path class="sun-masked" d="M 334.71556064750024 222.85714300568677 L 339.68223836671626 231.6379855891015 L 356.73646792339963 268.16163829459197" fill="none" stroke="rgba(100,116,139,0.4)" stroke-width="0.8"/>
<path class="sun-masked" d="M 140.75364384581457 294.05325266796206 L 157.50769201698063 259.4117924832194 L 175.8248305885101 228.9060378400032 L 180.90720501965708 222.8571431033783" fill="none" stroke="rgba(100,116,139,0.4)" stroke-width="0.8"/>
<path class="sun-visible" d="M 180.90720501965708 222.8571431033783 L 196.2590387315767 204.58583558843503 L 218.87626303611648 188.725627509664 L 242.93356339114342 183.2734318802664 L 266.9714811226034 189.00862729011584 L 289.5425198442414 205.10879392384027 L 304.31293759483356 222.857142947322" fill="none" stroke="#9ca3af" stroke-width="1" opacity="0.9"/>
<path class="sun-masked" d="M 304.31293759483356 222.857142947322 L 309.9276458302072 229.60385811199185 L 328.21143855971513 260.21752647008174 L 344.9575214301754 294.90558315533696" fill="none" stroke="rgba(100,116,139,0.4)" stroke-width="0.8"/>
<path class="sun-masked" d="M 169.84436845489947 280.4851333462107 L 187.49508882356824 253.72003475934213 L 206.76131881007515 233.67605055053582 L 226.02089725731534 222.8571429750416" fill="none" stroke="rgba(100,116,139,0.4)" stroke-width="0.8"/>
<path class="sun-visible" d="M 226.02089725731534 222.8571429750416 L 227.44847549064323 222.05521280790572 L 248.84353841365225 220.05795420898957 L 256.3588170578322 222.85714281386197" fill="none" stroke="#9ca3af" stroke-width="1" opacity="0.9"/>
<path class="sun-masked" d="M 256.3588170578322 222.85714281386197 L 269.9247300720434 227.90998927797517 L 289.81034105578044 244.7598292302506 L 308.09362950861015 269.0437902419629 L 324.86171993364275 298.9951807077334" fill="none" stroke="rgba(100,116,139,0.4)" stroke-width="0.8"/>
<path class="sun-masked" d="M 169.95198094688624 294.9177285465109 L 186.9324253465291 268.05259772540046 L 205.36992585633814 247.59680599102833 L 225.12900823517174 235.12629558423998 L 245.6282646937497 231.80890535179168 L 265.9878120733249 237.98722250071842 L 285.38688889700654 253.0345287187332 L 303.37638878501093 275.61085869608644" fill="none" stroke="rgba(100,116,139,0.4)" stroke-width="0.8"/>
</g>
<g id="hour-layer">
<path class="hour-line" data-hour="6" d="M 63.44844375049691 295.5743969767151 L 75.77945613650436 300 L 100.602864846384 300 L 108.76910469665077 300 L 122.84076350901123 300 L 124.14061299888066 300" fill="none" stroke="#eab308" stroke-width="0.5" stroke-linecap="round" stroke-linejoin="round" opacity="0.85"/>
<path class="hour-line" data-hour="7" d="M 78.92174581623294 262.69584642606515 L 92.18150689492123 293.77996182074014 L 116.80126781403861 295.77456320564045 L 124.79964755407212 300 L 138.134218450567 300 L 139.1486418292912 300" fill="none" stroke="#eab308" stroke-width="0.5" stroke-linecap="round" stroke-linejoin="round" opacity="0.85"/>
<path class="hour-line" data-hour="8" d="M 93.86644424749784 226.86360026001694 L 108.04353172615664 256.2858248512499 L 133.13144962505123 258.04311561645125 L 140.75364384581457 294.05325266796206 L 153.5645374008128 300 L 154.18824019710692 300" fill="none" stroke="#eab308" stroke-width="0.5" stroke-linecap="round" stroke-linejoin="round" opacity="0.85"/>
<path class="hour-line" data-hour="9" d="M 109.045748972939 189.32394728791826 L 124.2787666172602 218.24520017333083 L 150.5687484171317 222.1306202406617 L 157.50769201698063 259.4117924832194 L 169.84436845489947 280.4851333462107 L 169.95198094688624 294.9177285465109" fill="none" stroke="#eab308" stroke-width="0.5" stroke-linecap="round" stroke-linejoin="round" opacity="0.85"/>
<path class="hour-line" data-hour="10" d="M 125.54714616562445 151.35594892551532 L 141.99388789266646 181.2059224499988 L 170.12202373193531 189.94721455795803 L 175.8248305885101 228.9060378400032 L 187.49508882356824 253.72003475934213 L 186.9324253465291 268.05259772540046" fill="none" stroke="#eab308" stroke-width="0.5" stroke-linecap="round" stroke-linejoin="round" opacity="0.85"/>
<path class="hour-line" data-hour="11" d="M 145.08726176743056 114.61263466749205 L 162.60131017127358 147.18647656314724 L 192.690830997634 163.98661696338363 L 196.2590387315767 204.58583558843503 L 206.76131881007515 233.67605055053582 L 205.36992585633814 247.59680599102833" fill="none" stroke="#eab308" stroke-width="0.5" stroke-linecap="round" stroke-linejoin="round" opacity="0.85"/>
<path class="hour-line" data-hour="12" d="M 170.51345247168794 81.83473379994314 L 187.74199608188954 119.16659512533255 L 218.5406424010861 147.27886290770496 L 218.87626303611648 188.725627509664 L 227.44847549064323 222.05521280790572 L 225.12900823517174 235.12629558423998" fill="none" stroke="#eab308" stroke-width="0.5" stroke-linecap="round" stroke-linejoin="round" opacity="0.85"/>
<path class="hour-line" data-hour="13" d="M 205.58719278332157 58.15120865768702 L 218.34905120246526 101.3588120733248 L 246.5180837348347 142.56454308661117 L 242.93356339114342 183.2734318802664 L 248.84353841365225 220.05795420898957 L 245.6282646937497 231.80890535179168" fill="none" stroke="#eab308" stroke-width="0.5" stroke-linecap="round" stroke-linejoin="round" opacity="0.85"/>
<path class="hour-line" data-hour="14" d="M 249.77499744238736 51.17830265257288 L 252.45451908705925 97.97618133752661 L 274.12284536226144 150.76747406196577 L 266.9714811226034 189.00862729011584 L 269.9247300720434 227.90998927797517 L 265.9878120733249 237.98722250071842" fill="none" stroke="#eab308" stroke-width="0.5" stroke-linecap="round" stroke-linejoin="round" opacity="0.85"/>
<path class="hour-line" data-hour="15" d="M 291.81225972307305 64.26723262999644 L 285.0362676089492 110.01054381958798 L 299.1167000085161 170.316998088569 L 289.5425198442414 205.10879392384027 L 289.81034105578044 244.7598292302506 L 285.38688889700654 253.0345287187332" fill="none" stroke="#eab308" stroke-width="0.5" stroke-linecap="round" stroke-linejoin="round" opacity="0.85"/>
<path class="hour-line" data-hour="16" d="M 323.4634678238349 91.60698607319253 L 312.51538419360634 134.21364980119753 L 320.7966930622158 198.2492678595077 L 309.9276458302072 229.60385811199185 L 308.09362950861015 269.0437902419629 L 303.37638878501093 275.61085869608644" fill="none" stroke="#eab308" stroke-width="0.5" stroke-linecap="round" stroke-linejoin="round" opacity="0.85"/>
<path class="hour-line" data-hour="17" d="M 346.61783823721976 126.06096146421828 L 334.870852169866 166.07021865446495 L 339.68223836671626 231.6379855891015 L 328.21143855971513 260.21752647008174 L 324.86171993364275 298.9951807077334 L 319.9483051579445 300" fill="none" stroke="#eab308" stroke-width="0.5" stroke-linecap="round" stroke-linejoin="round" opacity="0.85"/>
<path class="hour-line" data-hour="18" d="M 364.94481050452947 163.41986663001953 L 353.64065830774575 202.05736664197963 L 356.73646792339963 268.16163829459197 L 344.9575214301754 294.90558315533696 L 340.5400448468032 300 L 335.4309665757944 300" fill="none" stroke="#eab308" stroke-width="0.5" stroke-linecap="round" stroke-linejoin="round" opacity="0.85"/>
<path class="hour-line" data-hour="19" d="M 380.87695818248125 201.40322457522055 L 370.3724783460154 239.8056270792384 L 372.9627505484974 300 L 360.9340319118882 300 L 355.76507290599443 300 L 350.37824558520487 300" fill="none" stroke="#eab308" stroke-width="0.5" stroke-linecap="round" stroke-linejoin="round" opacity="0.85"/>
<path class="hour-line" data-hour="20" d="M 395.88293574979934 238.53092591187053 L 386.2916807014236 277.615091749353 L 389.3290873161241 300 L 377.0224263710678 300 L 371.3716282895522 300 L 365.55089777524347 300" fill="none" stroke="#eab308" stroke-width="0.5" stroke-linecap="round" stroke-linejoin="round" opacity="0.85"/>
<path class="hour-line" data-hour="21" d="M 410.92414207136056 273.56083416957046 L 402.3786226437259 300 L 406.81498720067503 300 L 394.262853823416 300 L 388.51464686232435 300 L 382.0319087937321 300" fill="none" stroke="#eab308" stroke-width="0.5" stroke-linecap="round" stroke-linejoin="round" opacity="0.85"/>
<text x="69.4484437504969" y="293.5743969767151" text-anchor="start" font-size="9" fill="#eab308" font-weight="500" opacity="0.85">6h</text>
<text x="84.92174581623294" y="260.69584642606515" text-anchor="start" font-size="9" fill="#eab308" font-weight="500" opacity="0.85">7h</text>
<text x="99.86644424749784" y="224.86360026001694" text-anchor="start" font-size="9" fill="#eab308" font-weight="500" opacity="0.85">8h</text>
<text x="115.045748972939" y="187.32394728791826" text-anchor="start" font-size="9" fill="#eab308" font-weight="500" opacity="0.85">9h</text>
<text x="131.54714616562444" y="149.35594892551532" text-anchor="start" font-size="9" fill="#eab308" font-weight="500" opacity="0.85">10h</text>
<text x="151.08726176743056" y="112.61263466749205" text-anchor="start" font-size="9" fill="#eab308" font-weight="500" opacity="0.85">11h</text>
<text x="176.51345247168794" y="79.83473379994314" text-anchor="start" font-size="9" fill="#eab308" font-weight="500" opacity="0.85">12h</text>
<text x="211.58719278332157" y="56.15120865768702" text-anchor="start" font-size="9" fill="#eab308" font-weight="500" opacity="0.85">13h</text>
<text x="255.77499744238736" y="49.17830265257288" text-anchor="start" font-size="9" fill="#eab308" font-weight="500" opacity="0.85">14h</text>
<text x="297.81225972307305" y="62.26723262999644" text-anchor="start" font-size="9" fill="#eab308" font-weight="500" opacity="0.85">15h</text>
<text x="329.4634678238349" y="89.60698607319253" text-anchor="start" font-size="9" fill="#eab308" font-weight="500" opacity="0.85">16h</text>
<text x="352.61783823721976" y="124.06096146421828" text-anchor="start" font-size="9" fill="#eab308" font-weight="500" opacity="0.85">17h</text>
<text x="370.94481050452947" y="161.41986663001953" text-anchor="start" font-size="9" fill="#eab308" font-weight="500" opacity="0.85">18h</text>
<text x="386.87695818248125" y="199.40322457522055" text-anchor="start" font-size="9" fill="#eab308" font-weight="500" opacity="0.85">19h</text>
<text x="401.88293574979934" y="236.53092591187053" text-anchor="start" font-size="9" fill="#eab308" font-weight="500" opacity="0.85">20h</text>
<text x="416.92414207136056" y="271.56083416957046" text-anchor="start" font-size="9" fill="#eab308" font-weight="500" opacity="0.85">21h</text>
</g>
<g id="month-labels-layer">
<line x1="50" y1="51.17830265257288" x2="435" y2="51.17830265257288" stroke="#64748b" stroke-width="0.8"/>
<text x="443" y="54.17830265257288" text-anchor="start" font-size="9" fill="#475569" font-weight="600">Mai/Juin/Juil</text>
<line x1="50" y1="97.97618133752661" x2="435" y2="97.97618133752661" stroke="#64748b" stroke-width="0.8"/>
<text x="443" y="100.97618133752661" text-anchor="start" font-size="9" fill="#475569" font-weight="600">Avr/Août</text>
<line x1="50" y1="142.56454308661117" x2="435" y2="142.56454308661117" stroke="#64748b" stroke-width="0.8"/>
<text x="443" y="145.56454308661117" text-anchor="start" font-size="9" fill="#475569" font-weight="600">Mar/Sep</text>
<line x1="50" y1="183.2734318802664" x2="435" y2="183.2734318802664" stroke="#64748b" stroke-width="0.8"/>
<text x="443" y="186.2734318802664" text-anchor="start" font-size="9" fill="#475569" font-weight="600">Fév/Oct</text>
<line x1="50" y1="220.05795420898957" x2="435" y2="220.05795420898957" stroke="#64748b" stroke-width="0.8"/>
<text x="443" y="223.05795420898957" text-anchor="start" font-size="9" fill="#475569" font-weight="600">Nov/Jan</text>
<line x1="50" y1="231.80890535179168" x2="435" y2="231.80890535179168" stroke="#64748b" stroke-width="0.8"/>
<text x="443" y="234.80890535179168" text-anchor="start" font-size="9" fill="#475569" font-weight="600">Déc</text>
</g>
<text x="50" y="22" text-anchor="start" font-size="10" fill="#64748b">Ombrage lointain : SYNTHETIC</text>
<text x="50" y="332" text-anchor="middle" font-size="10" fill="#6b7280">-135°</text>
<text x="114.16666666666666" y="332" text-anchor="middle" font-size="10" fill="#6b7280">E</text>
<text x="178.33333333333331" y="332" text-anchor="middle" font-size="10" fill="#6b7280">-45°</text>
<text x="242.5" y="332" text-anchor="middle" font-size="10" fill="#6b7280">S</text>
<text x="306.66666666666663" y="332" text-anchor="middle" font-size="10" fill="#6b7280">+45°</text>
<text x="370.83333333333337" y="332" text-anchor="middle" font-size="10" fill="#6b7280">O</text>
<text x="435" y="332" text-anchor="middle" font-size="10" fill="#6b7280">+135°</text>
<text x="44" y="304" text-anchor="end" font-size="9" fill="#6b7280">0°</text>
<text x="44" y="265.42857142857144" text-anchor="end" font-size="9" fill="#6b7280">10°</text>
<text x="44" y="226.85714285714286" text-anchor="end" font-size="9" fill="#6b7280">20°</text>
<text x="44" y="188.28571428571428" text-anchor="end" font-size="9" fill="#6b7280">30°</text>
<text x="44" y="149.71428571428572" text-anchor="end" font-size="9" fill="#6b7280">40°</text>
<text x="44" y="111.14285714285714" text-anchor="end" font-size="9" fill="#6b7280">50°</text>
<text x="44" y="72.57142857142858" text-anchor="end" font-size="9" fill="#6b7280">60°</text>
<text x="44" y="34" text-anchor="end" font-size="9" fill="#6b7280">70°</text>
</svg>