<svg viewBox="0 0 520 340" class="horizon-cartesian-chart" preserveAspectRatio="xMidYMid meet">
<g id="background-layer">
<line x1="44" y1="74.66666666666666" x2="440" y2="74.66666666666666" stroke="#e5e7eb" stroke-width="0.5"/>
<line x1="44" y1="68" x2="440" y2="68" stroke="#e5e7eb" stroke-width="0.5"/>
<line x1="44" y1="61.333333333333336" x2="440" y2="61.333333333333336" stroke="#e5e7eb" stroke-width="0.5"/>
<line x1="44" y1="54.666666666666664" x2="440" y2="54.666666666666664" stroke="#e5e7eb" stroke-width="0.5"/>
<line x1="44" y1="48" x2="440" y2="48" stroke="#e5e7eb" stroke-width="0.5"/>
<line x1="44" y1="41.33333333333333" x2="440" y2="41.33333333333333" stroke="#e5e7eb" stroke-width="0.5"/>
<line x1="44" y1="34.66666666666667" x2="440" y2="34.66666666666667" stroke="#e5e7eb" stroke-width="0.5"/>
<line x1="44" y1="28" x2="440" y2="28" stroke="#e5e7eb" stroke-width="0.5"/>
<line x1="44" y1="121.33333333333331" x2="440" y2="121.33333333333331" stroke="#e5e7eb" stroke-width="0.5"/>
<line x1="44" y1="114.66666666666666" x2="440" y2="114.66666666666666" stroke="#e5e7eb" stroke-width="0.5"/>
<line x1="44" y1="108" x2="440" y2="108" stroke="#e5e7eb" stroke-width="0.5"/>
<line x1="44" y1="101.33333333333331" x2="440" y2="101.33333333333331" stroke="#e5e7eb" stroke-width="0.5"/>
<line x1="44" y1="94.66666666666666" x2="440" y2="94.66666666666666" stroke="#e5e7eb" stroke-width="0.5"/>
<line x1="44" y1="87.99999999999999" x2="440" y2="87.99999999999999" stroke="#e5e7eb" stroke-width="0.5"/>
<line x1="44" y1="81.33333333333333" x2="440" y2="81.33333333333333" stroke="#e5e7eb" stroke-width="0.5"/>
<line x1="44" y1="74.66666666666666" x2="440" y2="74.66666666666666" stroke="#e5e7eb" stroke-width="0.5"/>
<line x1="44" y1="168" x2="440" y2="168" stroke="#e5e7eb" stroke-width="0.5"/>
<line x1="44" y1="161.33333333333331" x2="440" y2="161.33333333333331" stroke="#e5e7eb" stroke-width="0.5"/>
<line x1="44" y1="154.66666666666666" x2="440" y2="154.66666666666666" stroke="#e5e7eb" stroke-width="0.5"/>
<line x1="44" y1="148" x2="440" y2="148" stroke="#e5e7eb" stroke-width="0.5"/>
<line x1="44" y1="141.33333333333331" x2="440" y2="141.33333333333331" stroke="#e5e7eb" stroke-width="0.5"/>
<line x1="44" y1="134.66666666666666" x2="440" y2="134.66666666666666" stroke="#e5e7eb" stroke-width="0.5"/>
<line x1="44" y1="128" x2="440" y2="128" stroke="#e5e7eb" stroke-width="0.5"/>
<line x1="44" y1="121.33333333333333" x2="440" y2="121.33333333333333" stroke="#e5e7eb" stroke-width="0.5"/>
<line x1="44" y1="214.66666666666666" x2="440" y2="214.66666666666666" stroke="#e5e7eb" stroke-width="0.5"/>
<line x1="44" y1="208" x2="440" y2="208" stroke="#e5e7eb" stroke-width="0.5"/>
<line x1="44" y1="201.33333333333334" x2="440" y2="201.33333333333334" stroke="#e5e7eb" stroke-width="0.5"/>
<line x1="44" y1="194.66666666666666" x2="440" y2="194.66666666666666" stroke="#e5e7eb" stroke-width="0.5"/>
<line x1="44" y1="188" x2="440" y2="188" stroke="#e5e7eb" stroke-width="0.5"/>
<line x1="44" y1="181.33333333333334" x2="440" y2="181.33333333333334" stroke="#e5e7eb" stroke-width="0.5"/>
<line x1="44" y1="174.66666666666666" x2="440" y2="174.66666666666666" stroke="#e5e7eb" stroke-width="0.5"/>
<line x1="44" y1="168" x2="440" y2="168" stroke="#e5e7eb" stroke-width="0.5"/>
<line x1="44" y1="261.3333333333333" x2="440" y2="261.3333333333333" stroke="#e5e7eb" stroke-width="0.5"/>
<line x1="44" y1="254.66666666666666" x2="440" y2="254.66666666666666" stroke="#e5e7eb" stroke-width="0.5"/>
<line x1="44" y1="248" x2="440" y2="248" stroke="#e5e7eb" stroke-width="0.5"/>
<line x1="44" y1="241.33333333333331" x2="440" y2="241.33333333333331" stroke="#e5e7eb" stroke-width="0.5"/>
<line x1="44" y1="234.66666666666666" x2="440" y2="234.66666666666666" stroke="#e5e7eb" stroke-width="0.5"/>
<line x1="44" y1="228" x2="440" y2="228" stroke="#e5e7eb" stroke-width="0.5"/>
<line x1="44" y1="221.33333333333331" x2="440" y2="221.33333333333331" stroke="#e5e7eb" stroke-width="0.5"/>
<line x1="44" y1="214.66666666666666" x2="440" y2="214.66666666666666" stroke="#e5e7eb" stroke-width="0.5"/>
<line x1="44" y1="308" x2="440" y2="308" stroke="#e5e7eb" stroke-width="0.5"/>
<line x1="44" y1="301.3333333333333" x2="440" y2="301.3333333333333" stroke="#e5e7eb" stroke-width="0.5"/>
<line x1="44" y1="294.66666666666663" x2="440" y2="294.66666666666663" stroke="#e5e7eb" stroke-width="0.5"/>
<line x1="44" y1="288" x2="440" y2="288" stroke="#e5e7eb" stroke-width="0.5"/>
<line x1="44" y1="281.3333333333333" x2="440" y2="281.3333333333333" stroke="#e5e7eb" stroke-width="0.5"/>
<line x1="44" y1="274.66666666666663" x2="440" y2="274.66666666666663" stroke="#e5e7eb" stroke-width="0.5"/>
<line x1="44" y1="268" x2="440" y2="268" stroke="#e5e7eb" stroke-width="0.5"/>
<line x1="44" y1="261.3333333333333" x2="440" y2="261.3333333333333" stroke="#e5e7eb" stroke-width="0.5"/>
<line x1="44" y1="28" x2="44" y2="308" stroke="#e5e7eb" stroke-width="0.5"/>
<line x1="70.4" y1="28" x2="70.4" y2="308" stroke="#e5e7eb" stroke-width="0.5"/>
<line x1="96.8" y1="28" x2="96.8" y2="308" stroke="#e5e7eb" stroke-width="0.5"/>
<line x1="123.2" y1="28" x2="123.2" y2="308" stroke="#e5e7eb" stroke-width="0.5"/>
<line x1="149.6" y1="28" x2="149.6" y2="308" stroke="#e5e7eb" stroke-width="0.5"/>
<line x1="176" y1="28" x2="176" y2="308" stroke="#e5e7eb" stroke-width="0.5"/>
<line x1="202.4" y1="28" x2="202.4" y2="308" stroke="#e5e7eb" stroke-width="0.5"/>
<line x1="228.8" y1="28" x2="228.8" y2="308" stroke="#e5e7eb" stroke-width="0.5"/>
<line x1="255.2" y1="28" x2="255.2" y2="308" stroke="#e5e7eb" stroke-width="0.5"/>
<line x1="281.6" y1="28" x2="281.6" y2="308" stroke="#e5e7eb" stroke-width="0.5"/>
<line x1="308" y1="28" x2="308" y2="308" stroke="#e5e7eb" stroke-width="0.5"/>
<line x1="334.4" y1="28" x2="334.4" y2="308" stroke="#e5e7eb" stroke-width="0.5"/>
<line x1="360.8" y1="28" x2="360.8" y2="308" stroke="#e5e7eb" stroke-width="0.5"/>
<line x1="387.2" y1="28" x2="387.2" y2="308" stroke="#e5e7eb" stroke-width="0.5"/>
<line x1="413.6" y1="28" x2="413.6" y2="308" stroke="#e5e7eb" stroke-width="0.5"/>
<line x1="440" y1="28" x2="440" y2="308" stroke="#e5e7eb" stroke-width="0.5"/>
</g>
<g id="hour-labels-layer">
<text x="44" y="22" text-anchor="middle" font-size="9" fill="#374151">7</text>
<text x="70.4" y="22" text-anchor="middle" font-size="9" fill="#374151">8</text>
<text x="96.8" y="22" text-anchor="middle" font-size="9" fill="#374151">9</text>
<text x="123.2" y="22" text-anchor="middle" font-size="9" fill="#374151">10</text>
<text x="149.6" y="22" text-anchor="middle" font-size="9" fill="#374151">11</text>
<text x="176" y="22" text-anchor="middle" font-size="9" fill="#374151">12</text>
<text x="202.4" y="22" text-anchor="middle" font-size="9" fill="#374151">13</text>
<text x="228.8" y="22" text-anchor="middle" font-size="9" fill="#374151">14</text>
<text x="255.2" y="22" text-anchor="middle" font-size="9" fill="#374151">15</text>
<text x="281.6" y="22" text-anchor="middle" font-size="9" fill="#374151">16</text>
<text x="308" y="22" text-anchor="middle" font-size="9" fill="#374151">17</text>
<text x="334.4" y="22" text-anchor="middle" font-size="9" fill="#374151">18</text>
<text x="360.8" y="22" text-anchor="middle" font-size="9" fill="#374151">19</text>
<text x="387.2" y="22" text-anchor="middle" font-size="9" fill="#374151">20</text>
<text x="413.6" y="22" text-anchor="middle" font-size="9" fill="#374151">21</text>
<text x="440" y="22" text-anchor="middle" font-size="9" fill="#374151">22</text>
</g>
<g id="elevation-labels-layer">
<text x="40" y="77.66666666666666" text-anchor="end" font-size="8" fill="#6b7280">0°</text>
<text x="40" y="71" text-anchor="end" font-size="8" fill="#6b7280">10°</text>
<text x="40" y="64.33333333333334" text-anchor="end" font-size="8" fill="#6b7280">20°</text>
<text x="40" y="57.666666666666664" text-anchor="end" font-size="8" fill="#6b7280">30°</text>
<text x="40" y="51" text-anchor="end" font-size="8" fill="#6b7280">40°</text>
<text x="40" y="44.33333333333333" text-anchor="end" font-size="8" fill="#6b7280">50°</text>
<text x="40" y="37.66666666666667" text-anchor="end" font-size="8" fill="#6b7280">60°</text>
<text x="40" y="31" text-anchor="end" font-size="8" fill="#6b7280">70°</text>
</g>
<g id="season-bands-layer">
<text x="446" y="54.33333333333333" text-anchor="start" font-size="9" fill="#374151" font-weight="500">Déc</text>
<text x="446" y="101" text-anchor="start" font-size="9" fill="#374151" font-weight="500">Nov / Jan</text>
<text x="446" y="147.66666666666666" text-anchor="start" font-size="9" fill="#374151" font-weight="500">Fév / Oct</text>
<text x="446" y="194.33333333333331" text-anchor="start" font-size="9" fill="#374151" font-weight="500">Mar / Sep</text>
<text x="446" y="241" text-anchor="start" font-size="9" fill="#374151" font-weight="500">Avr / Août</text>
<text x="446" y="287.66666666666663" text-anchor="start" font-size="9" fill="#374151" font-weight="500">Mai / Juin / Juil</text>
</g>
<g id="shadowOverlayLayer" fill="none">
<path class="shadow-overlay-cell" d="M 44 74.66666666666666 L 70.4 74.66666666666666 L 70.4 74.66666666666666 L 44 74.66666666666666 Z" fill="rgba(100,116,139,0.35)" stroke="none"/>
<path class="shadow-overlay-cell" d="M 70.4 74.66666666666666 L 96.8 74.66666666666666 L 96.8 74.66666666666666 L 70.4 74.66666666666666 Z" fill="rgba(100,116,139,0.35)" stroke="none"/>
<path class="shadow-overlay-cell" d="M 96.8 74.66666666666666 L 123.2 74.66666666666666 L 123.2 73.78824937840929 L 96.8 73.78824937840929 Z" fill="rgba(100,116,139,0.35)" stroke="none"/>
<path class="shadow-overlay-cell" d="M 123.2 74.66666666666666 L 149.6 74.66666666666666 L 149.6 69.14489343401983 L 123.2 69.14489343401983 Z" fill="rgba(100,116,139,0.35)" stroke="none"/>
<path class="shadow-overlay-cell" d="M 149.6 74.66666666666666 L 176 74.66666666666666 L 176 65.6093244922765 L 149.6 65.6093244922765 Z" fill="rgba(100,116,139,0.35)" stroke="none"/>
<path class="shadow-overlay-cell" d="M 176 74.66666666666666 L 202.4 74.66666666666666 L 202.4 63.453927631843946 L 176 63.453927631843946 Z" fill="rgba(100,116,139,0.35)" stroke="none"/>
<path class="shadow-overlay-cell" d="M 202.4 74.66666666666666 L 228.8 74.66666666666666 L 228.8 62.880551542284984 L 202.4 62.880551542284984 Z" fill="rgba(100,116,139,0.35)" stroke="none"/>
<path class="shadow-overlay-cell" d="M 228.8 74.66666666666666 L 255.2 74.66666666666666 L 255.2 63.94840882728466 L 228.8 63.94840882728466 Z" fill="rgba(100,116,139,0.35)" stroke="none"/>
<path class="shadow-overlay-cell" d="M 255.2 74.66666666666666 L 281.6 74.66666666666666 L 281.6 66.54917780323784 L 255.2 66.54917780323784 Z" fill="rgba(100,116,139,0.35)" stroke="none"/>
<path class="shadow-overlay-cell" d="M 281.6 74.66666666666666 L 308 74.66666666666666 L 308 70.45125952771863 L 281.6 70.45125952771863 Z" fill="rgba(100,116,139,0.35)" stroke="none"/>
<path class="shadow-overlay-cell" d="M 308 74.66666666666666 L 334.4 74.66666666666666 L 334.4 74.66666666666666 L 308 74.66666666666666 Z" fill="rgba(100,116,139,0.35)" stroke="none"/>
<path class="shadow-overlay-cell" d="M 334.4 74.66666666666666 L 360.8 74.66666666666666 L 360.8 74.66666666666666 L 334.4 74.66666666666666 Z" fill="rgba(100,116,139,0.35)" stroke="none"/>
<path class="shadow-overlay-cell" d="M 360.8 74.66666666666666 L 387.2 74.66666666666666 L 387.2 74.66666666666666 L 360.8 74.66666666666666 Z" fill="rgba(100,116,139,0.35)" stroke="none"/>
<path class="shadow-overlay-cell" d="M 387.2 74.66666666666666 L 413.6 74.66666666666666 L 413.6 74.66666666666666 L 387.2 74.66666666666666 Z" fill="rgba(100,116,139,0.35)" stroke="none"/>
<path class="shadow-overlay-cell" d="M 413.6 74.66666666666666 L 440 74.66666666666666 L 440 74.66666666666666 L 413.6 74.66666666666666 Z" fill="rgba(100,116,139,0.35)" stroke="none"/>
<path class="shadow-overlay-cell" d="M 440 74.66666666666666 L 466.4 74.66666666666666 L 466.4 74.66666666666666 L 440 74.66666666666666 Z" fill="rgba(100,116,139,0.35)" stroke="none"/>
<path class="shadow-overlay-cell" d="M 44 121.33333333333331 L 70.4 121.33333333333331 L 70.4 121.33333333333331 L 44 121.33333333333331 Z" fill="rgba(100,116,139,0.35)" stroke="none"/>
<path class="shadow-overlay-cell" d="M 70.4 121.33333333333331 L 96.8 121.33333333333331 L 96.8 121.33333333333331 L 70.4 121.33333333333331 Z" fill="rgba(100,116,139,0.35)" stroke="none"/>
<path class="shadow-overlay-cell" d="M 96.8 121.33333333333331 L 123.2 121.33333333333331 L 123.2 119.27802510060083 L 96.8 119.27802510060083 Z" fill="rgba(100,116,139,0.35)" stroke="none"/>
<path class="shadow-overlay-cell" d="M 123.2 121.33333333333331 L 149.6 121.33333333333331 L 149.6 114.35267884255589 L 123.2 114.35267884255589 Z" fill="rgba(100,116,139,0.35)" stroke="none"/>
<path class="shadow-overlay-cell" d="M 149.6 121.33333333333331 L 176 121.33333333333331 L 176 110.49999182230579 L 149.6 110.49999182230579 Z" fill="rgba(100,116,139,0.35)" stroke="none"/>
<path class="shadow-overlay-cell" d="M 176 121.33333333333331 L 202.4 121.33333333333331 L 202.4 108.02612519482844 L 176 108.02612519482844 Z" fill="rgba(100,116,139,0.35)" stroke="none"/>
<path class="shadow-overlay-cell" d="M 228.8 121.33333333333331 L 255.2 121.33333333333331 L 255.2 108.04729303373301 L 228.8 108.04729303373301 Z" fill="rgba(100,116,139,0.35)" stroke="none"/>
<path class="shadow-overlay-cell" d="M 255.2 121.33333333333331 L 281.6 121.33333333333331 L 281.6 110.53980167011417 L 255.2 110.53980167011417 Z" fill="rgba(100,116,139,0.35)" stroke="none"/>
<path class="shadow-overlay-cell" d="M 281.6 121.33333333333331 L 308 121.33333333333331 L 308 114.40706960571296 L 281.6 114.40706960571296 Z" fill="rgba(100,116,139,0.35)" stroke="none"/>
<path class="shadow-overlay-cell" d="M 308 121.33333333333331 L 334.4 121.33333333333331 L 334.4 119.34248538649604 L 308 119.34248538649604 Z" fill="rgba(100,116,139,0.35)" stroke="none"/>
<path class="shadow-overlay-cell" d="M 334.4 121.33333333333331 L 360.8 121.33333333333331 L 360.8 121.33333333333331 L 334.4 121.33333333333331 Z" fill="rgba(100,116,139,0.35)" stroke="none"/>
<path class="shadow-overlay-cell" d="M 360.8 121.33333333333331 L 387.2 121.33333333333331 L 387.2 121.33333333333331 L 360.8 121.33333333333331 Z" fill="rgba(100,116,139,0.35)" stroke="none"/>
<path class="shadow-overlay-cell" d="M 387.2 121.33333333333331 L 413.6 121.33333333333331 L 413.6 121.33333333333331 L 387.2 121.33333333333331 Z" fill="rgba(100,116,139,0.35)" stroke="none"/>
<path class="shadow-overlay-cell" d="M 413.6 121.33333333333331 L 440 121.33333333333331 L 440 121.33333333333331 L 413.6 121.33333333333331 Z" fill="rgba(100,116,139,0.35)" stroke="none"/>
<path class="shadow-overlay-cell" d="M 440 121.33333333333331 L 466.4 121.33333333333331 L 466.4 121.33333333333331 L 440 121.33333333333331 Z" fill="rgba(100,116,139,0.35)" stroke="none"/>
<path class="shadow-overlay-cell" d="M 44 168 L 70.4 168 L 70.4 168 L 44 168 Z" fill="rgba(100,116,139,0.35)" stroke="none"/>
<path class="shadow-overlay-cell" d="M 70.4 168 L 96.8 168 L 96.8 166.9721671277959 L 70.4 166.9721671277959 Z" fill="rgba(100,116,139,0.35)" stroke="none"/>
<path class="shadow-overlay-cell" d="M 96.8 168 L 123.2 168 L 123.2 160.9847542563589 L 96.8 160.9847542563589 Z" fill="rgba(100,116,139,0.35)" stroke="none"/>
<path class="shadow-overlay-cell" d="M 123.2 168 L 149.6 168 L 149.6 155.7121546883956 L 123.2 155.7121546883956 Z" fill="rgba(100,116,139,0.35)" stroke="none"/>
<path class="shadow-overlay-cell" d="M 281.6 168 L 308 168 L 308 155.83276559960353 L 281.6 155.83276559960353 Z" fill="rgba(100,116,139,0.35)" stroke="none"/>
<path class="shadow-overlay-cell" d="M 308 168 L 334.4 168 L 334.4 161.12401692075485 L 308 161.12401692075485 Z" fill="rgba(100,116,139,0.35)" stroke="none"/>
<path class="shadow-overlay-cell" d="M 334.4 168 L 360.8 168 L 360.8 167.11948350832984 L 334.4 167.11948350832984 Z" fill="rgba(100,116,139,0.35)" stroke="none"/>
<path class="shadow-overlay-cell" d="M 360.8 168 L 387.2 168 L 387.2 168 L 360.8 168 Z" fill="rgba(100,116,139,0.35)" stroke="none"/>
<path class="shadow-overlay-cell" d="M 387.2 168 L 413.6 168 L 413.6 168 L 387.2 168 Z" fill="rgba(100,116,139,0.35)" stroke="none"/>
<path class="shadow-overlay-cell" d="M 413.6 168 L 440 168 L 440 168 L 413.6 168 Z" fill="rgba(100,116,139,0.35)" stroke="none"/>
<path class="shadow-overlay-cell" d="M 440 168 L 466.4 168 L 466.4 168 L 440 168 Z" fill="rgba(100,116,139,0.35)" stroke="none"/>
<path class="shadow-overlay-cell" d="M 44 214.66666666666666 L 70.4 214.66666666666666 L 70.4 213.93634425776503 L 44 213.93634425776503 Z" fill="rgba(100,116,139,0.35)" stroke="none"/>
<path class="shadow-overlay-cell" d="M 70.4 214.66666666666666 L 96.8 214.66666666666666 L 96.8 207.41485948926316 L 70.4 207.41485948926316 Z" fill="rgba(100,116,139,0.35)" stroke="none"/>
<path class="shadow-overlay-cell" d="M 308 214.66666666666666 L 334.4 214.66666666666666 L 334.4 202.85100985490644 L 308 202.85100985490644 Z" fill="rgba(100,116,139,0.35)" stroke="none"/>
<path class="shadow-overlay-cell" d="M 334.4 214.66666666666666 L 360.8 214.66666666666666 L 360.8 209.1637399521517 L 334.4 209.1637399521517 Z" fill="rgba(100,116,139,0.35)" stroke="none"/>
<path class="shadow-overlay-cell" d="M 360.8 214.66666666666666 L 387.2 214.66666666666666 L 387.2 214.66666666666666 L 360.8 214.66666666666666 Z" fill="rgba(100,116,139,0.35)" stroke="none"/>
<path class="shadow-overlay-cell" d="M 387.2 214.66666666666666 L 413.6 214.66666666666666 L 413.6 214.66666666666666 L 387.2 214.66666666666666 Z" fill="rgba(100,116,139,0.35)" stroke="none"/>
<path class="shadow-overlay-cell" d="M 413.6 214.66666666666666 L 440 214.66666666666666 L 440 214.66666666666666 L 413.6 214.66666666666666 Z" fill="rgba(100,116,139,0.35)" stroke="none"/>
<path class="shadow-overlay-cell" d="M 440 214.66666666666666 L 466.4 214.66666666666666 L 466.4 214.66666666666666 L 440 214.66666666666666 Z" fill="rgba(100,116,139,0.35)" stroke="none"/>
<path class="shadow-overlay-cell" d="M 44 261.3333333333333 L 70.4 261.3333333333333 L 70.4 260.2582650060538 L 44 260.2582650060538 Z" fill="rgba(100,116,139,0.35)" stroke="none"/>
<path class="shadow-overlay-cell" d="M 70.4 261.3333333333333 L 96.8 261.3333333333333 L 96.8 253.77779688787035 L 70.4 253.77779688787035 Z" fill="rgba(100,116,139,0.35)" stroke="none"/>
<path class="shadow-overlay-cell" d="M 360.8 261.3333333333333 L 387.2 261.3333333333333 L 387.2 250.92936764332515 L 360.8 250.92936764332515 Z" fill="rgba(100,116,139,0.35)" stroke="none"/>
<path class="shadow-overlay-cell" d="M 387.2 261.3333333333333 L 413.6 261.3333333333333 L 413.6 257.4643368455672 L 387.2 257.4643368455672 Z" fill="rgba(100,116,139,0.35)" stroke="none"/>
<path class="shadow-overlay-cell" d="M 413.6 261.3333333333333 L 440 261.3333333333333 L 440 261.3333333333333 L 413.6 261.3333333333333 Z" fill="rgba(100,116,139,0.35)" stroke="none"/>
<path class="shadow-overlay-cell" d="M 440 261.3333333333333 L 466.4 261.3333333333333 L 466.4 261.3333333333333 L 440 261.3333333333333 Z" fill="rgba(100,116,139,0.35)" stroke="none"/>
<path class="shadow-overlay-cell" d="M 44 308 L 70.4 308 L 70.4 301.5523685180853 L 44 301.5523685180853 Z" fill="rgba(100,116,139,0.35)" stroke="none"/>
<path class="shadow-overlay-cell" d="M 70.4 308 L 96.8 308 L 96.8 295.3591407856819 L 70.4 295.3591407856819 Z" fill="rgba(100,116,139,0.35)" stroke="none"/>
<path class="shadow-overlay-cell" d="M 387.2 308 L 413.6 308 L 413.6 297.375715589706 L 387.2 297.375715589706 Z" fill="rgba(100,116,139,0.35)" stroke="none"/>
<path class="shadow-overlay-cell" d="M 413.6 308 L 440 308 L 440 303.4302676342467 L 413.6 303.4302676342467 Z" fill="rgba(100,116,139,0.35)" stroke="none"/>
<path class="shadow-overlay-cell" d="M 440 308 L 466.4 308 L 466.4 308 L 440 308 Z" fill="rgba(100,116,139,0.35)" stroke="none"/>
</g>
</svg>