<svg viewBox="0 0 520 340" class="horizon-cartesian-chart" preserveAspectRatio="xMidYMid meet">
<rect width="520" height="340" fill="#ffffff"/>
<g id="visibility-surface-layer">
<path class="vis-cell" d="M 116.80126781403861 191.19193035219735 L 133.13144962505123 191.19193035219735 L 133.13144962505123 231.24407188294393 L 116.80126781403861 231.24407188294393 Z" fill="rgba(100,116,139,0.22)" stroke="none"/>
<path class="vis-cell" d="M 133.13144962505123 191.19193035219735 L 150.5687484171317 191.19193035219735 L 150.5687484171317 231.24407188294393 L 133.13144962505123 231.24407188294393 Z" fill="rgba(100,116,139,0.22)" stroke="none"/>
<path class="vis-cell" d="M 150.5687484171317 191.19193035219735 L 170.12202373193531 191.19193035219735 L 170.12202373193531 231.24407188294393 L 150.5687484171317 231.24407188294393 Z" fill="rgba(100,116,139,0.22)" stroke="none"/>
<path class="vis-cell" d="M 320.7966930622158 191.19193035219735 L 339.68223836671626 191.19193035219735 L 339.68223836671626 231.24407188294393 L 320.7966930622158 231.24407188294393 Z" fill="rgba(100,116,139,0.22)" stroke="none"/>
<path class="vis-cell" d="M 339.68223836671626 191.19193035219735 L 356.73646792339963 191.19193035219735 L 356.73646792339963 231.24407188294393 L 339.68223836671626 231.24407188294393 Z" fill="rgba(100,116,139,0.22)" stroke="none"/>
<path class="vis-cell" d="M 356.73646792339963 191.19193035219735 L 372.9627505484974 191.19193035219735 L 372.9627505484974 231.24407188294393 L 356.73646792339963 231.24407188294393 Z" fill="rgba(100,116,139,0.22)" stroke="none"/>
<path class="vis-cell" d="M 372.9627505484974 191.19193035219735 L 389.3290873161241 191.19193035219735 L 389.3290873161241 231.24407188294393 L 372.9627505484974 231.24407188294393 Z" fill="rgba(100,116,139,0.22)" stroke="none"/>
<path class="vis-cell" d="M 389.3290873161241 191.19193035219735 L 406.81498720067503 191.19193035219735 L 406.81498720067503 231.24407188294393 L 389.3290873161241 231.24407188294393 Z" fill="rgba(100,116,139,0.22)" stroke="none"/>
<path class="vis-cell" d="M 406.81498720067503 191.19193035219735 L 426.4409473765408 191.19193035219735 L 426.4409473765408 231.24407188294393 L 406.81498720067503 231.24407188294393 Z" fill="rgba(100,116,139,0.22)" stroke="none"/>
<path class="vis-cell" d="M 116.80126781403861 151.4946175344035 L 133.13144962505123 151.4946175344035 L 133.13144962505123 191.19193035219735 L 116.80126781403861 191.19193035219735 Z" fill="rgba(100,116,139,0.22)" stroke="none"/>
<path class="vis-cell" d="M 133.13144962505123 151.4946175344035 L 150.5687484171317 151.4946175344035 L 150.5687484171317 191.19193035219735 L 133.13144962505123 191.19193035219735 Z" fill="rgba(100,116,139,0.22)" stroke="none"/>
<path class="vis-cell" d="M 339.68223836671626 151.4946175344035 L 356.73646792339963 151.4946175344035 L 356.73646792339963 191.19193035219735 L 339.68223836671626 191.19193035219735 Z" fill="rgba(100,116,139,0.22)" stroke="none"/>
<path class="vis-cell" d="M 356.73646792339963 151.4946175344035 L 372.9627505484974 151.4946175344035 L 372.9627505484974 191.19193035219735 L 356.73646792339963 191.19193035219735 Z" fill="rgba(100,116,139,0.22)" stroke="none"/>
<path class="vis-cell" d="M 372.9627505484974 151.4946175344035 L 389.3290873161241 151.4946175344035 L 389.3290873161241 191.19193035219735 L 372.9627505484974 191.19193035219735 Z" fill="rgba(100,116,139,0.22)" stroke="none"/>
<path class="vis-cell" d="M 389.3290873161241 151.4946175344035 L 406.81498720067503 151.4946175344035 L 406.81498720067503 191.19193035219735 L 389.3290873161241 191.19193035219735 Z" fill="rgba(100,116,139,0.22)" stroke="none"/>
<path class="vis-cell" d="M 406.81498720067503 151.4946175344035 L 426.4409473765408 151.4946175344035 L 426.4409473765408 191.19193035219735 L 406.81498720067503 191.19193035219735 Z" fill="rgba(100,116,139,0.22)" stroke="none"/>
<path class="vis-cell" d="M 116.80126781403861 105.54565190137916 L 133.13144962505123 105.54565190137916 L 133.13144962505123 151.4946175344035 L 116.80126781403861 151.4946175344035 Z" fill="rgba(100,116,139,0.22)" stroke="none"/>
<path class="vis-cell" d="M 133.13144962505123 105.54565190137916 L 150.5687484171317 105.54565190137916 L 150.5687484171317 151.4946175344035 L 133.13144962505123 151.4946175344035 Z" fill="rgba(100,116,139,0.22)" stroke="none"/>
<path class="vis-cell" d="M 372.9627505484974 105.54565190137916 L 389.3290873161241 105.54565190137916 L 389.3290873161241 151.4946175344035 L 372.9627505484974 151.4946175344035 Z" fill="rgba(100,116,139,0.22)" stroke="none"/>
<path class="vis-cell" d="M 389.3290873161241 105.54565190137916 L 406.81498720067503 105.54565190137916 L 406.81498720067503 151.4946175344035 L 389.3290873161241 151.4946175344035 Z" fill="rgba(100,116,139,0.22)" stroke="none"/>
<path class="vis-cell" d="M 406.81498720067503 105.54565190137916 L 426.4409473765408 105.54565190137916 L 426.4409473765408 151.4946175344035 L 406.81498720067503 151.4946175344035 Z" fill="rgba(100,116,139,0.22)" stroke="none"/>
<path class="vis-cell" d="M 116.80126781403861 30 L 133.13144962505123 30 L 133.13144962505123 105.54565190137916 L 116.80126781403861 105.54565190137916 Z" fill="rgba(100,116,139,0.22)" stroke="none"/>
<path class="vis-cell" d="M 389.3290873161241 30 L 406.81498720067503 30 L 406.81498720067503 105.54565190137916 L 389.3290873161241 105.54565190137916 Z" fill="rgba(100,116,139,0.22)" stroke="none"/>
<path class="vis-cell" d="M 406.81498720067503 30 L 426.4409473765408 30 L 426.4409473765408 105.54565190137916 L 406.81498720067503 105.54565190137916 Z" fill="rgba(100,116,139,0.22)" stroke="none"/>
</g>
<g id="horizon-fill-layer">
<path class="horizon-fill" d="M 50 222.85714285714286 L 50.71296296296296 222.85714285714286 L 51.425925925925924 222.85714285714286 L 52.138888888888886 222.85714285714286 L 52.851851851851855 222.85714285714286 L 53.56481481481482 222.85714285714286 L 54.27777777777778 222.85714285714286 L 54.99074074074074 222.85714285714286 L 55.7037037037037 222.85714285714286 L 56.416666666666664 222.85714285714286 L 57.129629629629626 222.85714285714286 L 57.842592592592595 222.85714285714286 L 58.55555555555556 222.85714285714286 L 59.26851851851852 222.85714285714286 L 59.98148148148148 222.85714285714286 L 60.69444444444444 222.85714285714286 L 61.407407407407405 222.85714285714286 L 62.12037037037037 222.85714285714286 L 62.833333333333336 222.85714285714286 L 63.5462962962963 222.85714285714286 L 64.25925925925925 222.85714285714286 L 64.97222222222223 222.85714285714286 L 65.68518518518519 222.85714285714286 L 66.39814814814815 222.85714285714286 L 67.11111111111111 222.85714285714286 L 67.82407407407408 222.85714285714286 L 68.53703703703704 222.85714285714286 L 69.25 222.85714285714286 L 69.96296296296296 222.85714285714286 L 70.67592592592592 222.85714285714286 L 71.38888888888889 222.85714285714286 L 72.10185185185185 222.85714285714286 L 72.81481481481481 222.85714285714286 L 73.52777777777777 222.85714285714286 L 74.24074074074073 222.85714285714286 L 74.9537037037037 222.85714285714286 L 75.66666666666667 222.85714285714286 L 76.37962962962963 222.85714285714286 L 77.0925925925926 222.85714285714286 L 77.80555555555556 222.85714285714286 L 78.51851851851852 222.85714285714286 L 79.23148148148148 222.85714285714286 L 79.94444444444444 222.85714285714286 L 80.6574074074074 222.85714285714286 L 81.37037037037038 222.85714285714286 L 82.08333333333333 222.85714285714286 L 82.7962962962963 222.85714285714286 L 83.50925925925927 222.85714285714286 L 84.22222222222223 222.85714285714286 L 84.93518518518519 222.85714285714286 L 85.64814814814815 222.85714285714286 L 86.36111111111111 222.85714285714286 L 87.07407407407408 222.85714285714286 L 87.78703703703704 222.85714285714286 L 88.5 222.85714285714286 L 89.21296296296296 222.85714285714286 L 89.92592592592592 222.85714285714286 L 90.63888888888889 222.85714285714286 L 91.35185185185185 222.85714285714286 L 92.06481481481481 222.85714285714286 L 92.77777777777777 222.85714285714286 L 93.49074074074073 222.85714285714286 L 94.2037037037037 222.85714285714286 L 94.91666666666666 222.85714285714286 L 95.62962962962963 222.85714285714286 L 96.34259259259258 222.85714285714286 L 97.05555555555556 222.85714285714286 L 97.76851851851852 222.85714285714286 L 98.48148148148147 222.85714285714286 L 99.19444444444444 222.85714285714286 L 99.9074074074074 222.85714285714286 L 100.62037037037037 222.85714285714286 L 101.33333333333334 222.85714285714286 L 102.0462962962963 222.85714285714286 L 102.75925925925927 222.85714285714286 L 103.47222222222223 222.85714285714286 L 104.18518518518519 222.85714285714286 L 104.89814814814815 222.85714285714286 L 105.61111111111111 222.85714285714286 L 106.32407407407408 222.85714285714286 L 107.03703703703704 222.85714285714286 L 107.75 222.85714285714286 L 108.46296296296296 222.85714285714286 L 109.17592592592592 222.85714285714286 L 109.88888888888889 222.85714285714286 L 110.60185185185185 222.85714285714286 L 111.31481481481481 222.85714285714286 L 112.02777777777777 222.85714285714286 L 112.74074074074075 222.85714285714286 L 113.4537037037037 222.85714285714286 L 114.16666666666666 222.85714285714286 L 114.87962962962963 222.85714285714286 L 115.5925925925926 222.85714285714286 L 116.30555555555556 222.85714285714286 L 117.01851851851852 222.85714285714286 L 117.73148148148148 222.85714285714286 L 118.44444444444444 222.85714285714286 L 119.1574074074074 222.85714285714286 L 119.87037037037038 222.85714285714286 L 120.58333333333333 222.85714285714286 L 121.29629629629629 222.85714285714286 L 122.00925925925925 222.85714285714286 L 122.72222222222221 222.85714285714286 L 123.43518518518519 222.85714285714286 L 124.14814814814815 222.85714285714286 L 124.86111111111111 222.85714285714286 L 125.57407407407408 222.85714285714286 L 126.28703703703704 222.85714285714286 L 127 222.85714285714286 L 127.71296296296296 222.85714285714286 L 128.42592592592592 222.85714285714286 L 129.13888888888889 222.85714285714286 L 129.85185185185185 222.85714285714286 L 130.5648148148148 222.85714285714286 L 131.27777777777777 222.85714285714286 L 131.99074074074076 222.85714285714286 L 132.7037037037037 222.85714285714286 L 133.41666666666669 222.85714285714286 L 134.12962962962962 222.85714285714286 L 134.8425925925926 222.85714285714286 L 135.55555555555554 222.85714285714286 L 136.26851851851853 222.85714285714286 L 136.98148148148147 222.85714285714286 L 137.69444444444446 222.85714285714286 L 138.4074074074074 222.85714285714286 L 139.12037037037038 222.85714285714286 L 139.83333333333331 222.85714285714286 L 140.5462962962963 222.85714285714286 L 141.25925925925927 222.85714285714286 L 141.97222222222223 222.85714285714286 L 142.68518518518516 222.85714285714286 L 143.39814814814815 222.85714285714286 L 144.11111111111111 222.85714285714286 L 144.82407407407408 222.85714285714286 L 145.53703703703704 222.85714285714286 L 146.25 222.85714285714286 L 146.96296296296293 222.85714285714286 L 147.67592592592592 222.85714285714286 L 148.38888888888889 222.85714285714286 L 149.10185185185185 222.85714285714286 L 149.8148148148148 222.85714285714286 L 150.52777777777777 222.85714285714286 L 151.24074074074073 222.85714285714286 L 151.9537037037037 222.85714285714286 L 152.66666666666669 222.85714285714286 L 153.37962962962962 222.85714285714286 L 154.0925925925926 222.85714285714286 L 154.80555555555554 222.85714285714286 L 155.51851851851853 222.85714285714286 L 156.23148148148147 222.85714285714286 L 156.94444444444446 222.85714285714286 L 157.6574074074074 222.85714285714286 L 158.37037037037038 222.85714285714286 L 159.08333333333331 222.85714285714286 L 159.7962962962963 222.85714285714286 L 160.50925925925924 222.85714285714286 L 161.22222222222223 222.85714285714286 L 161.9351851851852 222.85714285714286 L 162.64814814814815 222.85714285714286 L 163.36111111111111 222.85714285714286 L 164.07407407407408 222.85714285714286 L 164.78703703703704 222.85714285714286 L 165.5 222.85714285714286 L 166.212962962963 222.85714285714286 L 166.92592592592592 222.85714285714286 L 167.6388888888889 222.85714285714286 L 168.35185185185185 222.85714285714286 L 169.0648148148148 222.85714285714286 L 169.77777777777777 222.85714285714286 L 170.49074074074073 222.85714285714286 L 171.2037037037037 222.85714285714286 L 171.91666666666666 222.85714285714286 L 172.62962962962962 222.85714285714286 L 173.3425925925926 222.85714285714286 L 174.05555555555554 222.85714285714286 L 174.76851851851853 222.85714285714286 L 175.4814814814815 222.85714285714286 L 176.19444444444446 222.85714285714286 L 176.9074074074074 222.85714285714286 L 177.62037037037038 222.85714285714286 L 178.33333333333331 222.85714285714286 L 179.0462962962963 222.85714285714286 L 179.75925925925927 222.85714285714286 L 180.47222222222223 222.85714285714286 L 181.1851851851852 222.85714285714286 L 181.89814814814815 222.85714285714286 L 182.61111111111111 222.85714285714286 L 183.32407407407408 222.85714285714286 L 184.03703703703704 222.85714285714286 L 184.75 222.85714285714286 L 185.46296296296296 222.85714285714286 L 186.17592592592592 222.85714285714286 L 186.88888888888889 222.85714285714286 L 187.60185185185185 222.85714285714286 L 188.3148148148148 222.85714285714286 L 189.02777777777777 222.85714285714286 L 189.74074074074076 222.85714285714286 L 190.4537037037037 222.85714285714286 L 191.16666666666666 222.85714285714286 L 191.87962962962962 222.85714285714286 L 192.59259259259258 222.85714285714286 L 193.30555555555557 222.85714285714286 L 194.0185185185185 222.85714285714286 L 194.7314814814815 222.85714285714286 L 195.44444444444443 222.85714285714286 L 196.15740740740742 222.85714285714286 L 196.87037037037038 222.85714285714286 L 197.58333333333334 222.85714285714286 L 198.2962962962963 222.85714285714286 L 199.00925925925924 222.85714285714286 L 199.72222222222223 222.85714285714286 L 200.4351851851852 222.85714285714286 L 201.14814814814815 222.85714285714286 L 201.86111111111111 222.85714285714286 L 202.57407407407408 222.85714285714286 L 203.28703703703704 222.85714285714286 L 204 222.85714285714286 L 204.71296296296296 222.85714285714286 L 205.42592592592592 222.85714285714286 L 206.13888888888889 222.85714285714286 L 206.85185185185185 222.85714285714286 L 207.5648148148148 222.85714285714286 L 208.27777777777777 222.85714285714286 L 208.99074074074073 222.85714285714286 L 209.7037037037037 222.85714285714286 L 210.41666666666669 222.85714285714286 L 211.12962962962962 222.85714285714286 L 211.8425925925926 222.85714285714286 L 212.55555555555554 222.85714285714286 L 213.2685185185185 222.85714285714286 L 213.9814814814815 222.85714285714286 L 214.69444444444443 222.85714285714286 L 215.40740740740742 222.85714285714286 L 216.12037037037035 222.85714285714286 L 216.83333333333334 222.85714285714286 L 217.5462962962963 222.85714285714286 L 218.25925925925927 222.85714285714286 L 218.97222222222223 222.85714285714286 L 219.6851851851852 222.85714285714286 L 220.39814814814815 222.85714285714286 L 221.11111111111111 222.85714285714286 L 221.82407407407408 222.85714285714286 L 222.53703703703704 222.85714285714286 L 223.25 222.85714285714286 L 223.96296296296296 222.85714285714286 L 224.67592592592592 222.85714285714286 L 225.38888888888889 222.85714285714286 L 226.10185185185185 222.85714285714286 L 226.8148148148148 222.85714285714286 L 227.5277777777778 222.85714285714286 L 228.24074074074073 222.85714285714286 L 228.9537037037037 222.85714285714286 L 229.66666666666666 222.85714285714286 L 230.37962962962962 222.85714285714286 L 231.0925925925926 222.85714285714286 L 231.80555555555554 222.85714285714286 L 232.51851851851853 222.85714285714286 L 233.23148148148147 222.85714285714286 L 233.94444444444446 222.85714285714286 L 234.65740740740742 222.85714285714286 L 235.37037037037035 222.85714285714286 L 236.08333333333334 222.85714285714286 L 236.79629629629628 222.85714285714286 L 237.50925925925927 222.85714285714286 L 238.22222222222223 222.85714285714286 L 238.9351851851852 222.85714285714286 L 239.64814814814815 222.85714285714286 L 240.36111111111111 222.85714285714286 L 241.07407407407408 222.85714285714286 L 241.78703703703704 222.85714285714286 L 242.5 222.85714285714286 L 243.21296296296296 222.85714285714286 L 243.9259259259259 222.85714285714286 L 244.63888888888889 222.85714285714286 L 245.35185185185185 222.85714285714286 L 246.06481481481484 222.85714285714286 L 246.77777777777777 222.85714285714286 L 247.49074074074073 222.85714285714286 L 248.20370370370372 222.85714285714286 L 248.91666666666669 222.85714285714286 L 249.62962962962962 222.85714285714286 L 250.34259259259258 222.85714285714286 L 251.05555555555557 222.85714285714286 L 251.7685185185185 222.85714285714286 L 252.48148148148147 222.85714285714286 L 253.19444444444446 222.85714285714286 L 253.90740740740742 222.85714285714286 L 254.62037037037035 222.85714285714286 L 255.33333333333334 222.85714285714286 L 256.0462962962963 222.85714285714286 L 256.75925925925924 222.85714285714286 L 257.4722222222222 222.85714285714286 L 258.1851851851852 222.85714285714286 L 258.89814814814815 222.85714285714286 L 259.6111111111111 222.85714285714286 L 260.3240740740741 222.85714285714286 L 261.03703703703707 222.85714285714286 L 261.75 222.85714285714286 L 262.46296296296293 222.85714285714286 L 263.1759259259259 222.85714285714286 L 263.8888888888889 222.85714285714286 L 264.60185185185185 222.85714285714286 L 265.3148148148148 222.85714285714286 L 266.02777777777777 222.85714285714286 L 266.74074074074076 222.85714285714286 L 267.4537037037037 222.85714285714286 L 268.16666666666663 222.85714285714286 L 268.8796296296297 222.85714285714286 L 269.5925925925926 222.85714285714286 L 270.30555555555554 222.85714285714286 L 271.0185185185185 222.85714285714286 L 271.7314814814815 222.85714285714286 L 272.44444444444446 222.85714285714286 L 273.1574074074074 222.85714285714286 L 273.8703703703704 222.85714285714286 L 274.58333333333337 222.85714285714286 L 275.2962962962963 222.85714285714286 L 276.00925925925924 222.85714285714286 L 276.72222222222223 222.85714285714286 L 277.4351851851852 222.85714285714286 L 278.14814814814815 222.85714285714286 L 278.8611111111111 222.85714285714286 L 279.5740740740741 222.85714285714286 L 280.287037037037 222.85714285714286 L 281 222.85714285714286 L 281.71296296296293 222.85714285714286 L 282.425925925926 222.85714285714286 L 283.1388888888889 222.85714285714286 L 283.85185185185185 222.85714285714286 L 284.5648148148148 222.85714285714286 L 285.2777777777778 222.85714285714286 L 285.99074074074076 222.85714285714286 L 286.7037037037037 222.85714285714286 L 287.4166666666667 222.85714285714286 L 288.1296296296296 222.85714285714286 L 288.8425925925926 222.85714285714286 L 289.55555555555554 222.85714285714286 L 290.26851851851853 222.85714285714286 L 290.98148148148147 222.85714285714286 L 291.69444444444446 222.85714285714286 L 292.4074074074074 222.85714285714286 L 293.1203703703704 222.85714285714286 L 293.8333333333333 222.85714285714286 L 294.5462962962963 222.85714285714286 L 295.25925925925924 222.85714285714286 L 295.9722222222222 222.85714285714286 L 296.6851851851852 222.85714285714286 L 297.39814814814815 222.85714285714286 L 298.1111111111111 222.85714285714286 L 298.824074074074 222.85714285714286 L 299.53703703703707 222.85714285714286 L 300.25 222.85714285714286 L 300.962962962963 222.85714285714286 L 301.6759259259259 222.85714285714286 L 302.3888888888889 222.85714285714286 L 303.10185185185185 222.85714285714286 L 303.8148148148148 222.85714285714286 L 304.52777777777777 222.85714285714286 L 305.24074074074076 222.85714285714286 L 305.9537037037037 222.85714285714286 L 306.66666666666663 222.85714285714286 L 307.3796296296296 222.85714285714286 L 308.0925925925926 222.85714285714286 L 308.8055555555556 222.85714285714286 L 309.51851851851853 222.85714285714286 L 310.23148148148147 222.85714285714286 L 310.94444444444446 222.85714285714286 L 311.6574074074074 222.85714285714286 L 312.3703703703704 222.85714285714286 L 313.0833333333333 222.85714285714286 L 313.7962962962963 222.85714285714286 L 314.50925925925924 222.85714285714286 L 315.22222222222223 222.85714285714286 L 315.9351851851852 222.85714285714286 L 316.64814814814815 222.85714285714286 L 317.3611111111111 222.85714285714286 L 318.0740740740741 222.85714285714286 L 318.78703703703707 222.85714285714286 L 319.5 222.85714285714286 L 320.21296296296293 222.85714285714286 L 320.9259259259259 222.85714285714286 L 321.6388888888889 222.85714285714286 L 322.35185185185185 222.85714285714286 L 323.06481481481484 222.85714285714286 L 323.77777777777777 222.85714285714286 L 324.4907407407407 222.85714285714286 L 325.2037037037037 222.85714285714286 L 325.9166666666667 222.85714285714286 L 326.6296296296296 222.85714285714286 L 327.34259259259255 222.85714285714286 L 328.05555555555554 222.85714285714286 L 328.76851851851853 222.85714285714286 L 329.4814814814815 222.85714285714286 L 330.19444444444446 222.85714285714286 L 330.9074074074074 222.85714285714286 L 331.6203703703704 222.85714285714286 L 332.3333333333333 222.85714285714286 L 333.0462962962963 222.85714285714286 L 333.75925925925924 222.85714285714286 L 334.47222222222223 222.85714285714286 L 335.18518518518516 222.85714285714286 L 335.89814814814815 222.85714285714286 L 336.61111111111114 222.85714285714286 L 337.3240740740741 222.85714285714286 L 338.037037037037 222.85714285714286 L 338.75 222.85714285714286 L 339.462962962963 222.85714285714286 L 340.1759259259259 222.85714285714286 L 340.88888888888886 222.85714285714286 L 341.60185185185185 222.85714285714286 L 342.31481481481484 222.85714285714286 L 343.02777777777777 222.85714285714286 L 343.74074074074076 222.85714285714286 L 344.4537037037037 222.85714285714286 L 345.1666666666667 222.85714285714286 L 345.8796296296296 222.85714285714286 L 346.5925925925926 222.85714285714286 L 347.30555555555554 222.85714285714286 L 348.0185185185185 222.85714285714286 L 348.73148148148147 222.85714285714286 L 349.44444444444446 222.85714285714286 L 350.15740740740745 222.85714285714286 L 350.8703703703704 222.85714285714286 L 351.5833333333333 222.85714285714286 L 352.2962962962963 222.85714285714286 L 353.0092592592593 222.85714285714286 L 353.72222222222223 222.85714285714286 L 354.43518518518516 222.85714285714286 L 355.14814814814815 222.85714285714286 L 355.8611111111111 222.85714285714286 L 356.5740740740741 222.85714285714286 L 357.28703703703707 222.85714285714286 L 358 222.85714285714286 L 358.71296296296293 222.85714285714286 L 359.4259259259259 222.85714285714286 L 360.1388888888889 222.85714285714286 L 360.85185185185185 222.85714285714286 L 361.5648148148148 222.85714285714286 L 362.27777777777777 222.85714285714286 L 362.99074074074076 222.85714285714286 L 363.7037037037037 222.85714285714286 L 364.4166666666667 222.85714285714286 L 365.1296296296296 222.85714285714286 L 365.8425925925926 222.85714285714286 L 366.55555555555554 222.85714285714286 L 367.26851851851853 222.85714285714286 L 367.98148148148147 222.85714285714286 L 368.6944444444444 222.85714285714286 L 369.4074074074074 222.85714285714286 L 370.1203703703704 222.85714285714286 L 370.83333333333337 222.85714285714286 L 371.5462962962963 222.85714285714286 L 372.25925925925924 222.85714285714286 L 372.97222222222223 222.85714285714286 L 373.6851851851852 222.85714285714286 L 374.39814814814815 222.85714285714286 L 375.1111111111111 222.85714285714286 L 375.8240740740741 222.85714285714286 L 376.537037037037 222.85714285714286 L 377.25 222.85714285714286 L 377.962962962963 222.85714285714286 L 378.6759259259259 222.85714285714286 L 379.38888888888886 222.85714285714286 L 380.10185185185185 222.85714285714286 L 380.81481481481484 222.85714285714286 L 381.52777777777777 222.85714285714286 L 382.2407407407407 222.85714285714286 L 382.9537037037037 222.85714285714286 L 383.6666666666667 222.85714285714286 L 384.3796296296296 222.85714285714286 L 385.0925925925926 222.85714285714286 L 385.80555555555554 222.85714285714286 L 386.51851851851853 222.85714285714286 L 387.23148148148147 222.85714285714286 L 387.94444444444446 222.85714285714286 L 388.6574074074074 222.85714285714286 L 389.3703703703704 222.85714285714286 L 390.0833333333333 222.85714285714286 L 390.7962962962963 222.85714285714286 L 391.5092592592593 222.85714285714286 L 392.22222222222223 222.85714285714286 L 392.93518518518516 222.85714285714286 L 393.64814814814815 222.85714285714286 L 394.36111111111114 222.85714285714286 L 395.0740740740741 222.85714285714286 L 395.787037037037 222.85714285714286 L 396.5 222.85714285714286 L 397.212962962963 222.85714285714286 L 397.9259259259259 222.85714285714286 L 398.6388888888889 222.85714285714286 L 399.35185185185185 222.85714285714286 L 400.0648148148148 222.85714285714286 L 400.77777777777777 222.85714285714286 L 401.49074074074076 222.85714285714286 L 402.2037037037037 222.85714285714286 L 402.91666666666663 222.85714285714286 L 403.6296296296296 222.85714285714286 L 404.3425925925926 222.85714285714286 L 405.0555555555556 222.85714285714286 L 405.76851851851853 222.85714285714286 L 406.48148148148147 222.85714285714286 L 407.19444444444446 222.85714285714286 L 407.9074074074074 222.85714285714286 L 408.6203703703704 222.85714285714286 L 409.3333333333333 222.85714285714286 L 410.0462962962963 222.85714285714286 L 410.75925925925924 222.85714285714286 L 411.47222222222223 222.85714285714286 L 412.1851851851852 222.85714285714286 L 412.89814814814815 222.85714285714286 L 413.6111111111111 222.85714285714286 L 414.3240740740741 222.85714285714286 L 415.03703703703707 222.85714285714286 L 415.75 222.85714285714286 L 416.46296296296293 222.85714285714286 L 417.1759259259259 222.85714285714286 L 417.8888888888889 222.85714285714286 L 418.60185185185185 222.85714285714286 L 419.31481481481484 222.85714285714286 L 420.02777777777777 222.85714285714286 L 420.7407407407407 222.85714285714286 L 421.4537037037037 222.85714285714286 L 422.1666666666667 222.85714285714286 L 422.8796296296296 222.85714285714286 L 423.59259259259255 222.85714285714286 L 424.30555555555554 222.85714285714286 L 425.01851851851853 222.85714285714286 L 425.7314814814815 222.85714285714286 L 426.44444444444446 222.85714285714286 L 427.1574074074074 222.85714285714286 L 427.8703703703704 222.85714285714286 L 428.5833333333333 222.85714285714286 L 429.2962962962963 222.85714285714286 L 430.00925925925924 222.85714285714286 L 430.72222222222223 222.85714285714286 L 431.43518518518516 222.85714285714286 L 432.14814814814815 222.85714285714286 L 432.86111111111114 222.85714285714286 L 433.5740740740741 222.85714285714286 L 434.287037037037 222.85714285714286 L 435 222.85714285714286 L 435 300 L 50 300 Z" fill="rgba(100,116,139,0.05)" stroke="none"/>
</g>
<g id="grid-horizontal">
<line x1="50" y1="261.42857142857144" x2="435" y2="261.42857142857144" stroke="#e5e7eb" stroke-width="0.5"/>
<line x1="50" y1="222.85714285714286" x2="435" y2="222.85714285714286" stroke="#e5e7eb" stroke-width="0.5"/>
<line x1="50" y1="184.28571428571428" x2="435" y2="184.28571428571428" stroke="#e5e7eb" stroke-width="0.5"/>
<line x1="50" y1="145.71428571428572" x2="435" y2="145.71428571428572" stroke="#e5e7eb" stroke-width="0.5"/>
<line x1="50" y1="107.14285714285714" x2="435" y2="107.14285714285714" stroke="#e5e7eb" stroke-width="0.5"/>
<line x1="50" y1="68.57142857142858" x2="435" y2="68.57142857142858" stroke="#e5e7eb" stroke-width="0.5"/>
</g>
<g id="hour-layer">
<line class="hour-line" data-hour="7" x1="116.80126781403861" y1="30" x2="116.80126781403861" y2="300" stroke="#E5E7EB" stroke-width="0.65" stroke-linecap="round" opacity="0.65"/>
<text x="116.80126781403861" y="26" text-anchor="middle" font-size="9" fill="#6b7280" font-weight="400" opacity="0.85">7h</text>
<line class="hour-line" data-hour="8" x1="133.13144962505123" y1="30" x2="133.13144962505123" y2="300" stroke="#E5E7EB" stroke-width="0.65" stroke-linecap="round" opacity="0.65"/>
<text x="133.13144962505123" y="26" text-anchor="middle" font-size="9" fill="#6b7280" font-weight="400" opacity="0.85">8h</text>
<line class="hour-line" data-hour="9" x1="150.5687484171317" y1="30" x2="150.5687484171317" y2="300" stroke="#E5E7EB" stroke-width="0.65" stroke-linecap="round" opacity="0.65"/>
<text x="150.5687484171317" y="26" text-anchor="middle" font-size="9" fill="#6b7280" font-weight="400" opacity="0.85">9h</text>
<line class="hour-line" data-hour="10" x1="170.12202373193531" y1="30" x2="170.12202373193531" y2="300" stroke="#E5E7EB" stroke-width="0.65" stroke-linecap="round" opacity="0.65"/>
<text x="170.12202373193531" y="26" text-anchor="middle" font-size="9" fill="#6b7280" font-weight="400" opacity="0.85">10h</text>
<line class="hour-line" data-hour="11" x1="192.690830997634" y1="30" x2="192.690830997634" y2="300" stroke="#E5E7EB" stroke-width="0.65" stroke-linecap="round" opacity="0.65"/>
<text x="192.690830997634" y="26" text-anchor="middle" font-size="9" fill="#6b7280" font-weight="400" opacity="0.85">11h</text>
<line class="hour-line" data-hour="12" x1="218.5406424010861" y1="30" x2="218.5406424010861" y2="300" stroke="#E5E7EB" stroke-width="0.65" stroke-linecap="round" opacity="0.65"/>
<text x="218.5406424010861" y="26" text-anchor="middle" font-size="9" fill="#6b7280" font-weight="400" opacity="0.85">12h</text>
<line class="hour-line" data-hour="13" x1="246.5180837348347" y1="30" x2="246.5180837348347" y2="300" stroke="#E5E7EB" stroke-width="0.65" stroke-linecap="round" opacity="0.65"/>
<text x="246.5180837348347" y="26" text-anchor="middle" font-size="9" fill="#6b7280" font-weight="400" opacity="0.85">13h</text>
<line class="hour-line" data-hour="14" x1="274.12284536226144" y1="30" x2="274.12284536226144" y2="300" stroke="#E5E7EB" stroke-width="0.65" stroke-linecap="round" opacity="0.65"/>
<text x="274.12284536226144" y="26" text-anchor="middle" font-size="9" fill="#6b7280" font-weight="400" opacity="0.85">14h</text>
<line class="hour-line" data-hour="15" x1="299.1167000085161" y1="30" x2="299.1167000085161" y2="300" stroke="#E5E7EB" stroke-width="0.65" stroke-linecap="round" opacity="0.65"/>
<text x="299.1167000085161" y="26" text-anchor="middle" font-size="9" fill="#6b7280" font-weight="400" opacity="0.85">15h</text>
<line class="hour-line" data-hour="16" x1="320.7966930622158" y1="30" x2="320.7966930622158" y2="300" stroke="#E5E7EB" stroke-width="0.65" stroke-linecap="round" opacity="0.65"/>
<text x="320.7966930622158" y="26" text-anchor="middle" font-size="9" fill="#6b7280" font-weight="400" opacity="0.85">16h</text>
<line class="hour-line" data-hour="17" x1="339.68223836671626" y1="30" x2="339.68223836671626" y2="300" stroke="#E5E7EB" stroke-width="0.65" stroke-linecap="round" opacity="0.65"/>
<text x="339.68223836671626" y="26" text-anchor="middle" font-size="9" fill="#6b7280" font-weight="400" opacity="0.85">17h</text>
<line class="hour-line" data-hour="18" x1="356.73646792339963" y1="30" x2="356.73646792339963" y2="300" stroke="#E5E7EB" stroke-width="0.65" stroke-linecap="round" opacity="0.65"/>
<text x="356.73646792339963" y="26" text-anchor="middle" font-size="9" fill="#6b7280" font-weight="400" opacity="0.85">18h</text>
<line class="hour-line" data-hour="19" x1="372.9627505484974" y1="30" x2="372.9627505484974" y2="300" stroke="#E5E7EB" stroke-width="0.65" stroke-linecap="round" opacity="0.65"/>
<text x="372.9627505484974" y="26" text-anchor="middle" font-size="9" fill="#6b7280" font-weight="400" opacity="0.85">19h</text>
<line class="hour-line" data-hour="20" x1="389.3290873161241" y1="30" x2="389.3290873161241" y2="300" stroke="#E5E7EB" stroke-width="0.65" stroke-linecap="round" opacity="0.65"/>
<text x="389.3290873161241" y="26" text-anchor="middle" font-size="9" fill="#6b7280" font-weight="400" opacity="0.85">20h</text>
<line class="hour-line" data-hour="21" x1="406.81498720067503" y1="30" x2="406.81498720067503" y2="300" stroke="#E5E7EB" stroke-width="0.65" stroke-linecap="round" opacity="0.65"/>
<text x="406.81498720067503" y="26" text-anchor="middle" font-size="9" fill="#6b7280" font-weight="400" opacity="0.85">21h</text>
<line class="hour-line" data-hour="22" x1="426.4409473765408" y1="30" x2="426.4409473765408" y2="300" stroke="#E5E7EB" stroke-width="0.65" stroke-linecap="round" opacity="0.65"/>
<text x="426.4409473765408" y="26" text-anchor="middle" font-size="9" fill="#6b7280" font-weight="400" opacity="0.85">22h</text>
</g>
<g id="grid-vertical">
<line x1="50" y1="30" x2="50" y2="300" stroke="#e5e7eb" stroke-width="0.5"/>
<line x1="114.16666666666666" y1="30" x2="114.16666666666666" y2="300" stroke="#e5e7eb" stroke-width="0.5"/>
<line x1="178.33333333333331" y1="30" x2="178.33333333333331" y2="300" stroke="#e5e7eb" stroke-width="0.5"/>
<line x1="242.5" y1="30" x2="242.5" y2="300" stroke="#e5e7eb" stroke-width="0.5"/>
<line x1="306.66666666666663" y1="30" x2="306.66666666666663" y2="300" stroke="#e5e7eb" stroke-width="0.5"/>
<line x1="370.83333333333337" y1="30" x2="370.83333333333337" y2="300" stroke="#e5e7eb" stroke-width="0.5"/>
<line x1="435" y1="30" x2="435" y2="300" stroke="#e5e7eb" stroke-width="0.5"/>
</g>
<g id="sun-visible-layer">
<path class="sun-visible" d="M 187.20791090884802 222.8571428603679 L 188.47771558842302 221.36065580855882 L 190.1708100147378 219.4344459305955 L 191.87874802524655 217.5611585960466 L 193.60149650196806 215.74207604490186 L 195.33898761837204 213.97847608341453 L 197.0911175404093 212.2716293976245 L 198.85774521523476 210.6227966999245 L 200.63869126815308 209.03322573019105 L 202.4337370249846 207.5041481031338 L 204.24262368154692 206.03677603163976 L 206.0650516378758 204.63229892167192 L 207.90068001838068 203.29187987335402 L 209.74912639486348 202.0166520887111 L 211.60996673137598 200.80771522146097 L 213.48273556647456 199.66613168609626 L 215.36692644694935 198.5929229452084 L 217.26199262610479 197.58906581672414 L 219.16734803490888 196.6554888112443 L 221.0823685336894 195.79306854790386 L 223.00639344652512 195.0026262606076 L 224.9387273787632 194.28492444462577 L 226.87864231273986 193.64066365621 L 228.82537997399498 193.07047951102348 L 230.77815445542848 192.57493990514013 L 232.7361550831442 192.15454248111195 L 234.69854950394233 191.80971238055088 L 236.66448697048634 191.54080028882913 L 238.633101796938 191.34808081230412 L 240.60351695499295 191.2317511869826 L 242.5748477773804 191.19193035219735 L 244.54620573473935 191.22865838124522 L 246.51670224916785 191.34189629044343 L 248.48545250867983 191.53152622272614 L 250.45157924554385 191.79735199788286 L 252.41421644236166 192.13910003781308 L 254.37251293191002 192.55642063812053 L 256.32563585710136 193.04888959063038 L 258.2727739618654 193.61601011989583 L 260.213140684439 194.25721513148295 L 262.14597703039874 194.97186972964803 L 264.07055420405743 195.7592739926801 L 265.98617598217584 196.61866597160545 L 267.89218081837066 197.54922487668927 L 269.7879436682347 198.55007443546555 L 271.67287753287553 199.6202863732245 L 273.54643471810056 200.7588840033481 L 275.4081078147007 201.96484587835812 L 277.2574304037608 203.23710949040694 L 279.09397749895084 204.57457497503168 L 280.91736573574786 205.97610880543914 L 282.7272533227204 207.44054744659314 L 284.5233397719566 208.96670094051078 L 286.30536542390666 210.5533564158086 L 288.0731107882134 212.1992814857668 L 289.82639571665936 213.90322753621885 L 291.5650784311203 215.66393287198596 L 293.2890544227622 217.48012572738872 L 294.9982552451619 219.35052711501635 L 296.69264721737613 221.27385351861648 L 298.03913405902574 222.85714285525282" fill="none" stroke="#60a5fa" stroke-width="1.5" opacity="0.95"/>
<path class="sun-visible" d="M 156.26997285266063 222.85714282061795 L 156.68678966563658 222.1109230367055 L 158.25048888835084 219.36905128735066 L 159.830108457509 216.6585168555681 L 161.42616349169276 213.9806588720875 L 163.03915864792802 211.33684617976905 L 164.66958639721452 208.7284775391043 L 166.31792514135617 206.1569816802325 L 167.984637170709 203.62381720659258 L 169.6701664568694 201.13047231274828 L 171.37493628246898 198.6784643200835 L 173.0993467057441 196.26933899178707 L 174.84377186520396 193.9046696253303 L 176.60855712869505 191.58605589714153 L 178.39401609412346 189.31512243367283 L 180.20042745541207 187.0935171074858 L 182.0280317457004 184.92290901910877 L 183.87702797921062 182.8049861695996 L 185.74757021180912 180.74145278624542 L 187.6397640499808 178.73402630957588 L 189.55366313751827 176.78443400898126 L 191.4892656581062 174.89440923579224 L 193.4465108940646 173.06568730199052 L 195.42527588619356 171.30000097680616 L 197.425372246134 169.5990756226115 L 199.44654317298355 167.96462395781268 L 201.4884607329941 166.39834048417757 L 203.5507234599019 164.90189557780963 L 205.63285433832036 163.4769292944481 L 207.73429922979298 162.12504490256813 L 209.8544258026111 160.8478022044466 L 211.9925230220802 159.64671068772313 L 214.14780125430963 158.52322255682643 L 216.31939303096524 157.4787257252352 L 218.5063545138321 156.51453681520385 L 220.70766768941698 155.63189426168285 L 222.92224331218782 154.83195157530554 L 225.14892460278065 154.11577086732842 L 227.38649169415532 153.4843166958617 L 229.63366680379778 152.93845033157993 L 231.8891200954517 152.4789245141097 L 234.15147617963225 152.10637876595607 L 236.41932118658303 151.82133534964885 L 238.69121033403513 151.6241959064693 L 240.96567589808262 151.5152388503026 L 243.24123548836636 151.4946175344035 L 245.51640051815698 151.56235924200078 L 247.78968475848197 151.7183649950543 L 250.05961286015048 151.96241020159712 L 252.3247287300948 152.29414612437552 L 254.58360365287894 152.71310214104855 L 256.83484405116286 153.21868877800677 L 259.07709879284573 153.8102014501384 L 261.3090659575617 154.48682487217076 L 263.52949899423413 155.24763805501323 L 265.73721220848915 156.0916198373778 L 267.93108554022126 157.01765485505652 L 270.1100686001665 158.02453988509765 L 272.27318395290183 159.11099047680193 L 274.41952964798776 160.27564778227114 L 276.54828100929865 161.51708552387717 L 278.65869171179577 162.83381700263587 L 280.75009417657316 164.22430209718812 L 282.82189933246804 165.68695416675652 L 284.87359579022393 167.22014681937176 L 286.9047484893132 168.82222047253433 L 288.91499687276644 170.49148867677468 L 290.9040526520114 172.2262441569112 L 292.8716972246823 174.0247645338065 L 294.8177788012276 175.8853177172108 L 296.7422093037594 177.80616693307047 L 298.6449610867867 179.78557539249763 L 300.5260635370819 181.82181057722218 L 302.3855995945529 183.91314815908282 L 304.22370224268855 186.0578755384718 L 306.0405510025925 188.25429502329877 L 307.8363684661248 190.50072665268496 L 309.61141689918577 192.79551067259513 L 311.36599493518173 195.13700969233946 L 313.1004343849259 197.52361052105212 L 314.8150971733889 199.9537257194753 L 316.510372422243 202.42579486790044 L 318.186673681531 204.93828558626527 L 319.8444363230942 207.48969430867083 L 321.48411509468804 210.07854684418737 L 323.1061818385056 212.70339873689835 L 324.7111233757095 215.362835437588 L 326.29943955008304 218.05547231709537 L 327.87164143364566 220.77995452139643 L 329.0452770033383 222.85714289038464" fill="none" stroke="#3b82f6" stroke-width="1.5" opacity="0.95"/>
<path class="sun-visible" d="M 127.12949666061265 222.85714286404706 L 127.4612117050537 222.11662781573136 L 128.87765496670852 218.98669522080831 L 130.3052155273483 215.8666451063761 L 131.7446142031041 212.7575119081434 L 133.1965856286287 209.66035596801976 L 134.66187847519643 206.5762653453038 L 136.14125559587382 203.50635766266225 L 137.63549408892027 200.451781998843 L 139.14538526454317 197.4137208198419 L 140.6717344983369 194.39339193892243 L 142.2153609582739 191.39205051487443 L 143.77709718244012 188.4109910643984 L 145.35778849171902 185.45154949927547 L 146.95829221087138 182.5151051603844 L 148.57947667832826 179.60308285539463 L 150.2222200144443 176.71695486876976 L 151.88740862361493 173.85824294210823 L 153.57593539906367 171.02852020045876 L 155.28869759734994 168.22941299657873 L 157.02659435284215 165.46260266268612 L 158.79052379370523 162.729827122623 L 160.58137972855724 160.03288235063204 L 162.4000478643166 157.37362362095553 L 164.24740152468866 154.7539665261744 L 166.1242968320321 152.17588770018924 L 168.03156732516612 149.64142521046514 L 169.9700179851206 147.15267855918728 L 171.9404186464572 144.71180822793292 L 173.94349678342968 142.32103471801105 L 175.97992966294774 139.98263700109564 L 178.0503358754995 137.69895033034834 L 180.15526626209945 135.47236332131413 L 182.29519427932902 133.3053142509701 L 184.47050585725685 131.20028648560003 L 186.68148883322576 129.15980298631177 L 188.92832206516817 127.1864198249176 L 191.2110643552144 125.28271865126402 L 193.52964334531836 123.45129808689518 L 195.8838445705466 121.69476399908834 L 198.27330088914127 120.01571866815775 L 200.6974825299099 118.41674884150515 L 203.15568802552875 116.90041273482353 L 205.6470363139581 115.46922602857629 L 208.17046030538157 114.12564697536027 L 210.7247022120253 112.87206074401715 L 213.30831093084853 111.71076316031426 L 215.91964175045476 110.64394406000144 L 218.55685861852015 109.67367046512769 L 221.2179391618637 108.80186986349307 L 223.90068259011164 108.03031385175419 L 226.6027205438439 107.3606024606473 L 229.32153086634727 106.79414944646425 L 232.0544541904904 106.33216886784223 L 234.79871314109582 105.97566323092587 L 237.55143386452377 105.72541346293221 L 240.30966951233265 105.58197096325657 L 243.07042523533133 105.54565190137916 L 245.83068418406395 105.61653392086569 L 248.58743397559314 105.79445530968945 L 251.33769306469645 106.0790166782266 L 254.07853646512078 106.46958508338903 L 256.8071202884461 106.96530051417565 L 259.5207046159457 107.56508457546403 L 262.2166742829669 108.26765115858694 L 264.89255722778336 109.07151886920818 L 267.54604014942583 109.97502491727326 L 270.1749813017235 110.97634019382491 L 272.7774203493726 112.07348521035854 L 275.35158528911506 113.26434661731872 L 277.8958965261135 114.546693989728 L 280.4089682550223 115.91819662074587 L 282.88960735531333 117.37644006675691 L 285.3368100526451 118.91894221767197 L 287.7497566205702 120.54316871850048 L 290.12780442198266 122.24654756937156 L 292.47047958324083 124.02648280151928 L 294.77746759937884 125.88036712222186 L 297.0486031435614 127.8055934887123 L 299.28385934534344 129.79956556301195 L 301.48333676753316 131.85970705522 L 303.6472522906061 133.98346996414313 L 305.77592808521126 136.16834174129502 L 307.8697808179628 138.411851437351 L 309.92931121886477 140.7115748699631 L 311.95509410046736 143.0651388933876 L 313.94776890762154 145.47022482126636 L 315.90803084262467 147.9245710898828 L 317.83662260466684 150.42597521754627 L 319.7343267550155 152.97229514335993 L 321.6019587132169 155.5614500088508 L 323.4403603786357 158.19142044300608 L 325.2503943556058 160.86024842483232 L 327.032938765528 163.5660367658923 L 328.78888261089577 166.30694828145118 L 330.5191216664065 169.08120468364572 L 332.2245548565108 171.88708525580623 L 333.9060810909174 174.72292533316653 L 335.5645965175256 177.58711463698108 L 337.200992159983 180.478095488642 L 338.8161519080389 183.39436092697903 L 340.4109508227716 186.33445276414682 L 341.9862537322051 189.29695958688862 L 343.5429140813226 192.28051473549738 L 345.08177301588614 195.28379426163133 L 346.6036586679626 198.30551489179516 L 348.10938562620555 201.34443199394536 L 349.5997545642452 204.3993375669321 L 351.075552009529 207.4690582556107 L 352.5375502369104 210.5524533932626 L 353.9865072655973 213.64841308659044 L 355.42316695123736 216.7558563333742 L 356.8482591534263 219.87372918907255 L 358.19744238246443 222.85714281907107" fill="none" stroke="#2563eb" stroke-width="1.5" opacity="0.95"/>
<path class="sun-visible" d="M 95.79978564709393 222.85714282861267 L 95.80413173983115 222.84637339655998 L 97.05197330089725 219.74896336213453 L 98.30256023558147 216.64147165721445 L 99.55644598910254 213.52460282020365 L 100.81420107030661 210.3990651667838 L 102.07641404582546 207.2655718818683 L 103.34369260516212 204.124842171328 L 104.61666469765404 200.9776024790068 L 105.89597974634734 197.82458777259885 L 107.18230993989766 194.66654290495643 L 108.47635160727073 191.50422405546328 L 109.77882667775228 188.3384002581816 L 111.09048422866627 185.16985502401243 L 112.41210212543193 181.99938806312397 L 113.74448875455673 178.82781711709077 L 115.08848485420009 175.65597990769777 L 116.4449654419082 172.4847362133864 L 117.81484184307126 169.31497008156597 L 119.19906381828636 166.14759218898476 L 120.59862179066454 162.98354236026063 L 122.0145491702891 159.8237922570288 L 123.44792477114032 156.66934825090203 L 124.89987531622091 153.52125449235936 L 126.37157801974192 150.3805961908932 L 127.8642632364904 147.24850311939318 L 129.37921715969975 144.1261533588662 L 130.91778454854153 141.0147772969809 L 132.4813714555716 137.91566189667014 L 134.07144792161077 134.830155247997 L 135.6895505942319 131.75967141739534 L 137.33728521581025 128.70569560683379 L 139.0163289179057 125.66978963200981 L 140.7284322400451 122.65359772813997 L 142.4754207797166 119.65885268529331 L 144.25919635598427 116.68738231250276 L 146.08173755250095 113.74111622073224 L 147.94509947546942 110.82209290813421 L 149.85141253861434 107.93246711821371 L 151.80288005295898 105.07451742888836 L 153.80177436468333 102.25065401358407 L 155.85043125066824 99.46342649385446 L 157.95124223725787 96.71553178026707 L 160.1066444746251 94.00982176688802 L 162.3191077547587 91.3493107126348 L 164.59111823362508 88.7371821012232 L 166.92515838533132 86.17679472828135 L 169.3236827078195 83.67168771285165 L 171.789088700518 81.22558407695735 L 174.32368266437874 78.84239247931615 L 176.92963994309082 76.5262066305825 L 179.60895932656868 74.28130186231675 L 182.36341150780942 72.11212827184875 L 185.19448170364564 70.02329982922319 L 188.10330685658917 68.01957881491307 L 191.0906082030921 66.10585496848321 L 194.1566204511737 64.28711877708096 L 197.3010193216336 62.56842842897058 L 200.52284976571863 60.954870109476815 L 203.82045774217423 59.45151153310124 L 207.1914289523379 58.06334888598127 L 210.63253835445872 56.79524769835575 L 214.13971450277884 55.65187856064131 L 217.70802273840982 54.63764902511974 L 221.33167089712055 53.75663346054725 L 225.00404048028568 53.01250301869649 L 228.7177451236608 52.408458178647635 L 232.46471675153407 51.947166516267515 L 236.23631811570777 51.63070836610751 L 240.02347861888342 51.460532867654564 L 243.81684861965007 51.43742652391086 L 247.60696597203767 51.56149584871196 L 251.38442757452896 51.83216499665906 L 255.140058283906 52.24818849614687 L 258.8650697734518 52.80767843060545 L 262.55120272724366 53.50814469066307 L 266.1908470753685 54.34654632340593 L 269.77713662345 55.319351581615024 L 273.30401621161656 56.42260403665651 L 276.76628128626953 57.6519920855896 L 280.15959129804287 59.00291931043367 L 283.48045956603596 60.47057342795242 L 286.7262230886837 62.04999193011412 L 289.89499625381984 63.73612294203136 L 292.98561251944153 65.52388025055967 L 295.9975579776126 67.40819186447476 L 298.93090035055974 69.38404183353876 L 301.78621646726185 71.44650534819132 L 304.56452071526337 73.59077738618697 L 307.2671963922503 75.81219533545368 L 309.895931354568 78.10625614424396 L 312.4526588828734 80.46862860341452 L 314.93950428902275 82.89516139540393 L 317.3587374633781 85.38188753057628 L 319.7127313129772 87.92502575992901 L 322.00392586110485 90.5209795124679 L 324.2347976514649 93.16633384290182 L 326.4078340260613 95.85785082665024 L 328.5255118030102 98.59246377169171 L 330.59027987177825 101.36727057084713 L 332.60454522954825 104.1795264571283 L 334.57066200782094 107.02663638675574 L 336.49092306882557 109.90614722786466 L 338.36755378854434 112.81573989706217 L 340.20270768341396 115.75322156065374 L 341.99846357495477 118.71651798267618 L 343.7568240262461 121.70366608978173 L 345.47971481747794 124.71280679535747 L 347.1689852620125 127.7421781203704 L 348.8264091916663 130.79010862677384 L 350.45368646769833 133.85501117890092 L 352.0524448956064 136.93537703501306 L 353.6242424420399 140.0297702657794 L 355.17056967019107 143.13682249746682 L 356.69285232338444 146.25522796549686 L 358.19245400097867 149.38373887200964 L 359.6706788796561 152.52116102895494 L 361.12877444390494 155.66634977766557 L 362.5679341956084 158.81820616534247 L 363.98930032019814 161.9756733673621 L 365.393966291454 165.13773333920435 L 366.7829794012243 168.3034036816968 L 368.157343204862 171.4717347096998 L 369.5180198747261 174.6418067056428 L 370.8659324578891 177.81272735012936 L 372.2019670347708 180.98362931240314 L 373.52697477820067 184.1536679941001 L 374.84177391237154 187.32201941063965 L 376.1471515731671 190.48787820396066 L 377.44386557143787 193.65045577572545 L 378.73264606118806 196.80897853040966 L 380.0141971158737 199.96268622423185 L 381.28919821504417 203.11083040738714 L 382.5583056450094 206.25267295765894 L 383.8221538160514 209.38748469396975 L 385.08135649994915 212.51454406898537 L 386.336507990351 215.63313593053073 L 387.5881841894999 218.74255035069825 L 388.83694362415116 221.8420815167815 L 389.2465193712066 222.85714287942181" fill="none" stroke="#1e40af" stroke-width="1.5" opacity="0.95"/>
</g>
<g id="month-labels-layer">
<line x1="50" y1="231.24407188294393" x2="435" y2="231.24407188294393" stroke="#64748b" stroke-width="0.8"/>
<text x="443" y="234.24407188294393" text-anchor="start" font-size="9" fill="#475569" font-weight="600">Nov/Déc/Jan</text>
<line x1="50" y1="191.19193035219735" x2="435" y2="191.19193035219735" stroke="#64748b" stroke-width="0.8"/>
<text x="443" y="194.19193035219735" text-anchor="start" font-size="9" fill="#475569" font-weight="600">Fév/Oct</text>
<line x1="50" y1="151.4946175344035" x2="435" y2="151.4946175344035" stroke="#64748b" stroke-width="0.8"/>
<text x="443" y="154.4946175344035" text-anchor="start" font-size="9" fill="#475569" font-weight="600">Mar/Sep</text>
<line x1="50" y1="105.54565190137916" x2="435" y2="105.54565190137916" stroke="#64748b" stroke-width="0.8"/>
<text x="443" y="108.54565190137916" text-anchor="start" font-size="9" fill="#475569" font-weight="600">Avr/Août</text>
<line x1="50" y1="51.43742652391086" x2="435" y2="51.43742652391086" stroke="#64748b" stroke-width="0.8"/>
<text x="443" y="54.43742652391086" text-anchor="start" font-size="9" fill="#475569" font-weight="600">Mai/Juin/Juil</text>
</g>
<text x="50" y="332" text-anchor="middle" font-size="10" fill="#6b7280">-135°</text>
<text x="114.16666666666666" y="332" text-anchor="middle" font-size="10" fill="#6b7280">E</text>
<text x="178.33333333333331" y="332" text-anchor="middle" font-size="10" fill="#6b7280">-45°</text>
<text x="242.5" y="332" text-anchor="middle" font-size="10" fill="#6b7280">S</text>
<text x="306.66666666666663" y="332" text-anchor="middle" font-size="10" fill="#6b7280">+45°</text>
<text x="370.83333333333337" y="332" text-anchor="middle" font-size="10" fill="#6b7280">O</text>
<text x="435" y="332" text-anchor="middle" font-size="10" fill="#6b7280">+135°</text>
<text x="44" y="304" text-anchor="end" font-size="9" fill="#6b7280">0°</text>
<text x="44" y="265.42857142857144" text-anchor="end" font-size="9" fill="#6b7280">10°</text>
<text x="44" y="226.85714285714286" text-anchor="end" font-size="9" fill="#6b7280">20°</text>
<text x="44" y="188.28571428571428" text-anchor="end" font-size="9" fill="#6b7280">30°</text>
<text x="44" y="149.71428571428572" text-anchor="end" font-size="9" fill="#6b7280">40°</text>
<text x="44" y="111.14285714285714" text-anchor="end" font-size="9" fill="#6b7280">50°</text>
<text x="44" y="72.57142857142858" text-anchor="end" font-size="9" fill="#6b7280">60°</text>
<text x="44" y="34" text-anchor="end" font-size="9" fill="#6b7280">70°</text>
</svg>