<svg viewBox="0 0 520 340" class="horizon-cartesian-chart" preserveAspectRatio="xMidYMid meet">
<g id="background-layer">
<line x1="50" y1="261.42857142857144" x2="435" y2="261.42857142857144" stroke="#e5e7eb" stroke-width="0.5"/>
<line x1="50" y1="222.85714285714286" x2="435" y2="222.85714285714286" stroke="#e5e7eb" stroke-width="0.5"/>
<line x1="50" y1="184.28571428571428" x2="435" y2="184.28571428571428" stroke="#e5e7eb" stroke-width="0.5"/>
<line x1="50" y1="145.71428571428572" x2="435" y2="145.71428571428572" stroke="#e5e7eb" stroke-width="0.5"/>
<line x1="50" y1="107.14285714285714" x2="435" y2="107.14285714285714" stroke="#e5e7eb" stroke-width="0.5"/>
<line x1="50" y1="68.57142857142858" x2="435" y2="68.57142857142858" stroke="#e5e7eb" stroke-width="0.5"/>
<line x1="50" y1="30" x2="50" y2="300" stroke="#e5e7eb" stroke-width="0.5"/>
<line x1="114.16666666666666" y1="30" x2="114.16666666666666" y2="300" stroke="#e5e7eb" stroke-width="0.5"/>
<line x1="178.33333333333331" y1="30" x2="178.33333333333331" y2="300" stroke="#e5e7eb" stroke-width="0.5"/>
<line x1="242.5" y1="30" x2="242.5" y2="300" stroke="#e5e7eb" stroke-width="0.5"/>
<line x1="306.66666666666663" y1="30" x2="306.66666666666663" y2="300" stroke="#e5e7eb" stroke-width="0.5"/>
<line x1="370.83333333333337" y1="30" x2="370.83333333333337" y2="300" stroke="#e5e7eb" stroke-width="0.5"/>
<line x1="435" y1="30" x2="435" y2="300" stroke="#e5e7eb" stroke-width="0.5"/>
<line x1="50" y1="300" x2="435" y2="300" stroke="#64748b" stroke-width="0.8"/>
<text x="443" y="276" text-anchor="start" font-size="9" fill="#475569" font-weight="600">Janvier – Février</text>
<line x1="50" y1="246" x2="435" y2="246" stroke="#64748b" stroke-width="0.8"/>
<text x="443" y="222" text-anchor="start" font-size="9" fill="#475569" font-weight="600">Mars – Avril</text>
<line x1="50" y1="192" x2="435" y2="192" stroke="#64748b" stroke-width="0.8"/>
<text x="443" y="168" text-anchor="start" font-size="9" fill="#475569" font-weight="600">Mai – Juin</text>
<line x1="50" y1="138" x2="435" y2="138" stroke="#64748b" stroke-width="0.8"/>
<text x="443" y="117.85714285714286" text-anchor="start" font-size="9" fill="#475569" font-weight="600">Juillet – Août</text>
<line x1="50" y1="91.7142857142857" x2="435" y2="91.7142857142857" stroke="#64748b" stroke-width="0.8"/>
<text x="443" y="79.28571428571428" text-anchor="start" font-size="9" fill="#475569" font-weight="600">Septembre – Octobre</text>
<line x1="50" y1="60.85714285714286" x2="435" y2="60.85714285714286" stroke="#64748b" stroke-width="0.8"/>
<text x="443" y="48.428571428571445" text-anchor="start" font-size="9" fill="#475569" font-weight="600">Novembre – Décembre</text>
</g>
<g id="mask-layer">
<path id="visibility-mask-area" d="M 50 300 L 50 288.98323680082996 L 50 288.98323680082996 L 51.604166666666664 288.5795250965968 L 53.208333333333336 288.1811373407291 L 54.8125 287.78103171196113 L 56.416666666666664 287.37749033739254 L 58.02083333333333 286.96579117006667 L 59.625 286.54756576853487 L 61.229166666666664 286.11872908801 L 62.833333333333336 285.6868606134871 L 64.4375 285.2425718472178 L 66.04166666666666 284.796629097576 L 67.64583333333333 284.3448974061301 L 69.25 283.89272034936766 L 70.85416666666667 283.43998658595956 L 72.45833333333333 282.9864561852743 L 74.0625 282.53252746595047 L 75.66666666666667 282.0788027866116 L 77.27083333333333 281.62667696751384 L 78.875 281.18713799035925 L 80.47916666666666 280.7602592419543 L 82.08333333333333 280.3587009510489 L 83.6875 279.94940087737325 L 85.29166666666666 279.5339073774815 L 86.89583333333334 279.1172590553863 L 88.5 278.70028078409 L 90.10416666666667 278.2905772184344 L 91.70833333333334 277.8827905619157 L 93.3125 277.481713087376 L 94.91666666666666 277.0850806257978 L 96.52083333333334 276.69400443042133 L 98.125 276.3050702704167 L 99.72916666666667 275.91720712809797 L 101.33333333333334 275.5188599856734 L 102.9375 275.1210006939208 L 104.54166666666666 274.7375282076505 L 106.14583333333334 274.3596269938723 L 107.75 273.99286832507835 L 109.35416666666667 273.6356774314208 L 110.95833333333333 273.28614075787226 L 112.5625 272.9503777086185 L 114.16666666666666 272.61854998059175 L 115.77083333333333 272.27064433167584 L 117.375 271.9266878362561 L 118.97916666666667 271.59655337807277 L 120.58333333333333 271.2741104997508 L 122.1875 270.9612820962557 L 123.79166666666667 270.65967366483324 L 125.39583333333333 270.36367521944726 L 127 270.08220795454343 L 128.60416666666669 269.7924846775939 L 130.20833333333334 269.42218212379663 L 131.8125 269.0810168194073 L 133.41666666666669 268.79812601383395 L 135.02083333333331 268.52478664776703 L 136.625 268.2590884333053 L 138.22916666666666 268.0061189965527 L 139.83333333333331 267.75678635343127 L 141.4375 267.5230233621866 L 143.04166666666669 267.29255166011717 L 144.64583333333331 267.07359947016107 L 146.25 266.8598521550114 L 147.85416666666666 266.6526109333699 L 149.45833333333334 266.4463901494445 L 151.0625 266.2406795843771 L 152.66666666666669 266.04171313599556 L 154.27083333333331 265.8443286305372 L 155.875 265.6528555517782 L 157.47916666666669 265.46332329533203 L 159.08333333333331 265.27767268351135 L 160.6875 265.0948605463393 L 162.29166666666669 264.9143191888861 L 163.89583333333331 264.73729011264373 L 165.5 264.56126454531875 L 167.10416666666666 264.4158267362915 L 168.70833333333334 264.2752656865844 L 170.3125 264.1517732944982 L 171.91666666666666 263.98944757868566 L 173.52083333333334 263.7785802082152 L 175.125 263.62723738214925 L 176.72916666666669 263.50565682828557 L 178.33333333333331 263.39008738295115 L 179.9375 263.27603557876836 L 181.54166666666666 263.16811379526973 L 183.14583333333334 263.0900456742771 L 184.75 263.07168487829665 L 186.35416666666669 263.0052095774926 L 187.95833333333334 262.90024267282973 L 189.5625 262.80962120835403 L 191.16666666666666 262.72309844107474 L 192.77083333333334 262.66058379215985 L 194.375 262.599053273703 L 195.97916666666666 262.5409672118493 L 197.58333333333334 262.4852162494492 L 199.1875 262.43238416136614 L 200.79166666666666 262.3836783307981 L 202.39583333333331 262.33703562898756 L 204 262.09487651477446 L 205.60416666666666 261.84988324576057 L 207.20833333333334 261.7777331507425 L 208.8125 261.71080344791847 L 210.41666666666669 261.6543145294824 L 212.02083333333334 261.6069438833987 L 213.625 261.56686785519673 L 215.22916666666666 261.54016543679586 L 216.83333333333334 261.51728404976683 L 218.4375 261.51240491058275 L 220.04166666666666 261.51171050792465 L 221.64583333333334 261.52566268310727 L 223.25 261.6074312937818 L 224.85416666666666 261.77397044882133 L 226.45833333333331 261.88717387889716 L 228.0625 261.9737094464911 L 229.66666666666666 262.0015842070253 L 231.27083333333334 262.0157249430121 L 232.875 261.97865428967987 L 234.47916666666669 261.9352923036393 L 236.08333333333334 261.879347652182 L 237.6875 261.83476592898626 L 239.29166666666666 261.7992745483998 L 240.89583333333334 261.8085613048377 L 242.5 261.83064181471116 L 244.10416666666666 261.84454425872707 L 245.70833333333331 261.8716551743695 L 247.31249999999997 261.94499574070454 L 248.91666666666669 262.0271206334339 L 250.52083333333334 262.12022593415617 L 252.125 262.20028125435124 L 253.72916666666666 262.27381158428267 L 255.33333333333334 262.29548282470506 L 256.9375 262.30409785968345 L 258.54166666666663 262.2601223406194 L 260.1458333333333 262.1899075276358 L 261.75 262.06721412681327 L 263.3541666666667 262.0264895194397 L 264.95833333333337 262.05133994682524 L 266.5625 262.09077112608725 L 268.16666666666663 262.1343682344568 L 269.7708333333333 262.19587300512853 L 271.375 262.2611751560793 L 272.9791666666667 262.3397681380068 L 274.58333333333337 262.42560227261475 L 276.1875 262.52048784807334 L 277.79166666666663 262.62572334096456 L 279.39583333333337 262.736133792572 L 281 263.00222075516115 L 282.60416666666663 263.26516439486335 L 284.2083333333333 263.3472849404886 L 285.8125 263.43141870441735 L 287.4166666666667 263.5195789049534 L 289.02083333333337 263.6105616135406 L 290.625 263.7038023285688 L 292.22916666666663 263.80033214996655 L 293.8333333333333 263.89780171604133 L 295.4375 264.01616965169785 L 297.0416666666667 264.13856395271387 L 298.64583333333337 264.2750505324878 L 300.25 264.3805177790179 L 301.85416666666663 264.44721085899323 L 303.45833333333337 264.56193867160096 L 305.0625 264.70068385052497 L 306.66666666666663 264.8451336807303 L 308.2708333333333 264.9909907659226 L 309.875 265.1424012397292 L 311.4791666666667 265.3176997345674 L 313.0833333333333 265.54077427146865 L 314.6875 265.72454545528643 L 316.2916666666667 265.87687395663744 L 317.8958333333333 266.04597891021103 L 319.5 266.2198771358482 L 321.1041666666667 266.41994279957737 L 322.70833333333337 266.62085855952523 L 324.3125 266.8247496562386 L 325.9166666666667 267.0305886823395 L 327.5208333333333 267.2388626201748 L 329.125 267.45050976740066 L 330.72916666666663 267.6638435193217 L 332.3333333333333 267.88237847155904 L 333.9375 268.10231376606765 L 335.5416666666667 268.3282505984304 L 337.1458333333333 268.5538953301349 L 338.75 268.77895586052296 L 340.3541666666667 269.0097550742728 L 341.9583333333333 269.2451452347119 L 343.5625 269.49127095532015 L 345.1666666666667 269.7404639788339 L 346.77083333333337 270.0041901134125 L 348.375 270.2713164428844 L 349.9791666666667 270.55034345448297 L 351.5833333333333 270.83652612109245 L 353.1875 271.1316533564657 L 354.79166666666663 271.4714754502845 L 356.3958333333333 271.83364497332616 L 358 272.1284952652167 L 359.6041666666667 272.41662993535164 L 361.2083333333333 272.718358862592 L 362.8125 273.0253421243443 L 364.4166666666667 273.3428340551203 L 366.0208333333333 273.6438306143926 L 367.625 273.9316308764619 L 369.2291666666667 274.28433049342544 L 370.83333333333337 274.655572783216 L 372.4375 274.98391212469465 L 374.0416666666667 275.3224850492933 L 375.6458333333333 275.6968755148115 L 377.25 276.0663173858165 L 378.85416666666663 276.42957351367977 L 380.4583333333333 276.8032428381485 L 382.0625 277.1821187609198 L 383.6666666666667 277.574413060514 L 385.2708333333333 277.96673861302287 L 386.875 278.34589581202624 L 388.4791666666667 278.72557841093914 L 390.0833333333333 279.10631180967107 L 391.6875 279.49204111277083 L 393.2916666666667 279.88176713936497 L 394.89583333333337 280.2774335685409 L 396.5 280.67479725559747 L 398.1041666666667 281.0784687395229 L 399.7083333333333 281.48144063774095 L 401.3125 281.88196398598285 L 402.91666666666663 282.2752824008069 L 404.5208333333333 282.6595946488585 L 406.125 283.0638341471778 L 407.7291666666667 283.47803727063075 L 409.3333333333333 283.90876214245316 L 410.9375 284.3414827298222 L 412.5416666666667 284.77364729319487 L 414.1458333333333 285.205141426385 L 415.75 285.6352946992101 L 417.3541666666667 286.0640603522908 L 418.95833333333337 286.49171590957616 L 420.5625 286.91244211414175 L 422.1666666666667 287.33118850364457 L 423.7708333333333 287.73692241524844 L 425.375 288.1395027610291 L 426.97916666666663 288.53104562642864 L 428.5833333333333 288.9158378192587 L 430.1875 289.29219167137705 L 431.7916666666667 289.66301320442403 L 433.3958333333333 290.03106857793534 L 435 290.40410449679945 L 435 290.40410449679945 L 435 300 Z" fill="rgba(100,116,139,0.25)" stroke="none"/>
</g>
<g id="visibility-layer">
<path class="visibility-tube" d="M 124.38932778640849 300 L 118.32504427604373 300 L 109.04599474468071 300 L 100.88990480165391 300 L 76.07693771420867 300 L 69.01433110784005 300 L 63.73498407518392 294.9355021569948" fill="none" stroke="rgba(100,116,139,0.22)" stroke-width="12" stroke-linecap="round" stroke-linejoin="round"/>
<path class="visibility-tube" d="M 139.40122749957226 300 L 133.7483245677918 300 L 125.07635465448608 300 L 117.09129436040233 295.09788175681945 L 92.46980353963227 293.08421557451754 L 88.20801235173062 278.776178107786" fill="none" stroke="rgba(100,116,139,0.22)" stroke-width="12" stroke-linecap="round" stroke-linejoin="round"/>
<path class="visibility-tube" d="M 154.45713946151474 300 L 149.08357061072587 300 L 141.04611026271147 293.45370361226276 L 135.7602658581256 268.40231447405773" fill="none" stroke="rgba(100,116,139,0.22)" stroke-width="12" stroke-linecap="round" stroke-linejoin="round"/>
<path class="visibility-tube" d="M 170.2455458405086 294.48039908822886 L 165.09980004193199 287.63793526925326 L 159.43283185680878 265.2372255137847" fill="none" stroke="rgba(100,116,139,0.22)" stroke-width="12" stroke-linecap="round" stroke-linejoin="round"/>
<path class="visibility-tube" d="M 187.25478188570384 267.7367734977882 L 184.57302680943218 263.07371033808874" fill="none" stroke="rgba(100,116,139,0.22)" stroke-width="12" stroke-linecap="round" stroke-linejoin="round"/>
<path class="visibility-tube" d="M 303.6814406652122 276.17976532241437 L 303.6595161861285 264.5793388575356" fill="none" stroke="rgba(100,116,139,0.22)" stroke-width="12" stroke-linecap="round" stroke-linejoin="round"/>
<path class="visibility-tube" d="M 320.23498768694805 300 L 320.87174318585943 289.12199719436984 L 326.81851173412207 267.14767830015103" fill="none" stroke="rgba(100,116,139,0.22)" stroke-width="12" stroke-linecap="round" stroke-linejoin="round"/>
<path class="visibility-tube" d="M 335.70998251226433 300 L 336.85715763730775 300 L 345.2468646600222 295.5985702023127 L 355.77509985759417 271.69350278360724" fill="none" stroke="rgba(100,116,139,0.22)" stroke-width="12" stroke-linecap="round" stroke-linejoin="round"/>
<path class="visibility-tube" d="M 350.66339473704045 300 L 352.20157116808514 300 L 361.2261382239128 300 L 373.25323589713645 300 L 372.0011079541106 271.4112427256978" fill="none" stroke="rgba(100,116,139,0.22)" stroke-width="12" stroke-linecap="round" stroke-linejoin="round"/>
<path class="visibility-tube" d="M 365.8600332776924 300 L 367.6863399981114 300 L 377.33506433918 300 L 389.6398066220245 300" fill="none" stroke="rgba(100,116,139,0.22)" stroke-width="12" stroke-linecap="round" stroke-linejoin="round"/>
</g>
<g id="sun-layer">
<path class="sun-visible" d="M 191.15930946972622 262.7234952681799 L 193.24595382556282 260.1710756170325 L 196.3036894229257 256.67551285967977 L 199.4023909616371 253.38158184388234 L 202.5412750006833 250.2967086070329 L 205.71919585876987 247.42812922127283 L 208.93463701664453 244.78283004289074 L 212.185707417441 242.36748500275658 L 215.47014347537004 240.18839100242377 L 218.78531748646776 238.25140267429637 L 222.12825296750543 236.56186792935458 L 225.49564723040098 235.12456584042997 L 228.88390123774778 233.943648478527 L 232.28915649168277 233.02258832331802 L 235.70733839988415 232.36413279859596 L 239.1342052600444 231.97026733609277 L 242.5654017251902 231.8421881498505 L 245.99651538432653 231.98028561565621 L 249.42313492763196 232.38413881143128 L 252.84090828092454 233.05252140270875 L 256.2455990959111 233.98341867471055 L 259.6331400704757 235.17405514172373 L 262.9996817403321 236.62093182726605 L 266.34163561482376 238.31987202326394 L 269.65571080941083 240.2660741182313 L 272.9389436293712 242.4541699390464 L 276.1887198693256 244.8782869845344 L 279.402789884188 247.53211293455993 L 282.57927674819274 250.4089608905483 L 285.7166780352193 253.50183392939948 L 288.81386191974093 256.80348771952873 L 291.87005841141763 260.306490141434 L 294.8606485940386 263.97360503725747" fill="none" stroke="#93c5fd" stroke-width="1.5" opacity="0.95"/>
<path class="sun-visible" d="M 179.6034198860406 263.2991811060345 L 182.37949992968638 259.2595833608505 L 185.41104617452422 255.08738564691194 L 188.48877471783197 251.09658960700784 L 191.61307223014543 247.29564902853326 L 194.78396593024777 243.6930091789142 L 198.0010983793322 240.297054083519 L 201.2637047231252 237.11604733476466 L 204.57059355645904 234.15806689439847 L 207.9201326397749 231.43093460541763 L 211.31024070416422 228.94214142828662 L 214.73838651820657 226.69876970079048 L 218.20159625286342 224.70741400349684 L 221.69646996166935 222.9741024606576 L 225.2192076949779 221.50422050070932 L 228.76564539727573 220.3024392203411 L 232.3313003133265 219.37265051915125 L 235.91142517855047 218.71791109870048 L 239.5010700188217 218.34039721249377 L 243.0951499760007 218.24137176291828 L 246.68851723535656 218.42116493185966 L 250.2760348940394 218.87916905815797 L 253.85265049567928 219.6138479515639 L 257.4134669758497 220.62276029766934 L 260.9538089148981 221.90259629590793 L 264.46928226442924 223.44922621288566 L 267.95582607687095 225.25775916681596 L 271.40975519315646 227.32261017263306 L 274.827793296174 229.6375733300538 L 278.2070961837545 232.19589897969445 L 281.54526552479626 234.9903727099242 L 284.84035371224974 238.01339423997013 L 288.09086070277345 241.25705441730688 L 291.29572392761276 244.713208827398 L 294.45430247423235 248.37354679680786 L 297.56635677868576 252.22965487070374 L 300.63202504846697 256.27307411376097 L 303.651797563905 260.49535085617737 L 306.5928855033767 264.8384570926645" fill="none" stroke="#60a5fa" stroke-width="1.5" opacity="0.95"/>
<path class="sun-visible" d="M 154.21619538453137 265.85085027520876 L 154.94145198715262 264.4173690780725 L 157.8289377511713 258.89726291558105 L 160.7605236321916 253.4920905446911 L 163.73937638165398 248.21066000886145 L 166.76849892709072 243.06208148197427 L 169.85069948526228 238.0557673203084 L 172.98855569563193 233.20142564017573 L 176.18437383956203 228.5090464186444 L 179.4401434036241 223.98887905728594 L 182.75748749354813 219.65140034958793 L 186.13760990527507 215.50727184321795 L 189.58124000784233 211.56728571039054 L 193.0885769788022 207.8422984468774 L 196.65923533657605 204.34315201990825 L 200.2921941101793 201.08058250688498 L 203.98575233140767 198.0651167599765 L 207.7374937911848 195.30695826305623 L 211.54426411115415 192.81586401833204 L 215.4021630999504 190.601015024682 L 219.30655504686348 188.67088361597848 L 223.2520990295125 187.0331015586303 L 227.23280047702391 185.69433329442097 L 231.24208416842933 184.66015898408403 L 235.27288762409802 183.934972023978 L 239.31777256457102 183.5218953829983 L 243.3690508863296 183.42272050990383 L 247.41892056535175 183.63787163940472 L 251.4596061627074 184.1663971902962 L 255.48349825814822 185.00598866751312 L 259.4832862190365 186.1530261636875 L 263.45207921379546 187.60264831707556 L 267.38351124153155 189.3488435167476 L 271.27182707119266 191.38455835401095 L 275.1119472480129 193.70181879620299 L 278.8995115959293 196.29185939553048 L 282.6309018179998 199.14525594383514 L 286.30324477880106 202.25205734938913 L 289.914398792881 205.6019130606298 L 293.462925720371 209.1841930287464 L 296.94805189525425 212.98809792058688 L 300.3696209170412 217.002758001254 L 303.7280411629986 221.21731977692008 L 307.0242305878359 225.62102004500113 L 310.25956100338436 230.20324749347293 L 313.4358036312801 234.95359234852992 L 316.55507732064854 239.86188483954356 L 319.6198004493111 244.91822342310144 L 322.63264719594173 250.11299380145465 L 325.5965085899252 255.43687980000104 L 328.5144585190478 260.8808671442888 L 331.3897246951714 266.4362411296423 L 332.0984379527617 267.850283550353" fill="none" stroke="#3b82f6" stroke-width="1.5" opacity="0.95"/>
<path class="sun-visible" d="M 127.88195405055666 269.92845880939365 L 127.9155047447712 269.8512647610905 L 130.66526691017287 263.6106897510232 L 133.44154014894048 257.4130957987669 L 136.24890725194615 251.26611332042117 L 139.0919954637635 245.17763767254735 L 141.9754752790997 239.15586769716066 L 144.90405541822184 233.20934392656005 L 147.8824731707717 227.34698603889336 L 150.91547919117264 221.57812899481561 L 154.00781572556906 215.91255709393528 L 157.16418715935794 210.36053496668876 L 160.38922170934885 204.9328342549959 L 163.6874230680892 199.64075446156335 L 167.06311085435135 194.49613611345154 L 170.5203488778389 189.5113640863419 L 174.0628605071239 184.69935861006996 L 177.69393088532496 180.07355120682232 L 181.4162963992338 175.6478426195069 L 185.23202270443343 171.43653972578596 L 189.1423737524658 167.45426856539927 L 193.14767563879656 163.7158609969561 L 197.2471806357785 160.2362132362369 L 201.43893837453638 157.03011560734458 L 205.71968262838615 154.11205437410666 L 210.08474328701791 151.4959884035096 L 214.5279936286132 149.195105620057 L 219.04184261782194 147.2215665558611 L 223.6172804591329 145.58624455729299 L 228.24398291351437 144.29847408190346 L 232.91047602005597 143.3658196879356 L 237.60435815125987 142.7938785257209 L 242.31257128454502 142.58612813755963 L 247.02170865226455 142.74382921313085 L 251.71834223652596 143.26598968593086 L 256.3893514891681 144.149392575924 L 261.0222345266302 145.388685712357 L 265.60538489698115 146.97652742186818 L 270.12832053400643 148.90377890510902 L 274.5818561402478 151.15973168863516 L 278.9582152819298 153.73235741906203 L 283.25108327171085 156.60856729425285 L 287.4556059074811 159.77446951209703 L 291.56834201586446 163.21561490447618 L 295.5871794017347 166.91722315328 L 299.5112243175506 170.86438433451 L 303.34067414959077 175.04223276821702 L 307.0766819437619 179.436092096654 L 310.7212199395535 184.03159207279307 L 314.27694767823726 188.81475870815635 L 317.74708869918476 193.77208017731567 L 321.1353184316834 198.89055132700435 L 324.4456647190886 204.15769978751715 L 327.6824214822253 209.56159664671776 L 330.8500753386379 215.09085446660293 L 333.9532445151598 220.73461515649626 L 336.9966290872494 226.4825299081794 L 339.98497141499047 232.324733072453 L 342.92302557948125 238.2518115536689 L 345.8155346419439 244.25477099052412 L 348.66721460001776 250.32499974718417 L 351.48274400815495 256.45423150018354 L 354.2667583298386 262.6345070148907 L 357.02384819534683 268.8581355408752 L 358.49092786347256 272.21615393797447" fill="none" stroke="#2563eb" stroke-width="1.5" opacity="0.95"/>
<path class="sun-visible" d="M 99.82342999332255 275.89441564972776 L 100.41605578220043 274.4940479446984 L 103.05406388859885 268.2199806689743 L 105.69368576814152 261.9181754772319 L 108.33927774863224 255.59516663431512 L 110.99532483403098 249.2575199275849 L 113.66645593733551 242.91187027400602 L 116.35746036415254 236.5649614772041 L 119.07330529698403 230.2236883773445 L 121.81915397134507 223.89514165893638 L 124.60038414918357 217.58665558942897 L 127.42260638157084 211.3058589698266 L 130.29168139267523 205.06072953888525 L 133.21373571968144 198.85965204442977 L 136.19517448225548 192.71148010295826 L 139.2426898320079 186.6256018463585 L 142.36326323349186 180.61200916660826 L 145.56415924744857 174.6813701038986 L 148.85290792239977 168.84510355840862 L 152.23727225775457 163.11545501104092 L 155.7251965073374 157.5055713070166 L 159.32473038024787 152.02957171621804 L 163.04392356345693 146.70261148427426 L 166.89068454605084 141.54093285378735 L 170.87259766671406 136.56189713021075 L 174.9966928835546 131.7839898340916 L 179.26916430321754 127.2267894491805 L 183.69503637308588 122.91088895253955 L 188.27778119522563 118.85775850484839 L 193.01889691395596 115.08953782640654 L 197.91746552895395 111.62874833976258 L 202.96971831439603 108.4979187155092 L 208.16864711324726 105.71912334074983 L 213.50370821388293 103.31344159209229 L 218.96066973399934 101.30035620085343 L 224.5216506762881 99.69712035124101 L 230.16538794876723 98.51813363777529 L 235.86774618092946 97.77437431270025 L 241.60245614578105 97.47293711340365 L 247.3420357551689 97.61672075912998 L 253.0588195234194 98.20429686449893 L 258.7260047264121 99.22997402779708 L 264.31861970144223 100.6840503429217 L 269.81433256454557 102.55322832083314 L 275.19404376261787 104.82115163029391 L 280.4422372047463 107.46901532993036 L 285.5470953812195 110.47620078716756 L 290.50040833952164 113.82089214589547 L 295.29732165888225 117.48064084323426 L 299.9359743090571 121.43285598824758 L 304.4170751896959 125.65520930276583 L 308.74345986176127 130.12595247768274 L 312.9196592105942 134.82415155831492 L 316.9515016934351 139.72984729148027 L 320.8457618402461 144.82415256675407 L 324.60986049965487 150.08929865545701 L 328.2516171070128 155.50864142954 L 331.7790508422126 161.06663754043555 L 335.20022558082064 166.74879906572772 L 338.5231326742864 172.5416335702596 L 341.75560546398697 178.43257507040988 L 344.9052597669978 184.40991009761183 L 347.97945515796357 190.4627019670596 L 350.9852725650172 196.58071546990436 L 353.92950440648747 202.7543435024847 L 356.81865415536174 208.97453661427613 L 359.6589428184804 215.23273603536035 L 362.4563203204704 221.5208104614616 L 365.21648021323404 227.83099665377335 L 367.94487647948415 234.15584376849756 L 370.6467414789605 240.48816123535894 L 373.32710430639753 246.82096994732424 L 375.9908090007705 253.14745649556426 L 378.6425321754457 259.4609301722624 L 381.2867997301607 265.7547824802843 L 383.92800237953236 272.0224488930549 L 386.5704097714478 278.2573726499028 L 386.57826827920474 278.2757609893739" fill="none" stroke="#1d4ed8" stroke-width="1.5" opacity="0.95"/>
<path class="sun-visible" d="M 78.41131248896697 281.314187618186 L 79.5643922826956 278.76964817604863 L 82.14708976553736 272.9459609559873 L 84.71406562122202 267.046011489394 L 87.26864930689624 261.07602083072584 L 89.8143064779936 255.0421014698362 L 92.35464727678823 248.95027827644674 L 94.89343740507385 242.8065115983103 L 97.43461202677481 236.61672258018376 L 99.98229257269054 230.38682084260967 L 102.5408065389698 224.12273471968604 L 105.1147103902043 217.83044432558614 L 107.70881569074177 211.51601779128006 L 110.32821859110967 205.18565108971652 L 112.97833278523392 198.84571194912544 L 115.66492602046782 192.50278843810028 L 118.39416018131023 186.16374290064064 L 121.17263485535759 179.83577200205417 L 124.00743412496793 173.526473743231 L 126.90617607033236 167.24392237556188 L 129.87706409839916 160.99675220963636 L 132.92893868123468 154.7942513336891 L 136.0713273453801 148.64646621887698 L 139.3144897345909 142.56431805221837 L 142.66945319231382 136.55973134932623 L 146.1480324951678 130.6457748953457 L 149.7628250154625 124.83681422445287 L 153.52716965228458 119.14867358032149 L 157.45505432375498 113.59880341161275 L 161.56095278808766 108.20644678761289 L 165.85956739793744 102.99279447334081 L 170.36545080339312 97.98111364256138 L 175.0924778570656 93.19682931800418 L 180.0531410027965 88.66753086558569 L 185.25765099040834 84.42286896772015 L 190.71284312804724 80.49430285759999 L 196.42092054144928 76.91465555890733 L 202.3781112743054 73.71743958570781 L 208.57337251776644 70.93593061392409 L 214.98733280724852 68.6019948167235 L 221.59170343433055 66.74471694447661 L 228.34938967637012 65.38892603197831 L 235.21546955372568 64.55376299651158 L 242.13907724543424 64.25146397426985 L 249.06605168238934 64.48653007672036 L 255.94203710285655 65.25541119408945 L 262.71561091589354 66.54675471566844 L 269.3410072932646 68.3421790768183 L 275.7801052082037 70.61745231202244 L 282.0035188873767 73.34390800186668 L 287.9908079566892 76.48992315084337 L 293.7299625297286 80.02230884420598 L 299.216389812704 83.90751063790017 L 304.4516360921761 88.11256583270901 L 309.44204124157613 92.60580758586781 L 314.19746628924685 97.35733566880205 L 318.73017730503756 102.3392902176169 L 323.0539218634594 107.52597060567143 L 327.1832013723589 112.89384015551397 L 331.13272275598877 118.42145206646475 L 334.9170034075883 124.0893250844428 L 338.5501006600056 129.8797906171441 L 342.04543844647367 135.77682696825426 L 345.4157072661993 141.76589147396848 L 348.67281771180444 147.8337575424469 L 351.8278918817805 153.9683608190567 L 354.8912806138613 160.15865673106651 L 357.8725974935213 166.39449032429545 L 360.7807630096878 172.66647842804232 L 363.62405410890517 178.96590364063758 L 366.410155821318 185.28461932500446 L 369.1462126937034 191.61496464118886 L 371.83887853324825 197.9496886053736 L 374.4943635214269 204.28188217556863 L 377.11847814566755 210.60491742259245 L 379.7166736640591 216.9123929221422 L 382.29407899711794 223.19808459244223 L 384.85553405474894 229.45590129257874 L 387.40561957577467 235.6798445850416 L 389.94868359159716 241.8639721584985 L 392.48886464226314 248.00236447801842 L 395.0301118685616 254.0890943180931 L 397.5762020939047 260.11819890000953 L 400.1307539914204 266.08365442652877 L 402.6972394106193 271.9793528720343 L 405.27899191590035 277.7990809500965 L 407.86909021129446 283.51416613244436" fill="none" stroke="#1e40af" stroke-width="1.5" opacity="0.95"/>
<path class="sun-visible" d="M 69.2062206588179 283.9050759020553 L 71.5716373237627 278.92372278627676 L 74.13422373055025 273.37893043745987 L 76.67632469648473 267.7409580360225 L 79.20074821391637 262.0159422924013 L 81.71044274927662 256.20989063655503 L 84.20850118529171 250.32869438364986 L 86.69816750989756 244.3781441166135 L 89.18284635005894 238.36394725608812 L 91.66611547299279 232.29174784758322 L 94.1517414096545 226.16714865221718 L 96.64369838972183 219.9957356936186 L 99.14619081649346 213.78310548197214 L 101.66367955092213 207.53489521238953 L 104.20091231549492 201.25681631819347 L 106.76295856788383 194.95469185277364 L 109.35524922708177 188.6344982786189 L 111.98362165694206 182.30241235675362 L 114.6543703111682 175.96486396456254 L 117.37430341304675 169.62859581195784 L 120.15080595826466 163.300731188519 L 122.99190916748832 156.98885104572884 L 125.90636623742876 150.70108189707585 L 128.90373379188424 144.44619619255602 L 131.99445774367507 138.2337269731443 L 135.18996124265854 132.07409870346356 L 138.50273087037618 125.97877616204028 L 141.94639506845158 119.96043306637128 L 145.5357857443295 114.03314159223626 L 149.28696982629032 108.21258295174476 L 153.21723198923365 102.51627746925575 L 157.34498265459274 96.96382981260217 L 161.68955670381015 91.5771807824255 L 166.27085861684793 86.3808508571575 L 171.10880029377842 81.40215208435126 L 176.22247139850026 76.67133365951508 L 181.62898348114678 72.22161297597978 L 187.34194567706194 68.08902949574042 L 193.3695707280895 64.31204675969161 L 199.71248434858873 60.93082393808271 L 206.36142160966202 57.98609066474825 L 213.29512951921575 55.51759645831589 L 220.4789203146569 53.562174495988984 L 227.86437528423644 52.1515549247427 L 235.39061616427594 51.31016576927303 L 242.98730268954606 51.053234791714516 L 250.5791180250922 51.385513967135864 L 258.091094722849 52.30086674959384 L 265.4538803984459 53.78279973875706 L 272.6080609889662 55.80583396768478 L 279.50694138409096 58.337460223843124 L 286.1176000580006 61.34035297485718 L 292.42041881942146 64.77453621076498 L 298.40752492199977 68.59927563082445 L 304.080644647903 72.77457520829205 L 309.448799286769 77.26224885956731 L 314.5261448978898 82.0266023962323 L 319.33012352763836 87.03479482696338 L 323.87998732215476 92.25695782460491 L 328.19568733537653 97.6661468062193 L 332.29708155457024 103.23818446989267 L 336.2034025521772 108.951443175284 L 339.93292511197376 114.78659924212639 L 343.5027812034498 120.72638132586195 L 346.92887928694915 126.75532675379134 L 350.22589457424544 132.8595537748324 L 353.4073053495943 139.02655363641304 L 356.485457368633 145.24500377730814 L 359.4716437134055 151.50460180991573 L 362.3761914938439 157.79591904273067 L 365.2085497055028 164.11027182654072 L 367.9773746307113 170.43960883434008 L 370.69061061385196 176.77641238222122 L 373.35556502767514 183.1136120039665 L 375.9789769009154 189.44450864356793 L 378.5670790997001 195.76270800583893 L 381.1256542157157 202.0620617835518 L 383.66008446418647 208.33661565036783 L 386.1753959708959 214.58056306761438 L 388.6762978543648 220.78820409597353 L 391.16721650634054 226.9539085347159 L 393.652325448919 233.0720828222355 L 396.1355711141266 239.13714023840362 L 398.62069485110123 245.1434740385589 L 401.1112514248856 251.08543323232942 L 403.61062423002227 256.9573007952616 L 406.1220374037753 262.7532741698961 L 408.64856498897575 268.4674479763609 L 411.1931372659944 274.09379891140037 L 413.7585443492105 279.6261728723165 L 416.3474371230402 285.05827439181104 L 416.7640546648716 285.9067421106348" fill="none" stroke="#1e3a8a" stroke-width="1.5" opacity="0.95"/>
</g>
<g id="hour-layer">
<path d="M 88.20801235173062 278.776178107786 L 84.71406562122202 267.046011489394 L 79.20074821391637 262.0159422924013" fill="none" stroke="#f97316" stroke-width="0.8" opacity="0.55"/>
<text x="83.7043802828235" y="258.0159422924013" text-anchor="middle" font-size="9" fill="#f97316" font-weight="500" opacity="0.7">7h</text>
<path d="M 135.7602658581256 268.40231447405773 L 133.44154014894048 257.4130957987669 L 108.33927774863224 255.59516663431512 L 99.98229257269054 230.38682084260967 L 94.1517414096545 226.16714865221718" fill="none" stroke="#f97316" stroke-width="0.8" opacity="0.55"/>
<text x="114.95600363389005" y="222.16714865221718" text-anchor="middle" font-size="9" fill="#f97316" font-weight="500" opacity="0.7">8h</text>
<path d="M 159.43283185680878 265.2372255137847 L 157.8289377511713 258.89726291558105 L 150.91547919117264 221.57812899481561 L 124.60038414918357 217.58665558942897 L 115.66492602046782 192.50278843810028 L 109.35524922708177 188.6344982786189" fill="none" stroke="#f97316" stroke-width="0.8" opacity="0.55"/>
<text x="134.3940405419453" y="184.6344982786189" text-anchor="middle" font-size="9" fill="#f97316" font-weight="500" opacity="0.7">9h</text>
<path d="M 184.57302680943218 263.07371033808874 L 182.37949992968638 259.2595833608505 L 176.18437383956203 228.5090464186444 L 170.5203488778389 189.5113640863419 L 142.36326323349186 180.61200916660826 L 132.92893868123468 154.7942513336891 L 125.90636623742876 150.70108189707585" fill="none" stroke="#f97316" stroke-width="0.8" opacity="0.55"/>
<text x="155.23969652343047" y="146.70108189707585" text-anchor="middle" font-size="9" fill="#f97316" font-weight="500" opacity="0.7">10h</text>
<path d="M 205.71919585876987 247.42812922127283 L 201.2637047231252 237.11604733476466 L 196.65923533657605 204.34315201990825 L 193.14767563879656 163.7158609969561 L 163.04392356345693 146.70261148427426 L 153.52716965228458 119.14867358032149 L 145.5357857443295 114.03314159223626" fill="none" stroke="#f97316" stroke-width="0.8" opacity="0.55"/>
<text x="175.6274908015497" y="110.03314159223626" text-anchor="middle" font-size="9" fill="#f97316" font-weight="500" opacity="0.7">11h</text>
<path d="M 225.49564723040098 235.12456584042997 L 221.69646996166935 222.9741024606576 L 219.30655504686348 188.67088361597848 L 219.04184261782194 147.2215665558611 L 188.27778119522563 118.85775850484839 L 180.0531410027965 88.66753086558569 L 171.10880029377842 81.40215208435126" fill="none" stroke="#f97316" stroke-width="0.8" opacity="0.55"/>
<text x="198.30222376208968" y="77.40215208435126" text-anchor="middle" font-size="9" fill="#f97316" font-weight="500" opacity="0.7">12h</text>
<path d="M 245.99651538432653 231.98028561565621 L 243.0951499760007 218.24137176291828 L 243.3690508863296 183.42272050990383 L 247.02170865226455 142.74382921313085 L 218.96066973399934 101.30035620085343 L 214.98733280724852 68.6019948167235 L 206.36142160966202 57.98609066474825" fill="none" stroke="#f97316" stroke-width="0.8" opacity="0.55"/>
<text x="226.1789684969943" y="53.98609066474825" text-anchor="middle" font-size="9" fill="#f97316" font-weight="500" opacity="0.7">13h</text>
<path d="M 266.34163561482376 238.31987202326394 L 264.46928226442924 223.44922621288566 L 267.38351124153155 189.3488435167476 L 274.5818561402478 151.15973168863516 L 253.0588195234194 98.20429686449893 L 255.94203710285655 65.25541119408945 L 250.5791180250922 51.385513967135864" fill="none" stroke="#f97316" stroke-width="0.8" opacity="0.55"/>
<text x="258.460376819958" y="47.385513967135864" text-anchor="middle" font-size="9" fill="#f97316" font-weight="500" opacity="0.7">14h</text>
<path d="M 285.7166780352193 253.50183392939948 L 284.84035371224974 238.01339423997013 L 289.914398792881 205.6019130606298 L 299.5112243175506 170.86438433451 L 285.5470953812195 110.47620078716756 L 293.7299625297286 80.02230884420598 L 292.42041881942146 64.77453621076498" fill="none" stroke="#f97316" stroke-width="0.8" opacity="0.55"/>
<text x="289.06854842732037" y="60.77453621076498" text-anchor="middle" font-size="9" fill="#f97316" font-weight="500" opacity="0.7">15h</text>
<path d="M 303.6595161861285 264.5793388575356 L 303.651797563905 260.49535085617737 L 310.25956100338436 230.20324749347293 L 321.1353184316834 198.89055132700435 L 312.9196592105942 134.82415155831492 L 323.0539218634594 107.52597060567143 L 323.87998732215476 92.25695782460491" fill="none" stroke="#f97316" stroke-width="0.8" opacity="0.55"/>
<text x="313.7697517541416" y="88.25695782460491" text-anchor="middle" font-size="9" fill="#f97316" font-weight="500" opacity="0.7">16h</text>
<path d="M 326.81851173412207 267.14767830015103 L 328.5144585190478 260.8808671442888 L 339.98497141499047 232.324733072453 L 335.20022558082064 166.74879906572772 L 345.4157072661993 141.76589147396848 L 346.92887928694915 126.75532675379134" fill="none" stroke="#f97316" stroke-width="0.8" opacity="0.55"/>
<text x="336.87369551053564" y="122.75532675379134" text-anchor="middle" font-size="9" fill="#f97316" font-weight="500" opacity="0.7">17h</text>
<path d="M 355.77509985759417 271.69350278360724 L 357.02384819534683 268.8581355408752 L 353.92950440648747 202.7543435024847 L 363.62405410890517 178.96590364063758 L 365.2085497055028 164.11027182654072" fill="none" stroke="#f97316" stroke-width="0.8" opacity="0.55"/>
<text x="360.4918247815485" y="160.11027182654072" text-anchor="middle" font-size="9" fill="#f97316" font-weight="500" opacity="0.7">18h</text>
<path d="M 372.0011079541106 271.4112427256978 L 370.6467414789605 240.48816123535894 L 379.7166736640591 216.9123929221422 L 381.1256542157157 202.0620617835518" fill="none" stroke="#f97316" stroke-width="0.8" opacity="0.55"/>
<text x="376.56338108491315" y="198.0620617835518" text-anchor="middle" font-size="9" fill="#f97316" font-weight="500" opacity="0.7">19h</text>
<path d="M 386.5704097714478 278.2573726499028 L 395.0301118685616 254.0890943180931 L 396.1355711141266 239.13714023840362" fill="none" stroke="#f97316" stroke-width="0.8" opacity="0.55"/>
<text x="391.35299044278725" y="235.13714023840362" text-anchor="middle" font-size="9" fill="#f97316" font-weight="500" opacity="0.7">20h</text>
<path d="M 410.72574421474025 284.2844224364102 L 411.1931372659944 274.09379891140037" fill="none" stroke="#f97316" stroke-width="0.8" opacity="0.55"/>
<text x="410.9594407403673" y="270.09379891140037" text-anchor="middle" font-size="9" fill="#f97316" font-weight="500" opacity="0.7">21h</text>
</g>
<text x="50" y="332" text-anchor="middle" font-size="10" fill="#6b7280">-135°</text>
<text x="114.16666666666666" y="332" text-anchor="middle" font-size="10" fill="#6b7280">E</text>
<text x="178.33333333333331" y="332" text-anchor="middle" font-size="10" fill="#6b7280">-45°</text>
<text x="242.5" y="332" text-anchor="middle" font-size="10" fill="#6b7280">S</text>
<text x="306.66666666666663" y="332" text-anchor="middle" font-size="10" fill="#6b7280">+45°</text>
<text x="370.83333333333337" y="332" text-anchor="middle" font-size="10" fill="#6b7280">O</text>
<text x="435" y="332" text-anchor="middle" font-size="10" fill="#6b7280">+135°</text>
<text x="44" y="304" text-anchor="end" font-size="9" fill="#6b7280">0°</text>
<text x="44" y="265.42857142857144" text-anchor="end" font-size="9" fill="#6b7280">10°</text>
<text x="44" y="226.85714285714286" text-anchor="end" font-size="9" fill="#6b7280">20°</text>
<text x="44" y="188.28571428571428" text-anchor="end" font-size="9" fill="#6b7280">30°</text>
<text x="44" y="149.71428571428572" text-anchor="end" font-size="9" fill="#6b7280">40°</text>
<text x="44" y="111.14285714285714" text-anchor="end" font-size="9" fill="#6b7280">50°</text>
<text x="44" y="72.57142857142858" text-anchor="end" font-size="9" fill="#6b7280">60°</text>
<text x="44" y="34" text-anchor="end" font-size="9" fill="#6b7280">70°</text>
</svg>